<svg width="140" height="140" viewBox="0 0 140 140" fill="none" xmlns="http://www.w3.org/2000/svg">
<path d="M87.5 107.188H52.5C57.6686 98.6824 60.666 89.0366 61.2281 79.1L70 74.375L78.7719 79.1C79.334 89.0366 82.3314 98.6824 87.5 107.188Z" fill="#FFAB02"/>
<path d="M78.7719 79.1L70 74.375L61.2281 79.1L41.6063 89.6875L48.125 56.875L24.0625 35L54.6875 30.625L70 2.1875L83.125 30.625L115.938 35L91.875 56.875L98.3937 89.6875L78.7719 79.1Z" fill="#FFCB02"/>
<path d="M98.4375 107.188H41.5625V124.688H98.4375V107.188Z" fill="#FFAB02"/>
<path d="M105 124.688H35V137.812H105V124.688Z" fill="#913F55"/>
<path opacity="0.4" d="M41.5625 107.188V124.688H98.4375V118.125H59.0625C56.7419 118.125 54.5163 117.203 52.8753 115.562C51.2344 113.921 50.3125 111.696 50.3125 109.375V107.188H41.5625Z" fill="#F58A07"/>
<path d="M35 124.688V137.812H105V133.438H50.3125C48.572 133.438 46.9028 132.746 45.6721 131.515C44.4414 130.285 43.75 128.615 43.75 126.875V124.688H35Z" fill="#BD3150"/>
<path d="M78.75 113.75H61.25C60.0419 113.75 59.0625 114.729 59.0625 115.938C59.0625 117.146 60.0419 118.125 61.25 118.125H78.75C79.9581 118.125 80.9375 117.146 80.9375 115.938C80.9375 114.729 79.9581 113.75 78.75 113.75Z" fill="white"/>
<path opacity="0.4" d="M69.965 100.625C68.9883 100.625 68.0241 100.406 67.1425 99.9857C66.261 99.5653 65.4844 98.9534 64.8695 98.1946C64.2545 97.4359 63.8166 96.5494 63.5878 95.5999C63.359 94.6504 63.345 93.6618 63.5469 92.7063C64.75 87.0866 65.625 80.9375 65.625 80.9375L70 78.75L79.1875 83.3437C78.9491 81.5237 78.8287 80.0516 78.7719 79.1L70 74.375L61.2281 79.1C60.666 89.0366 57.6686 98.6824 52.5 107.188H87.5C86.1372 105.099 84.9448 102.905 83.9344 100.625H69.965Z" fill="#F58A07"/>
<path d="M70 2.1875L54.6875 30.625L70 48.125V2.1875Z" fill="#FFCB02"/>
<path opacity="0.2" d="M91.875 56.875L115.938 35L70 48.125L91.875 56.875Z" fill="#F58A07"/>
<path d="M115.938 35L83.125 30.625L70 48.125L115.938 35Z" fill="#FFCB02"/>
<path d="M54.6875 30.625L24.0625 35L70 48.125L54.6875 30.625Z" fill="#FFDA4D"/>
<path d="M83.125 30.625L70 2.1875V48.125L83.125 30.625Z" fill="#FFDA4D"/>
<path opacity="0.6" d="M70 74.375L78.7719 79.1L98.3937 89.6875L98.3762 89.5978L70 48.125V74.375Z" fill="#F58A07"/>
<path d="M70 48.125L98.3763 89.5978L91.875 56.875L70 48.125Z" fill="#FFCB02"/>
<path opacity="0.4" d="M41.6239 89.5978L41.6064 89.6875L61.2283 79.1L70.0002 74.375V48.125L41.6239 89.5978Z" fill="#F58A07"/>
<path d="M48.1253 56.875L41.624 89.5978L70.0003 48.125L48.1253 56.875Z" fill="#FFCB02"/>
<path opacity="0.3" d="M24.0625 35L48.125 56.875L70 48.125L24.0625 35Z" fill="#F58A07"/>
<path d="M65.752 96.728V94.968L70.984 87.48H73.592V94.776H75V96.728H73.592V99H71.352V96.728H65.752ZM71.496 89.88L68.216 94.776H71.496V89.88Z" fill="#FFDA4D"/>
</svg>
