<svg width="140" height="140" viewBox="0 0 140 140" fill="none" xmlns="http://www.w3.org/2000/svg">
<path d="M89.6875 89.425L79.8438 99.5094L82.1625 113.75L70 107.034L57.8375 113.75L60.1562 99.5094L50.3125 89.425L63.9187 87.3469L70 74.375L76.0812 87.3469L89.6875 89.425Z" fill="#F58A07"/>
<path d="M64.5312 31.2156L70 24.8938L89.6875 2.1875H100.625L72.1875 35H61.25L64.5312 31.2156Z" fill="#CADAE0"/>
<path d="M50.3125 2.1875L70 24.8938L64.5312 31.2156L39.375 2.1875H50.3125Z" fill="#CADAE0"/>
<path d="M64.5312 31.2156L61.25 35H56.875L28.4375 2.1875H39.375L64.5312 31.2156Z" fill="#BD3150"/>
<path d="M111.562 2.1875L83.125 35H72.1875L100.625 2.1875H111.562Z" fill="#BD3150"/>
<path d="M78.7499 55.6281C89.0464 57.8677 98.0921 63.9702 104.024 72.6788C109.957 81.3875 112.324 92.0393 110.639 102.441C108.953 112.842 103.344 122.202 94.965 128.592C86.5863 134.982 76.0764 137.915 65.5996 136.789C55.1227 135.663 45.4765 130.562 38.6474 122.538C31.8183 114.513 28.3262 104.175 28.8901 93.6529C29.4541 83.1308 34.0312 73.2255 41.6789 65.9767C49.3266 58.7279 59.4627 54.6875 69.9999 54.6875C72.9417 54.6905 75.8748 55.0058 78.7499 55.6281ZM102.812 96.25C102.812 89.7603 100.888 83.4163 97.2825 78.0204C93.677 72.6244 88.5524 68.4187 82.5567 65.9352C76.561 63.4517 69.9635 62.8019 63.5985 64.068C57.2335 65.3341 51.3869 68.4591 46.798 73.0481C42.2091 77.637 39.084 83.4836 37.8179 89.8486C36.5518 96.2136 37.2016 102.811 39.6851 108.807C42.1686 114.802 46.3743 119.927 51.7703 123.533C57.1663 127.138 63.5102 129.062 69.9999 129.062C78.7015 129.06 87.0458 125.602 93.1987 119.449C99.3516 113.296 102.81 104.952 102.812 96.25Z" fill="#FFAB02"/>
<path d="M70 63.4375C76.4897 63.4375 82.8337 65.3619 88.2296 68.9674C93.6256 72.5729 97.8313 77.6975 100.315 83.6932C102.798 89.6889 103.448 96.2864 102.182 102.651C100.916 109.016 97.7909 114.863 93.2019 119.452C88.613 124.041 82.7664 127.166 76.4014 128.432C70.0364 129.698 63.4389 129.048 57.4432 126.565C51.4475 124.081 46.3229 119.876 42.7174 114.48C39.1119 109.084 37.1875 102.74 37.1875 96.25C37.1904 87.5485 40.6483 79.2042 46.8013 73.0513C52.9542 66.8984 61.2985 63.4404 70 63.4375ZM79.8438 99.5094L89.6875 89.425L76.0812 87.3469L70 74.375L63.9187 87.3469L50.3125 89.425L60.1562 99.5094L57.8375 113.75L70 107.034L82.1625 113.75L79.8438 99.5094Z" fill="#FFDA4D"/>
<path d="M83.125 35V43.75H78.75H61.25H56.875V35H61.25H72.1875H83.125Z" fill="#FF9102"/>
<path d="M78.75 43.75V55.6281C72.9841 54.374 67.0159 54.374 61.25 55.6281V43.75H78.75Z" fill="#BD3150"/>
<path d="M61.2255 111.88L57.837 113.75L58.5764 109.213C53.7288 103.749 50.8549 96.8166 50.4148 89.5256L50.312 89.4249L50.4083 89.4096C50.3711 88.7753 50.312 88.1562 50.312 87.4999C50.3116 79.3106 53.3886 71.4201 58.933 65.3931C54.2413 67.0676 49.9929 69.789 46.5103 73.3509C43.0276 76.9127 40.4024 81.2213 38.8338 85.9494C37.2653 90.6775 36.7947 95.7009 37.4578 100.638C38.1209 105.575 39.9002 110.296 42.6607 114.443C45.4212 118.59 49.0902 122.053 53.3892 124.57C57.6882 127.087 62.5042 128.591 67.4714 128.968C72.4386 129.345 77.4264 128.586 82.0562 126.747C86.686 124.908 90.836 122.039 94.1911 118.357C88.6269 120.378 82.6166 120.843 76.8076 119.702C70.9986 118.561 65.6111 115.856 61.2255 111.88Z" fill="#FFC400"/>
<path d="M70 59.0625C62.645 59.0625 55.4552 61.2435 49.3397 65.3297C43.2243 69.4159 38.4579 75.2238 35.6432 82.019C32.8286 88.8141 32.0922 96.2913 33.5271 103.505C34.962 110.719 38.5037 117.345 43.7045 122.546C48.9052 127.746 55.5314 131.288 62.7451 132.723C69.9588 134.158 77.4359 133.421 84.2311 130.607C91.0262 127.792 96.8341 123.026 100.92 116.91C105.007 110.795 107.188 103.605 107.188 96.25C107.188 86.3873 103.27 76.9285 96.2956 69.9545C89.3215 62.9805 79.8628 59.0625 70 59.0625ZM70 129.062C63.5103 129.062 57.1664 127.138 51.7704 123.533C46.3744 119.927 42.1687 114.802 39.6852 108.807C37.2017 102.811 36.5519 96.2136 37.818 89.8486C39.0841 83.4836 42.2092 77.637 46.7981 73.0481C51.387 68.4591 57.2336 65.3341 63.5986 64.068C69.9636 62.8019 76.5611 63.4517 82.5568 65.9352C88.5525 68.4187 93.6771 72.6244 97.2826 78.0204C100.888 83.4163 102.813 89.7603 102.813 96.25C102.81 104.952 99.3517 113.296 93.1988 119.449C87.0458 125.602 78.7015 129.06 70 129.062Z" fill="#FF9102"/>
<path d="M56.875 35V43.75H83.125V39.375H67.8125C66.6522 39.375 65.5394 38.9141 64.7189 38.0936C63.8984 37.2731 63.4375 36.1603 63.4375 35H56.875Z" fill="#FA7A31"/>
<path d="M64.5314 18.5938L60.0908 23.0344C59.5997 23.5191 58.9996 23.8792 58.3408 24.0844L64.5314 31.2156L70.0002 24.8938L64.5314 18.5938Z" fill="#99A5AC"/>
<path d="M53.7862 22.9031L34.6631 2.1875H28.4375L56.875 35H61.25L64.5312 31.2156L58.3472 24.08C57.5541 24.3418 56.7025 24.37 55.8939 24.1613C55.0852 23.9527 54.3536 23.5159 53.7862 22.9031Z" fill="#913F55"/>
<path opacity="0.2" d="M61.25 43.75V55.6281C62.6948 55.316 64.1552 55.0809 65.625 54.9237V50.3125C65.625 49.7323 65.8555 49.1759 66.2657 48.7657C66.6759 48.3555 67.2323 48.125 67.8125 48.125H78.75V43.75H61.25Z" fill="black"/>
<path d="M73.688 92.272H68.504V95.008C68.728 94.7307 69.048 94.5067 69.464 94.336C69.88 94.1547 70.3227 94.064 70.792 94.064C71.6453 94.064 72.344 94.2507 72.888 94.624C73.432 94.9973 73.8267 95.4773 74.072 96.064C74.3173 96.64 74.44 97.2587 74.44 97.92C74.44 99.1467 74.088 100.133 73.384 100.88C72.6907 101.627 71.6987 102 70.408 102C69.192 102 68.2213 101.696 67.496 101.088C66.7707 100.48 66.36 99.6853 66.264 98.704H68.44C68.536 99.1307 68.7493 99.472 69.08 99.728C69.4213 99.984 69.8533 100.112 70.376 100.112C71.0053 100.112 71.48 99.9147 71.8 99.52C72.12 99.1253 72.28 98.6027 72.28 97.952C72.28 97.2907 72.1147 96.7893 71.784 96.448C71.464 96.096 70.9893 95.92 70.36 95.92C69.912 95.92 69.5387 96.032 69.24 96.256C68.9413 96.48 68.728 96.7787 68.6 97.152H66.456V90.304H73.688V92.272Z" fill="#FFDA4D"/>
</svg>
