<svg width="104" height="136" viewBox="0 0 104 136" fill="none" xmlns="http://www.w3.org/2000/svg">
<path d="M61.6875 87.425L51.8438 97.5094L54.1625 111.75L42 105.034L29.8375 111.75L32.1562 97.5094L22.3125 87.425L35.9187 85.3469L42 72.375L48.0812 85.3469L61.6875 87.425Z" fill="#F58A07"/>
<path d="M36.5312 29.2156L42 22.8938L61.6875 0.1875H72.625L44.1875 33H33.25L36.5312 29.2156Z" fill="#CADAE0"/>
<path d="M22.3125 0.1875L42 22.8938L36.5312 29.2156L11.375 0.1875H22.3125Z" fill="#CADAE0"/>
<path d="M36.5312 29.2156L33.25 33H28.875L0.4375 0.1875H11.375L36.5312 29.2156Z" fill="#BD3150"/>
<path d="M83.5625 0.1875L55.125 33H44.1875L72.625 0.1875H83.5625Z" fill="#BD3150"/>
<path d="M50.7499 53.6281C61.0464 55.8677 70.0921 61.9702 76.0244 70.6788C81.9567 79.3875 84.324 90.0393 82.6386 100.441C80.9533 110.842 75.3437 120.202 66.965 126.592C58.5863 132.982 48.0764 135.915 37.5996 134.789C27.1227 133.663 17.4765 128.562 10.6474 120.538C3.8183 112.513 0.326157 102.175 0.890106 91.6529C1.45406 81.1308 6.03116 71.2255 13.6789 63.9767C21.3266 56.7279 31.4627 52.6875 41.9999 52.6875C44.9417 52.6905 47.8748 53.0058 50.7499 53.6281ZM74.8124 94.25C74.8124 87.7603 72.888 81.4163 69.2825 76.0204C65.677 70.6244 60.5524 66.4187 54.5567 63.9352C48.561 61.4517 41.9635 60.8019 35.5985 62.068C29.2335 63.3341 23.3869 66.4591 18.798 71.0481C14.2091 75.637 11.084 81.4836 9.81792 87.8486C8.55184 94.2136 9.20164 100.811 11.6851 106.807C14.1686 112.802 18.3743 117.927 23.7703 121.533C29.1663 125.138 35.5102 127.062 41.9999 127.062C50.7015 127.06 59.0458 123.602 65.1987 117.449C71.3516 111.296 74.8095 102.952 74.8124 94.25Z" fill="#FFAB02"/>
<path d="M42 61.4375C48.4897 61.4375 54.8337 63.3619 60.2296 66.9674C65.6256 70.5729 69.8313 75.6975 72.3148 81.6932C74.7983 87.6889 75.4481 94.2864 74.182 100.651C72.9159 107.016 69.7909 112.863 65.2019 117.452C60.613 122.041 54.7664 125.166 48.4014 126.432C42.0364 127.698 35.4389 127.048 29.4432 124.565C23.4475 122.081 18.3229 117.876 14.7174 112.48C11.1119 107.084 9.1875 100.74 9.1875 94.25C9.1904 85.5485 12.6483 77.2042 18.8013 71.0513C24.9542 64.8984 33.2985 61.4404 42 61.4375ZM51.8438 97.5094L61.6875 87.425L48.0812 85.3469L42 72.375L35.9187 85.3469L22.3125 87.425L32.1562 97.5094L29.8375 111.75L42 105.034L54.1625 111.75L51.8438 97.5094Z" fill="#FFDA4D"/>
<path d="M55.125 33V41.75H50.75H33.25H28.875V33H33.25H44.1875H55.125Z" fill="#FF9102"/>
<path d="M50.75 41.75V53.6281C44.9841 52.374 39.0159 52.374 33.25 53.6281V41.75H50.75Z" fill="#BD3150"/>
<path d="M33.2255 109.88L29.837 111.75L30.5764 107.213C25.7288 101.749 22.8549 94.8167 22.4148 87.5256L22.312 87.425L22.4083 87.4097C22.3711 86.7753 22.312 86.1563 22.312 85.5C22.3116 77.3107 25.3886 69.4202 30.933 63.3931C26.2413 65.0676 21.9929 67.7891 18.5103 71.3509C15.0276 74.9128 12.4024 79.2214 10.8338 83.9495C9.2653 88.6776 8.79471 93.701 9.45779 98.6381C10.1209 103.575 11.9002 108.297 14.6607 112.443C17.4212 116.59 21.0902 120.053 25.3892 122.57C29.6882 125.087 34.5042 126.591 39.4714 126.968C44.4386 127.345 49.4264 126.586 54.0562 124.747C58.686 122.908 62.836 120.039 66.1911 116.357C60.6269 118.378 54.6166 118.844 48.8076 117.702C42.9986 116.561 37.6111 113.856 33.2255 109.88Z" fill="#FFC400"/>
<path d="M42 57.0625C34.645 57.0625 27.4552 59.2435 21.3397 63.3297C15.2243 67.4159 10.4579 73.2238 7.64325 80.019C4.82861 86.8141 4.09218 94.2913 5.52706 101.505C6.96195 108.719 10.5037 115.345 15.7045 120.546C20.9052 125.746 27.5314 129.288 34.7451 130.723C41.9588 132.158 49.4359 131.421 56.2311 128.607C63.0262 125.792 68.8341 121.026 72.9203 114.91C77.0065 108.795 79.1875 101.605 79.1875 94.25C79.1875 84.3873 75.2696 74.9285 68.2956 67.9545C61.3215 60.9805 51.8628 57.0625 42 57.0625ZM42 127.062C35.5103 127.062 29.1664 125.138 23.7704 121.533C18.3744 117.927 14.1687 112.802 11.6852 106.807C9.20172 100.811 8.55192 94.2136 9.818 87.8486C11.0841 81.4836 14.2092 75.637 18.7981 71.0481C23.387 66.4591 29.2336 63.3341 35.5986 62.068C41.9636 60.8019 48.5611 61.4517 54.5568 63.9352C60.5525 66.4187 65.6771 70.6244 69.2826 76.0204C72.8881 81.4163 74.8125 87.7603 74.8125 94.25C74.8096 102.952 71.3517 111.296 65.1988 117.449C59.0458 123.602 50.7015 127.06 42 127.062Z" fill="#FF9102"/>
<path d="M28.875 33V41.75H55.125V37.375H39.8125C38.6522 37.375 37.5394 36.9141 36.7189 36.0936C35.8984 35.2731 35.4375 34.1603 35.4375 33H28.875Z" fill="#FA7A31"/>
<path d="M36.5314 16.5938L32.0908 21.0344C31.5997 21.5191 30.9996 21.8792 30.3408 22.0844L36.5314 29.2156L42.0002 22.8938L36.5314 16.5938Z" fill="#99A5AC"/>
<path d="M25.7862 20.9031L6.66312 0.1875H0.4375L28.875 33H33.25L36.5312 29.2156L30.3472 22.08C29.5541 22.3418 28.7025 22.37 27.8939 22.1613C27.0852 21.9527 26.3536 21.5159 25.7862 20.9031Z" fill="#913F55"/>
<path opacity="0.2" d="M33.25 41.75V53.6281C34.6948 53.316 36.1552 53.0809 37.625 52.9237V48.3125C37.625 47.7323 37.8555 47.1759 38.2657 46.7657C38.6759 46.3555 39.2323 46.125 39.8125 46.125H50.75V41.75H33.25Z" fill="black"/>
</svg>
