<svg width="87" height="139" viewBox="0 0 87 139" fill="none" xmlns="http://www.w3.org/2000/svg">
<path d="M63.1366 89.0898L53.2213 99.1523L55.6451 113.371L43.3061 106.59L30.9671 113.371L33.3908 99.1523L23.4756 89.0898L37.1366 86.9023L43.3061 73.9961L49.4756 86.9023L63.1366 89.0898Z" fill="#F58A07"/>
<path opacity="0.2" d="M37.7963 30.9023L43.3048 24.5586L63.1353 1.80859H74.1522L45.5082 34.6211H34.4912L37.7963 30.9023Z" fill="#77CAE5"/>
<path opacity="0.2" d="M23.473 1.80859L43.3035 24.5586L37.795 30.9023L12.4561 1.80859H23.473Z" fill="#77CAE5"/>
<path d="M37.7964 30.9023L34.4913 34.6211H30.0845L1.44043 1.80859H12.4574L37.7964 30.9023Z" fill="#BD3150"/>
<path d="M85.1679 1.80859L56.5238 34.6211H45.5068L74.1509 1.80859H85.1679Z" fill="#BD3150"/>
<path d="M52.1184 55.1836C71.0676 59.1211 85.1692 75.9648 85.1692 95.8711C85.1692 118.84 66.4404 137.434 43.3048 137.434C20.1692 137.434 1.44043 118.84 1.44043 95.8711C1.44043 75.9648 15.5421 59.3398 34.4913 55.1836C37.3557 54.5273 40.2201 54.3086 43.3048 54.3086C46.3896 54.3086 49.254 54.5273 52.1184 55.1836ZM76.3557 95.8711C76.3557 77.7148 61.593 63.0586 43.3048 63.0586C25.0167 63.0586 10.254 77.7148 10.254 95.8711C10.254 114.027 25.0167 128.684 43.3048 128.684C61.593 128.684 76.3557 114.027 76.3557 95.8711Z" fill="#FFAB02"/>
<path d="M43.3038 63.0586C61.5919 63.0586 76.3546 77.7148 76.3546 95.8711C76.3546 114.027 61.5919 128.684 43.3038 128.684C25.0156 128.684 10.2529 114.027 10.2529 95.8711C10.2529 77.7148 25.0156 63.0586 43.3038 63.0586ZM53.219 99.1523L63.1343 89.0898L49.4733 86.9023L43.3038 73.9961L37.1343 86.9023L23.4733 89.0898L33.3885 99.1523L30.9648 113.371L43.3038 106.59L55.6428 113.371L53.219 99.1523Z" fill="#FFDA4D"/>
<path d="M56.5256 34.6211V43.3711H52.1189H34.4917H30.085V34.6211H34.4917H45.5087H56.5256Z" fill="#F58A07"/>
<path d="M52.1183 43.3711V55.1836C49.2539 54.5273 46.3895 54.3086 43.3048 54.3086C40.22 54.3086 37.3556 54.5273 34.4912 55.1836V43.3711H52.1183Z" fill="#BD3150"/>
<path d="M34.4902 111.402L30.9648 113.371L31.6258 108.777C26.7784 103.527 23.9139 96.5273 23.4733 89.0898C23.4733 88.4336 23.4733 87.7773 23.4733 87.1211C23.4733 78.5898 26.7784 70.9336 32.0665 65.0273C19.5072 69.6211 10.2529 81.6523 10.2529 95.8711C10.2529 114.027 25.0156 128.684 43.3038 128.684C52.9987 128.684 61.5919 124.527 67.7614 117.965C64.236 119.277 60.4902 119.934 56.5241 119.934C47.9309 119.934 40.219 116.652 34.4902 111.402Z" fill="#FFC400"/>
<path d="M43.3053 58.6836C22.5934 58.6836 5.84766 75.3086 5.84766 95.8711C5.84766 116.434 22.5934 133.059 43.3053 133.059C64.0171 133.059 80.7629 116.434 80.7629 95.8711C80.7629 75.3086 64.0171 58.6836 43.3053 58.6836ZM43.3053 128.684C25.0171 128.684 10.2544 114.027 10.2544 95.8711C10.2544 77.7148 25.0171 63.0586 43.3053 63.0586C61.5934 63.0586 76.3561 77.7148 76.3561 95.8711C76.3561 114.027 61.5934 128.684 43.3053 128.684Z" fill="#F58A07"/>
<path d="M30.085 34.6211V43.3711H56.5256V38.9961H41.1019C38.6782 38.9961 36.6951 37.0273 36.6951 34.6211H30.085Z" fill="#FA7A31"/>
<path opacity="0.4" d="M37.7974 18.2148L33.3906 22.5898C32.95 23.0273 32.2889 23.4648 31.6279 23.6836L37.7974 30.9023L43.3059 24.5586L37.7974 18.2148Z" fill="#50555C"/>
<path opacity="0.4" d="M26.9997 22.5898L7.60992 1.80859H1.44043L30.0845 34.6211H34.4913L37.7964 30.9023L31.6269 23.6836C30.0845 24.1211 28.1014 23.9023 26.9997 22.5898Z" fill="#50555C"/>
<path opacity="0.4" d="M34.4912 43.3711V55.1836C36.0336 54.9648 37.3556 54.7461 38.898 54.5273V49.9336C38.898 48.6211 39.7793 47.7461 41.1014 47.7461H52.1183V43.3711H34.4912Z" fill="#50555C"/>
<path d="M42.4039 75.8825C42.7664 75.1242 43.8458 75.1242 44.2083 75.8825L49.2494 86.4282C49.391 86.7245 49.6692 86.9324 49.9935 86.9843L61.2202 88.782C62.0229 88.9105 62.345 89.8923 61.7744 90.4713L53.5809 98.7865C53.3552 99.0156 53.2534 99.3393 53.3074 99.6564L55.297 111.328C55.4376 112.153 54.563 112.775 53.8295 112.372L43.7877 106.854C43.4878 106.689 43.1244 106.689 42.8245 106.854L32.7826 112.372C32.0492 112.775 31.1746 112.153 31.3152 111.328L33.3048 99.6564C33.3588 99.3393 33.257 99.0156 33.0313 98.7865L24.8378 90.4713C24.2672 89.8923 24.5893 88.9105 25.392 88.782L36.6187 86.9843C36.943 86.9324 37.2212 86.7245 37.3628 86.4282L42.4039 75.8825Z" stroke="black" stroke-width="2" stroke-miterlimit="10" stroke-linejoin="round"/>
<path d="M43.3048 137.434C66.4259 137.434 85.1692 118.825 85.1692 95.8711C85.1692 72.9168 66.4259 54.3086 43.3048 54.3086C20.1838 54.3086 1.44043 72.9168 1.44043 95.8711C1.44043 118.825 20.1838 137.434 43.3048 137.434Z" stroke="black" stroke-width="2" stroke-miterlimit="10" stroke-linejoin="round"/>
<path d="M56.5256 34.6211H30.085V43.3711H56.5256V34.6211Z" stroke="black" stroke-width="2" stroke-miterlimit="10" stroke-linejoin="round"/>
<path d="M34.4912 56.4961V43.3711H52.1183V56.4961" stroke="black" stroke-width="2" stroke-miterlimit="10" stroke-linejoin="round"/>
<path d="M56.5251 34.6211L85.1692 1.80859H63.1353L34.4912 34.6211H56.5251Z" stroke="black" stroke-width="2" stroke-miterlimit="10" stroke-linejoin="round"/>
<path d="M30.0845 34.6211L1.44043 1.80859H23.4743L42.8055 24.3544" stroke="black" stroke-width="2" stroke-miterlimit="10" stroke-linejoin="round"/>
<path d="M45.5068 34.6201L74.1509 1.80762" stroke="black" stroke-width="2" stroke-miterlimit="10" stroke-linejoin="round"/>
<path d="M37.662 31.354L12.4102 1.4873" stroke="black" stroke-width="2" stroke-miterlimit="10" stroke-linejoin="round"/>
<path d="M75.2529 87.1201C75.6936 88.6514 75.914 89.9639 76.1343 91.4951" stroke="black" stroke-width="2" stroke-miterlimit="10" stroke-linejoin="round"/>
<path d="M76.3546 95.8701C76.3546 114.026 61.5919 128.683 43.3038 128.683C25.0156 128.683 10.2529 114.026 10.2529 95.8701C10.2529 77.7139 25.0156 63.0576 43.3038 63.0576C56.9648 63.0576 68.4224 71.1514 73.7105 82.7451" stroke="black" stroke-width="2" stroke-miterlimit="10" stroke-linejoin="round"/>
</svg>
