<svg width="18" height="18" viewBox="0 0 18 18" fill="none" xmlns="http://www.w3.org/2000/svg">
<g clip-path="url(#clip0_408_1979)">
<path d="M13.5 6.00098C14.7426 6.00098 15.75 4.99362 15.75 3.75098C15.75 2.50834 14.7426 1.50098 13.5 1.50098C12.2574 1.50098 11.25 2.50834 11.25 3.75098C11.25 4.99362 12.2574 6.00098 13.5 6.00098Z" stroke="#0B2B3E" stroke-width="2" stroke-linecap="round" stroke-linejoin="round"/>
<path d="M4.5 11.251C5.74264 11.251 6.75 10.2436 6.75 9.00098C6.75 7.75834 5.74264 6.75098 4.5 6.75098C3.25736 6.75098 2.25 7.75834 2.25 9.00098C2.25 10.2436 3.25736 11.251 4.5 11.251Z" stroke="#0B2B3E" stroke-width="2" stroke-linecap="round" stroke-linejoin="round"/>
<path d="M13.5 16.501C14.7426 16.501 15.75 15.4936 15.75 14.251C15.75 13.0083 14.7426 12.001 13.5 12.001C12.2574 12.001 11.25 13.0083 11.25 14.251C11.25 15.4936 12.2574 16.501 13.5 16.501Z" stroke="#0B2B3E" stroke-width="2" stroke-linecap="round" stroke-linejoin="round"/>
<path d="M6.44238 10.1335L11.5649 13.1185" stroke="#0B2B3E" stroke-width="2" stroke-linecap="round" stroke-linejoin="round"/>
<path d="M11.5574 4.88354L6.44238 7.86854" stroke="#0B2B3E" stroke-width="2" stroke-linecap="round" stroke-linejoin="round"/>
</g>
<defs>
<clipPath id="clip0_408_1979">
<rect width="18" height="18" fill="white" transform="translate(0 0.000976562)"/>
</clipPath>
</defs>
</svg>
