<svg width="14" height="14" viewBox="0 0 14 14" fill="none" xmlns="http://www.w3.org/2000/svg">
<path d="M13.6064 6.99961C13.6064 3.35089 10.6485 0.393022 6.99979 0.393022C3.35107 0.393022 0.393203 3.35089 0.393203 6.99961C0.393204 10.6483 3.35107 13.6062 6.99979 13.6062C10.6485 13.6062 13.6064 10.6483 13.6064 6.99961Z" fill="#F5C107"/>
<path d="M14 7C14 8.38447 13.5895 9.73785 12.8203 10.889C12.0511 12.0401 10.9579 12.9373 9.67878 13.4672C8.3997 13.997 6.99224 14.1356 5.63437 13.8655C4.2765 13.5954 3.02922 12.9287 2.05026 11.9497C1.07129 10.9708 0.404602 9.7235 0.134506 8.36563C-0.135591 7.00777 0.00303339 5.6003 0.532847 4.32122C1.06266 3.04214 1.95987 1.94888 3.11101 1.17971C4.26215 0.410544 5.61553 7.02179e-07 7 6.40175e-07C8.85541 0.00358542 10.6338 0.742237 11.9458 2.05421C13.2578 3.36619 13.9964 5.14459 14 7ZM0.786824 7C0.786824 8.22885 1.15122 9.4301 1.83393 10.4519C2.51665 11.4736 3.48701 12.27 4.62232 12.7402C5.75763 13.2105 7.00689 13.3335 8.21213 13.0938C9.41737 12.8541 10.5245 12.2623 11.3934 11.3934C12.2623 10.5244 12.8541 9.41737 13.0938 8.21213C13.3335 7.00689 13.2105 5.75763 12.7402 4.62232C12.27 3.48701 11.4736 2.51665 10.4519 1.83393C9.43011 1.15122 8.22885 0.786825 7 0.786825C5.35216 0.786825 3.77182 1.44143 2.60662 2.60662C1.44143 3.77182 0.786824 5.35216 0.786824 7Z" fill="#F58A07"/>
<path d="M3.11052 8.11317C3.05804 8.1981 2.97773 8.26161 2.88326 8.29291C2.78329 8.31565 2.6779 8.29906 2.58846 8.2465C2.49902 8.19393 2.43221 8.10933 2.40157 8.00984C2.07724 6.81765 2.23337 5.55157 2.83564 4.48977C3.43792 3.42797 4.43708 2.6573 5.6136 2.3471C5.71277 2.32362 5.81771 2.34033 5.90601 2.39367C5.99432 2.447 6.05897 2.53274 6.08619 2.63256C6.1134 2.73239 6.10101 2.8384 6.05166 2.92795C6.00231 3.0175 5.91991 3.0835 5.82206 3.11186C5.33766 3.23773 4.88419 3.45938 4.48772 3.76406C4.09125 4.06873 3.75961 4.45042 3.51188 4.88717C3.26415 5.32391 3.10521 5.80709 3.04422 6.30891C2.98323 6.81073 3.02138 7.3213 3.15648 7.81122C3.17793 7.91473 3.16161 8.022 3.11052 8.11317Z" fill="#F2DD91"/>
</svg>
