<svg width="57" height="57" viewBox="0 0 57 57" fill="none" xmlns="http://www.w3.org/2000/svg">
<g filter="url(#filter0_d_1185_5585)">
<path d="M29.1588 30.0061C29.0089 29.9813 28.8536 29.9957 28.7088 30.0501L22.676 32.3155L22.5346 32.3686C22.5312 32.3698 22.5278 32.3711 22.5245 32.3724L20.4033 33.169C20.0256 33.3108 19.5999 33.1755 19.3733 32.8417L18.8612 32.0869C18.631 31.7477 18.6677 31.294 18.9494 30.9961L30.2095 19.0924C30.3688 18.9239 30.4498 18.7056 30.4484 18.4863L36.4803 27.3766C36.2828 27.2973 36.0576 27.2903 35.8473 27.3693L29.527 29.7426C29.378 29.7986 29.2531 29.891 29.1588 30.0061Z" stroke="white" stroke-width="1.74713" stroke-linejoin="round"/>
<rect x="10.8736" y="9.87356" width="33.2529" height="33.2529" rx="16.6264" stroke="white" stroke-width="1.74713" shape-rendering="crispEdges"/>
</g>
<defs>
<filter id="filter0_d_1185_5585" x="0.390805" y="0.264368" width="55.9655" height="55.9655" filterUnits="userSpaceOnUse" color-interpolation-filters="sRGB">
<feFlood flood-opacity="0" result="BackgroundImageFix"/>
<feColorMatrix in="SourceAlpha" type="matrix" values="0 0 0 0 0 0 0 0 0 0 0 0 0 0 0 0 0 0 127 0" result="hardAlpha"/>
<feOffset dx="0.873563" dy="1.74713"/>
<feGaussianBlur stdDeviation="5.24138"/>
<feComposite in2="hardAlpha" operator="out"/>
<feColorMatrix type="matrix" values="0 0 0 0 0 0 0 0 0 0 0 0 0 0 0 0 0 0 0.15 0"/>
<feBlend mode="normal" in2="BackgroundImageFix" result="effect1_dropShadow_1185_5585"/>
<feBlend mode="normal" in="SourceGraphic" in2="effect1_dropShadow_1185_5585" result="shape"/>
</filter>
</defs>
</svg>
