<svg width="18" height="18" viewBox="0 0 18 18" fill="none" xmlns="http://www.w3.org/2000/svg">
<path d="M8.15625 14.625C7.97652 14.625 7.80154 14.5674 7.65703 14.4605C7.649 14.4549 7.64126 14.4489 7.63383 14.4426L4.42125 11.8125H1.96875C1.74497 11.8125 1.53036 11.7236 1.37213 11.5654C1.21389 11.4071 1.125 11.1925 1.125 10.9688V7.03126C1.125 6.80748 1.21389 6.59287 1.37213 6.43464C1.53036 6.2764 1.74497 6.18751 1.96875 6.18751H4.4209L7.63312 3.55747C7.64055 3.55111 7.6483 3.54512 7.65633 3.53954C7.78198 3.44712 7.9308 3.39134 8.08625 3.3784C8.24169 3.36546 8.39768 3.39586 8.53689 3.46623C8.6761 3.5366 8.79308 3.64418 8.87483 3.77702C8.95658 3.90987 8.99991 4.06277 9 4.21876V13.7813C9 14.005 8.91111 14.2197 8.75287 14.3779C8.59464 14.5361 8.38003 14.625 8.15625 14.625ZM11.25 11.8125C11.154 11.8125 11.0596 11.7879 10.9758 11.7411C10.892 11.6943 10.8216 11.6268 10.7712 11.5451C10.7209 11.4634 10.6923 11.3701 10.6881 11.2742C10.684 11.1783 10.7045 11.083 10.7476 10.9972C11.0812 10.3338 11.2504 9.6613 11.2504 9.00001C11.2504 8.31868 11.0865 7.66618 10.7494 7.0056C10.6848 6.87309 10.6748 6.72052 10.7215 6.58072C10.7683 6.44091 10.8681 6.32505 10.9994 6.25806C11.1307 6.19107 11.283 6.1783 11.4237 6.2225C11.5643 6.26671 11.682 6.36435 11.7513 6.49442C12.1707 7.31673 12.375 8.13657 12.375 9.00001C12.375 9.83884 12.1641 10.6808 11.7527 11.5028C11.7059 11.5959 11.6341 11.6742 11.5453 11.7289C11.4565 11.7836 11.3543 11.8126 11.25 11.8125Z" fill="white"/>
<path d="M12.9374 13.5C12.8386 13.5 12.7416 13.474 12.6561 13.4247C12.5706 13.3753 12.4995 13.3043 12.4501 13.2188C12.4008 13.1333 12.3748 13.0363 12.3748 12.9375C12.3748 12.8388 12.4007 12.7417 12.4501 12.6562C13.1149 11.4992 13.4999 10.5296 13.4999 8.99998C13.4999 7.44713 13.1156 6.4842 12.4515 5.34584C12.3787 5.21711 12.3595 5.06487 12.3981 4.92208C12.4367 4.7793 12.5299 4.65746 12.6577 4.58295C12.7855 4.50843 12.9375 4.48724 13.0807 4.52396C13.224 4.56067 13.3471 4.65234 13.4232 4.77912C14.165 6.05072 14.6249 7.20033 14.6249 8.99998C14.6249 10.7729 14.1657 11.9281 13.425 13.2187C13.3756 13.3043 13.3045 13.3754 13.2189 13.4247C13.1333 13.4741 13.0362 13.5001 12.9374 13.5Z" fill="white"/>
<path d="M14.6251 15.1874C14.5238 15.1873 14.4244 15.1599 14.3374 15.108C14.2504 15.0562 14.179 14.9817 14.1308 14.8927C14.0826 14.8036 14.0593 14.7031 14.0635 14.6019C14.0676 14.5007 14.099 14.4025 14.1543 14.3177C15.112 12.8485 15.7501 11.3821 15.7501 8.99993C15.7501 6.66204 15.1109 5.18126 14.1508 3.67763C14.1111 3.6153 14.084 3.54575 14.0711 3.47296C14.0582 3.40017 14.0598 3.32555 14.0758 3.25337C14.0917 3.18119 14.1218 3.11286 14.1641 3.05229C14.2065 2.99171 14.2604 2.94007 14.3227 2.90032C14.3851 2.86057 14.4546 2.83349 14.5274 2.82061C14.6002 2.80774 14.6748 2.80933 14.747 2.82529C14.8192 2.84126 14.8875 2.87128 14.9481 2.91365C15.0086 2.95602 15.0603 3.00991 15.1 3.07224C16.1653 4.74216 16.8751 6.38923 16.8751 8.99993C16.8751 11.2763 16.3597 12.9947 15.0962 14.9322C15.0451 15.0106 14.9752 15.0749 14.893 15.1195C14.8107 15.1641 14.7186 15.1874 14.6251 15.1874Z" fill="white"/>
</svg>
