<svg width="18" height="18" viewBox="0 0 18 18" fill="none" xmlns="http://www.w3.org/2000/svg">
<path fill-rule="evenodd" clip-rule="evenodd" d="M1.85225 2.41475C2.07192 2.19508 2.42808 2.19508 2.64775 2.41475L15.0227 14.7898C15.2424 15.0094 15.2424 15.3656 15.0227 15.5852C14.8031 15.8049 14.4469 15.8049 14.2273 15.5852L1.85225 3.21025C1.63258 2.99058 1.63258 2.63442 1.85225 2.41475Z" fill="white"/>
<path d="M8.55457 3.47545C8.41422 3.39974 8.25522 3.36555 8.09615 3.37688C7.93708 3.38821 7.78453 3.44459 7.65633 3.53943L7.63312 3.55736L6.63047 4.37826C6.60005 4.40314 6.57519 4.43413 6.55748 4.46921C6.53977 4.5043 6.52961 4.5427 6.52765 4.58196C6.5257 4.62121 6.53199 4.66043 6.54613 4.69711C6.56027 4.73378 6.58193 4.76708 6.60973 4.79486L8.51977 6.7049C8.5591 6.74428 8.60923 6.7711 8.66382 6.78197C8.71841 6.79284 8.77499 6.78727 8.82641 6.76596C8.87783 6.74466 8.92177 6.70858 8.95267 6.66228C8.98357 6.61599 9.00004 6.56157 9 6.50591V4.23869C9.00158 4.08311 8.961 3.93 8.88258 3.79562C8.80415 3.66124 8.69081 3.5506 8.55457 3.47545ZM8.83582 11.7874L3.39926 6.35228C3.29382 6.24678 3.1508 6.18747 3.00164 6.1874H1.96875C1.74497 6.1874 1.53036 6.27629 1.37213 6.43453C1.21389 6.59276 1.125 6.80737 1.125 7.03115V10.9686C1.125 11.1924 1.21389 11.407 1.37213 11.5653C1.53036 11.7235 1.74497 11.8124 1.96875 11.8124H4.42125L7.65562 14.46C7.78544 14.5564 7.9403 14.6132 8.10161 14.6237C8.26293 14.6343 8.42387 14.5981 8.56512 14.5194C8.69855 14.4434 8.80922 14.333 8.88568 14.1998C8.96214 14.0666 9.00161 13.9154 9 13.7618V12.1847C9.00002 12.0358 8.94098 11.8929 8.83582 11.7874ZM12.375 8.9999C12.375 8.13646 12.1707 7.31697 11.751 6.49431C11.7177 6.42801 11.6716 6.36894 11.6154 6.32051C11.5592 6.27209 11.494 6.23526 11.4235 6.21215C11.353 6.18904 11.2786 6.1801 11.2046 6.18586C11.1307 6.19161 11.0586 6.21194 10.9925 6.24567C10.9264 6.27941 10.8677 6.32588 10.8196 6.38242C10.7716 6.43895 10.7352 6.50443 10.7126 6.57509C10.6899 6.64574 10.6815 6.72018 10.6878 6.7941C10.694 6.86803 10.7148 6.93999 10.749 7.00584C11.0862 7.66607 11.25 8.31857 11.25 8.9999C11.25 9.09365 11.2464 9.18892 11.2391 9.28572C11.2361 9.32605 11.2418 9.36656 11.2559 9.40448C11.27 9.4424 11.2921 9.47684 11.3207 9.50544L11.8255 10.0103C11.862 10.0468 11.9078 10.0726 11.9579 10.0849C12.0081 10.0971 12.0607 10.0953 12.1099 10.0797C12.1591 10.064 12.203 10.0351 12.2369 9.99615C12.2707 9.95719 12.2932 9.90966 12.3019 9.85876C12.3503 9.57503 12.3747 9.28773 12.375 8.9999ZM14.625 8.9999C14.625 7.2006 14.1652 6.05064 13.4234 4.77904C13.3472 4.65226 13.2241 4.56059 13.0808 4.52388C12.9376 4.48716 12.7856 4.50835 12.6578 4.58287C12.5301 4.65738 12.4368 4.77922 12.3982 4.922C12.3596 5.06479 12.3788 5.21703 12.4516 5.34576C13.1157 6.48412 13.5 7.44705 13.5 8.9999C13.5 9.83767 13.3843 10.5074 13.1706 11.1321C13.1534 11.1819 13.1506 11.2355 13.1624 11.2869C13.1742 11.3382 13.2002 11.3852 13.2374 11.4225L13.6758 11.8616C13.7089 11.8948 13.7498 11.9192 13.7948 11.9325C13.8398 11.9458 13.8874 11.9477 13.9332 11.938C13.9791 11.9282 14.0218 11.9071 14.0575 11.8767C14.0931 11.8462 14.1206 11.8073 14.1374 11.7635C14.4492 10.9602 14.625 10.0989 14.625 8.9999Z" fill="white"/>
<path d="M16.875 8.99993C16.875 6.38958 16.1652 4.74216 15.0993 3.07224C15.019 2.94636 14.892 2.85754 14.7463 2.8253C14.6005 2.79306 14.4479 2.82004 14.322 2.90032C14.1961 2.9806 14.1073 3.1076 14.0751 3.25337C14.0428 3.39914 14.0698 3.55175 14.1501 3.67763C15.1109 5.18126 15.75 6.66204 15.75 8.99993C15.75 10.6238 15.4537 11.8219 14.9615 12.8858C14.9374 12.9379 14.9298 12.9962 14.9398 13.0527C14.9498 13.1093 14.9769 13.1614 15.0174 13.2022L15.4364 13.6212C15.4681 13.6534 15.5071 13.6775 15.5501 13.6915C15.593 13.7054 15.6387 13.7088 15.6833 13.7014C15.7279 13.6939 15.77 13.6758 15.8061 13.6487C15.8422 13.6215 15.8712 13.586 15.8907 13.5453C16.5797 12.1253 16.875 10.7226 16.875 8.99993Z" fill="white"/>
</svg>
