<svg width="116" height="131" viewBox="0 0 116 131" fill="none" xmlns="http://www.w3.org/2000/svg">
<path opacity="0.3" d="M58.8111 124.138C88.2088 124.138 112.04 100.2 112.04 70.6705C112.04 41.1413 88.2088 17.2031 58.8111 17.2031C29.4135 17.2031 5.58203 41.1413 5.58203 70.6705C5.58203 100.2 29.4135 124.138 58.8111 124.138Z" fill="#EF7D90"/>
<path d="M36.9531 2.65234L1.51172 45.8466L53.9648 108.028L88.9335 66.7322L36.9531 2.65234Z" fill="#EF7D90"/>
<path opacity="0.1" d="M36.9531 2.65234L1.51172 45.8466L53.9648 108.028L88.9335 66.7322L36.9531 2.65234Z" fill="black"/>
<path d="M2.92969 46.3205C3.71363 44.9031 4.68576 43.5993 5.81935 42.4449L38.371 9.29658C38.371 9.29658 49.7121 7.39793 52.0749 13.0939L10.4905 47.2698L2.92969 46.3205Z" fill="#F2F2F2"/>
<path d="M1.27734 45.607L49.4775 119.655C49.4775 119.655 54.2029 122.978 58.9285 121.079L108.31 87.6149L55.8569 7.87109L8.60188 44.895L1.27734 45.607Z" fill="#EF7D90"/>
<path d="M49.9645 19.4265L19.7188 41.2578L20.1656 41.8825L50.4113 20.0512L49.9645 19.4265Z" fill="#3F3D56"/>
<path d="M19.3146 49.4311L18.6758 49.8555L58.37 110.138L59.0088 109.714L19.3146 49.4311Z" fill="#3F3D56"/>
<path d="M95.3174 87.7767L63.1914 111.52L63.6454 112.139L95.7714 88.3965L95.3174 87.7767Z" fill="#3F3D56"/>
<path d="M55.6987 20.4708L55.0703 20.9102L96.1821 80.2432L96.8105 79.8039L55.6987 20.4708Z" fill="#3F3D56"/>
<path d="M42.9983 8.82604L5.60547 43.2977L5.92481 43.6472L43.3176 9.17555L42.9983 8.82604Z" fill="#3F3D56"/>
<path d="M46.1116 9.12232L7.03125 43.7773L7.34413 44.1333L46.4244 9.47831L46.1116 9.12232Z" fill="#3F3D56"/>
<path d="M48.5572 9.81382L7.98828 43.7812L8.29101 44.1461L48.8599 10.1786L48.5572 9.81382Z" fill="#3F3D56"/>
</svg>
