<svg width="72" height="72" viewBox="0 0 72 72" fill="none" xmlns="http://www.w3.org/2000/svg">
<g filter="url(#filter0_d_941_3395)">
<ellipse cx="36" cy="36.0001" rx="30" ry="30" fill="#0B2B3E"/>
<path d="M44.9929 29.0214C45.5491 28.4652 45.5491 27.5634 44.9929 27.0071C44.4366 26.4509 43.5348 26.4509 42.9786 27.0071L36 33.9857L29.0214 27.0071C28.4652 26.4509 27.5634 26.4509 27.0071 27.0071C26.4509 27.5634 26.4509 28.4652 27.0071 29.0214L33.9857 36L27.0071 42.9786C26.4509 43.5348 26.4509 44.4366 27.0071 44.9929C27.5634 45.5491 28.4652 45.5491 29.0214 44.9929L36 38.0143L42.9786 44.9929C43.5348 45.5491 44.4366 45.5491 44.9929 44.9929C45.5491 44.4366 45.5491 43.5348 44.9929 42.9786L38.0143 36L44.9929 29.0214Z" fill="#EF7D90"/>
</g>
<defs>
<filter id="filter0_d_941_3395" x="0" y="0" width="74" height="74" filterUnits="userSpaceOnUse" color-interpolation-filters="sRGB">
<feFlood flood-opacity="0" result="BackgroundImageFix"/>
<feColorMatrix in="SourceAlpha" type="matrix" values="0 0 0 0 0 0 0 0 0 0 0 0 0 0 0 0 0 0 127 0" result="hardAlpha"/>
<feOffset dx="2" dy="2"/>
<feColorMatrix type="matrix" values="0 0 0 0 0.937255 0 0 0 0 0.490196 0 0 0 0 0.564706 0 0 0 1 0"/>
<feBlend mode="normal" in2="BackgroundImageFix" result="effect1_dropShadow_941_3395"/>
<feBlend mode="normal" in="SourceGraphic" in2="effect1_dropShadow_941_3395" result="shape"/>
</filter>
</defs>
</svg>
