<svg width="251" height="36" viewBox="0 0 251 36" fill="none" xmlns="http://www.w3.org/2000/svg">
<rect x="0.5" y="0.5" width="250" height="35" rx="7.5" fill="#0B2B3E" fill-opacity="0.1" stroke="white"/>
<line opacity="0.2" x1="40.5" y1="18.2502" x2="241.5" y2="18.2502" stroke="white" stroke-linecap="round"/>
<g opacity="0.6">
<g clip-path="url(#clip0_1185_11943)">
<path d="M73.9363 26.997C73.7233 26.9568 73.5333 26.8517 73.4 26.7002C73.2667 26.5488 73.1986 26.3607 73.2078 26.1694V9.94253C73.1862 9.82643 73.1935 9.70759 73.2293 9.59423C73.2651 9.48088 73.3285 9.37573 73.4152 9.28607C73.5018 9.19641 73.6096 9.12438 73.731 9.07498C73.8524 9.02559 73.9847 9 74.1185 9C74.2523 9 74.3845 9.02559 74.5059 9.07498C74.6274 9.12438 74.7351 9.19641 74.8218 9.28607C74.9084 9.37573 74.9718 9.48088 75.0076 9.59423C75.0434 9.70759 75.0508 9.82643 75.0291 9.94253V26.1694C75.0322 26.2834 75.0079 26.3968 74.9578 26.502C74.9077 26.6073 74.8329 26.702 74.7383 26.7801C74.6437 26.8582 74.5314 26.9179 74.4088 26.9553C74.2861 26.9926 74.1559 27.0068 74.0267 26.997C73.9966 26.9982 73.9664 26.9982 73.9363 26.997ZM62.2797 25.0326C62.0667 24.9925 61.8767 24.8874 61.7434 24.7359C61.61 24.5845 61.542 24.3964 61.5512 24.2051V11.9068C61.5295 11.7907 61.5369 11.6719 61.5727 11.5585C61.6085 11.4452 61.6719 11.34 61.7585 11.2504C61.8452 11.1607 61.9529 11.0887 62.0744 11.0393C62.1958 10.9899 62.328 10.9643 62.4618 10.9643C62.5956 10.9643 62.7278 10.9899 62.8493 11.0393C62.9707 11.0887 63.0785 11.1607 63.1651 11.2504C63.2518 11.34 63.3152 11.4452 63.351 11.5585C63.3868 11.6719 63.3941 11.7907 63.3725 11.9068V24.2051C63.3756 24.3191 63.3513 24.4325 63.3011 24.5377C63.251 24.643 63.1762 24.7377 63.0816 24.8158C62.987 24.8939 62.8747 24.9536 62.7521 24.991C62.6295 25.0283 62.4993 25.0425 62.37 25.0326C62.3399 25.0339 62.3098 25.0339 62.2797 25.0326ZM71.0222 23.5808C70.8092 23.5406 70.6192 23.4355 70.4859 23.2841C70.3525 23.1326 70.2844 22.9446 70.2936 22.7532V13.3587C70.2715 13.2425 70.2785 13.1234 70.3141 13.0097C70.3496 12.8961 70.4129 12.7906 70.4995 12.7007C70.5862 12.6107 70.6941 12.5384 70.8157 12.4889C70.9373 12.4393 71.0698 12.4136 71.2038 12.4136C71.3379 12.4136 71.4703 12.4393 71.592 12.4889C71.7136 12.5384 71.8215 12.6107 71.9081 12.7007C71.9947 12.7906 72.058 12.8961 72.0936 13.0097C72.1291 13.1234 72.1361 13.2425 72.114 13.3587V22.7532C72.1171 22.8671 72.0928 22.9803 72.0428 23.0854C71.9928 23.1905 71.9182 23.2852 71.8238 23.3633C71.7294 23.4413 71.6174 23.5011 71.495 23.5385C71.3726 23.576 71.2426 23.5904 71.1135 23.5808C71.0827 23.5821 71.0519 23.5821 71.0212 23.5808H71.0222ZM59.3655 20.5062C59.1525 20.4661 58.9626 20.361 58.8292 20.2095C58.6959 20.058 58.6278 19.87 58.637 19.6786V16.4333C58.6149 16.317 58.6219 16.1979 58.6574 16.0843C58.693 15.9706 58.7563 15.8652 58.8429 15.7752C58.9295 15.6853 59.0374 15.613 59.159 15.5634C59.2807 15.5138 59.4131 15.4882 59.5472 15.4882C59.6812 15.4882 59.8137 15.5138 59.9353 15.5634C60.0569 15.613 60.1648 15.6853 60.2515 15.7752C60.3381 15.8652 60.4014 15.9706 60.4369 16.0843C60.4725 16.1979 60.4795 16.317 60.4574 16.4333V19.6786C60.4604 19.7925 60.4362 19.9057 60.3862 20.0109C60.3361 20.116 60.2615 20.2106 60.1671 20.2887C60.0727 20.3668 59.9607 20.4265 59.8383 20.464C59.716 20.5014 59.586 20.5158 59.4568 20.5062C59.4261 20.5076 59.3953 20.5076 59.3646 20.5062H59.3655ZM65.1939 21.8727C64.9809 21.8325 64.7909 21.7274 64.6575 21.576C64.5242 21.4245 64.4561 21.2365 64.4653 21.0451V15.0668C64.4432 14.9505 64.4502 14.8315 64.4857 14.7178C64.5213 14.6042 64.5846 14.4987 64.6712 14.4088C64.7579 14.3188 64.8657 14.2465 64.9874 14.1969C65.109 14.1474 65.2414 14.1217 65.3755 14.1217C65.5096 14.1217 65.642 14.1474 65.7636 14.1969C65.8853 14.2465 65.9931 14.3188 66.0798 14.4088C66.1664 14.4987 66.2297 14.6042 66.2653 14.7178C66.3008 14.8315 66.3078 14.9505 66.2857 15.0668V21.0451C66.2887 21.159 66.2645 21.2722 66.2145 21.3773C66.1645 21.4824 66.0898 21.5771 65.9955 21.6552C65.9011 21.7332 65.789 21.793 65.6667 21.8304C65.5443 21.8679 65.4143 21.8823 65.2852 21.8727C65.2544 21.874 65.2236 21.874 65.1929 21.8727H65.1939ZM76.8505 21.8727C76.6375 21.8325 76.4475 21.7274 76.3142 21.576C76.1808 21.4245 76.1127 21.2365 76.1219 21.0451V15.0668C76.1003 14.9507 76.1077 14.8319 76.1435 14.7185C76.1793 14.6051 76.2427 14.5 76.3293 14.4103C76.4159 14.3207 76.5237 14.2486 76.6452 14.1993C76.7666 14.1499 76.8988 14.1243 77.0326 14.1243C77.1664 14.1243 77.2986 14.1499 77.4201 14.1993C77.5415 14.2486 77.6493 14.3207 77.7359 14.4103C77.8226 14.5 77.886 14.6051 77.9218 14.7185C77.9576 14.8319 77.9649 14.9507 77.9433 15.0668V21.0451C77.9464 21.1592 77.9221 21.2725 77.8719 21.3778C77.8218 21.483 77.747 21.5778 77.6524 21.6559C77.5578 21.734 77.4455 21.7936 77.3229 21.831C77.2003 21.8684 77.0701 21.8826 76.9408 21.8727C76.9107 21.874 76.8806 21.874 76.8505 21.8727ZM56.4514 20.1646C56.2384 20.1244 56.0484 20.0193 55.9151 19.8679C55.7817 19.7164 55.7136 19.5284 55.7228 19.337V16.7749C55.7012 16.6588 55.7085 16.5399 55.7443 16.4266C55.7802 16.3132 55.8436 16.2081 55.9302 16.1184C56.0168 16.0288 56.1246 15.9567 56.246 15.9073C56.3675 15.8579 56.4997 15.8324 56.6335 15.8324C56.7673 15.8324 56.8995 15.8579 57.021 15.9073C57.1424 15.9567 57.2502 16.0288 57.3368 16.1184C57.4234 16.2081 57.4869 16.3132 57.5227 16.4266C57.5585 16.5399 57.5658 16.6588 57.5442 16.7749V19.337C57.5473 19.4511 57.523 19.5644 57.4728 19.6697C57.4227 19.7749 57.3479 19.8697 57.2533 19.9478C57.1587 20.0259 57.0464 20.0855 56.9238 20.1229C56.8012 20.1603 56.671 20.1745 56.5417 20.1646C56.5113 20.1659 56.4808 20.1659 56.4504 20.1646H56.4514ZM68.108 19.0543C67.895 19.0142 67.705 18.9091 67.5717 18.7576C67.4384 18.6062 67.3703 18.4181 67.3795 18.2268V17.8851C67.3574 17.7689 67.3643 17.6498 67.3999 17.5362C67.4355 17.4225 67.4988 17.317 67.5854 17.2271C67.672 17.1371 67.7799 17.0649 67.9015 17.0153C68.0231 16.9657 68.1556 16.94 68.2897 16.94C68.4237 16.94 68.5562 16.9657 68.6778 17.0153C68.7994 17.0649 68.9073 17.1371 68.9939 17.2271C69.0806 17.317 69.1439 17.4225 69.1794 17.5362C69.215 17.6498 69.222 17.7689 69.1998 17.8851V18.2268C69.2029 18.3407 69.1786 18.4539 69.1286 18.559C69.0786 18.6641 69.004 18.7588 68.9096 18.8368C68.8152 18.9149 68.7032 18.9746 68.5808 19.0121C68.4584 19.0496 68.3284 19.064 68.1993 19.0543C68.1686 19.0557 68.1378 19.0557 68.107 19.0543H68.108ZM79.7646 20.1646C79.5516 20.1244 79.3617 20.0193 79.2283 19.8679C79.095 19.7164 79.0269 19.5284 79.0361 19.337V16.7749C79.0145 16.6588 79.0218 16.5399 79.0576 16.4266C79.0934 16.3132 79.1568 16.2081 79.2435 16.1184C79.3301 16.0288 79.4379 15.9567 79.5593 15.9073C79.6808 15.8579 79.813 15.8324 79.9468 15.8324C80.0806 15.8324 80.2128 15.8579 80.3342 15.9073C80.4557 15.9567 80.5635 16.0288 80.6501 16.1184C80.7367 16.2081 80.8001 16.3132 80.8359 16.4266C80.8717 16.5399 80.8791 16.6588 80.8575 16.7749V19.337C80.8605 19.4511 80.8362 19.5644 80.7861 19.6697C80.736 19.7749 80.6612 19.8697 80.5666 19.9478C80.472 20.0259 80.3597 20.0855 80.2371 20.1229C80.1145 20.1603 79.9843 20.1745 79.855 20.1646C79.8249 20.1659 79.7947 20.1659 79.7646 20.1646Z" fill="white"/>
<path d="M97.1186 24.7673C96.9067 24.7372 96.7177 24.6586 96.585 24.5454C96.4523 24.4321 96.3846 24.2915 96.3937 24.1484V12.0142C96.3722 11.9274 96.3795 11.8385 96.4151 11.7537C96.4508 11.669 96.5139 11.5903 96.6001 11.5233C96.6863 11.4562 96.7935 11.4024 96.9143 11.3654C97.0352 11.3285 97.1667 11.3094 97.2999 11.3094C97.433 11.3094 97.5645 11.3285 97.6854 11.3654C97.8062 11.4024 97.9135 11.4562 97.9996 11.5233C98.0858 11.5903 98.1489 11.669 98.1846 11.7537C98.2202 11.8385 98.2275 11.9274 98.206 12.0142V24.1484C98.209 24.2337 98.1849 24.3185 98.135 24.3972C98.0851 24.4759 98.0107 24.5467 97.9165 24.6051C97.8224 24.6635 97.7107 24.7081 97.5887 24.7361C97.4667 24.764 97.3372 24.7746 97.2085 24.7673C97.1786 24.7682 97.1486 24.7682 97.1186 24.7673ZM85.5203 24.1286C85.3084 24.0986 85.1193 24.02 84.9867 23.9067C84.854 23.7935 84.7862 23.6529 84.7954 23.5098V12.6528C84.7739 12.566 84.7812 12.4771 84.8168 12.3924C84.8524 12.3076 84.9155 12.229 85.0017 12.1619C85.0879 12.0949 85.1951 12.041 85.316 12.0041C85.4368 11.9671 85.5684 11.948 85.7015 11.948C85.8346 11.948 85.9662 11.9671 86.087 12.0041C86.2079 12.041 86.3151 12.0949 86.4013 12.1619C86.4875 12.229 86.5506 12.3076 86.5862 12.3924C86.6219 12.4771 86.6292 12.566 86.6076 12.6528V23.5098C86.6107 23.5951 86.5865 23.6798 86.5366 23.7585C86.4868 23.8372 86.4123 23.9081 86.3182 23.9665C86.2241 24.0249 86.1124 24.0695 85.9904 24.0974C85.8684 24.1254 85.7388 24.136 85.6102 24.1286C85.5802 24.1296 85.5502 24.1296 85.5203 24.1286ZM94.219 22.2127C94.0071 22.1827 93.8181 22.1041 93.6854 21.9908C93.5528 21.8775 93.485 21.7369 93.4942 21.5938V14.5687C93.4722 14.4818 93.4791 14.3928 93.5145 14.3078C93.5499 14.2228 93.6128 14.1439 93.699 14.0767C93.7852 14.0094 93.8926 13.9554 94.0136 13.9183C94.1346 13.8812 94.2664 13.862 94.3998 13.862C94.5332 13.862 94.665 13.8812 94.786 13.9183C94.907 13.9554 95.0143 14.0094 95.1005 14.0767C95.1867 14.1439 95.2497 14.2228 95.2851 14.3078C95.3205 14.3928 95.3274 14.4818 95.3054 14.5687V21.5938C95.3085 21.679 95.2843 21.7637 95.2346 21.8423C95.1848 21.9209 95.1106 21.9916 95.0166 22.05C94.9227 22.1084 94.8113 22.1531 94.6895 22.1811C94.5677 22.2091 94.4384 22.2199 94.3099 22.2127C94.2793 22.2137 94.2487 22.2137 94.2181 22.2127H94.219ZM82.6207 21.574C82.4088 21.544 82.2197 21.4654 82.0871 21.3522C81.9544 21.2389 81.8866 21.0983 81.8958 20.9552V15.2074C81.8738 15.1205 81.8807 15.0314 81.9161 14.9464C81.9515 14.8614 82.0145 14.7826 82.1007 14.7153C82.1869 14.648 82.2942 14.594 82.4152 14.5569C82.5363 14.5199 82.668 14.5006 82.8014 14.5006C82.9348 14.5006 83.0666 14.5199 83.1876 14.5569C83.3087 14.594 83.416 14.648 83.5022 14.7153C83.5884 14.7826 83.6514 14.8614 83.6867 14.9464C83.7221 15.0314 83.7291 15.1205 83.7071 15.2074V20.9552C83.7101 21.0404 83.686 21.125 83.6362 21.2036C83.5865 21.2822 83.5122 21.353 83.4183 21.4114C83.3244 21.4698 83.2129 21.5144 83.0911 21.5424C82.9694 21.5705 82.84 21.5812 82.7116 21.574C82.681 21.575 82.6503 21.575 82.6197 21.574H82.6207ZM88.4199 20.9354C88.2079 20.9054 88.0189 20.8268 87.8862 20.7135C87.7536 20.6003 87.6858 20.4596 87.695 20.3165V15.846C87.673 15.7591 87.6799 15.67 87.7153 15.5851C87.7507 15.5001 87.8137 15.4212 87.8999 15.354C87.9861 15.2867 88.0934 15.2326 88.2144 15.1956C88.3354 15.1585 88.4672 15.1393 88.6006 15.1393C88.734 15.1393 88.8658 15.1585 88.9868 15.1956C89.1078 15.2326 89.2152 15.2867 89.3014 15.354C89.3876 15.4212 89.4505 15.5001 89.4859 15.5851C89.5213 15.67 89.5282 15.7591 89.5063 15.846V20.3165C89.5093 20.4017 89.4851 20.4864 89.4354 20.565C89.3856 20.6436 89.3114 20.7144 89.2175 20.7727C89.1236 20.8311 89.0121 20.8758 88.8903 20.9038C88.7685 20.9318 88.6392 20.9426 88.5107 20.9354C88.4801 20.9364 88.4495 20.9364 88.4189 20.9354H88.4199ZM100.018 20.9354C99.8063 20.9054 99.6173 20.8268 99.4846 20.7135C99.3519 20.6003 99.2842 20.4596 99.2933 20.3165V15.846C99.2718 15.7592 99.2791 15.6703 99.3147 15.5856C99.3504 15.5008 99.4135 15.4222 99.4997 15.3551C99.5859 15.2881 99.6931 15.2342 99.8139 15.1973C99.9348 15.1604 100.066 15.1412 100.199 15.1412C100.333 15.1412 100.464 15.1604 100.585 15.1973C100.706 15.2342 100.813 15.2881 100.899 15.3551C100.985 15.4222 101.049 15.5008 101.084 15.5856C101.12 15.6703 101.127 15.7592 101.106 15.846V20.3165C101.109 20.4018 101.084 20.4866 101.035 20.5653C100.985 20.644 100.91 20.7149 100.816 20.7733C100.722 20.8317 100.61 20.8763 100.488 20.9042C100.366 20.9322 100.237 20.9428 100.108 20.9354C100.078 20.9364 100.048 20.9364 100.018 20.9354ZM79.7211 19.6581C79.5092 19.6281 79.3201 19.5495 79.1875 19.4362C79.0548 19.323 78.9871 19.1823 78.9962 19.0393V17.1233C78.9747 17.0365 78.982 16.9476 79.0176 16.8629C79.0532 16.7781 79.1163 16.6995 79.2025 16.6324C79.2887 16.5654 79.396 16.5115 79.5168 16.4746C79.6376 16.4376 79.7692 16.4185 79.9023 16.4185C80.0355 16.4185 80.167 16.4376 80.2879 16.4746C80.4087 16.5115 80.5159 16.5654 80.6021 16.6324C80.6883 16.6995 80.7514 16.7781 80.7871 16.8629C80.8227 16.9476 80.83 17.0365 80.8085 17.1233V19.0393C80.8115 19.1245 80.7873 19.2093 80.7375 19.288C80.6876 19.3667 80.6132 19.4376 80.519 19.496C80.4249 19.5544 80.3132 19.599 80.1912 19.6269C80.0692 19.6549 79.9396 19.6655 79.811 19.6581C79.7807 19.6591 79.7504 19.6591 79.7201 19.6581H79.7211ZM91.3195 19.6581C91.1075 19.6281 90.9185 19.5495 90.7858 19.4362C90.6532 19.323 90.5854 19.1823 90.5946 19.0393V17.1233C90.5726 17.0364 90.5795 16.9473 90.6149 16.8624C90.6503 16.7774 90.7133 16.6985 90.7995 16.6312C90.8856 16.564 90.993 16.5099 91.114 16.4729C91.235 16.4358 91.3668 16.4166 91.5002 16.4166C91.6336 16.4166 91.7654 16.4358 91.8864 16.4729C92.0074 16.5099 92.1148 16.564 92.2009 16.6312C92.2871 16.6985 92.3501 16.7774 92.3855 16.8624C92.4209 16.9473 92.4278 17.0364 92.4058 17.1233V19.0393C92.4089 19.1244 92.3847 19.2091 92.335 19.2877C92.2852 19.3663 92.211 19.4371 92.1171 19.4955C92.0231 19.5538 91.9117 19.5985 91.7899 19.6265C91.6681 19.6545 91.5388 19.6653 91.4103 19.6581C91.3797 19.6591 91.3491 19.6591 91.3185 19.6581H91.3195ZM102.918 19.6581C102.706 19.6281 102.517 19.5495 102.384 19.4362C102.252 19.323 102.184 19.1823 102.193 19.0393V17.1233C102.171 17.0365 102.179 16.9476 102.214 16.8629C102.25 16.7781 102.313 16.6995 102.399 16.6324C102.485 16.5654 102.593 16.5115 102.714 16.4746C102.834 16.4376 102.966 16.4185 103.099 16.4185C103.232 16.4185 103.364 16.4376 103.485 16.4746C103.605 16.5115 103.713 16.5654 103.799 16.6324C103.885 16.6995 103.948 16.7781 103.984 16.8629C104.019 16.9476 104.027 17.0365 104.005 17.1233V19.0393C104.008 19.1245 103.984 19.2093 103.934 19.288C103.884 19.3667 103.81 19.4376 103.716 19.496C103.622 19.5544 103.51 19.599 103.388 19.6269C103.266 19.6549 103.136 19.6655 103.008 19.6581C102.978 19.6591 102.948 19.6591 102.918 19.6581Z" fill="white"/>
<path d="M120.513 26.997C120.301 26.9568 120.112 26.8517 119.98 26.7002C119.847 26.5488 119.779 26.3607 119.788 26.1694V9.94253C119.767 9.82643 119.774 9.70759 119.81 9.59423C119.845 9.48088 119.908 9.37573 119.995 9.28607C120.081 9.19641 120.188 9.12438 120.309 9.07499C120.43 9.02559 120.561 9 120.694 9C120.828 9 120.959 9.02559 121.08 9.07499C121.201 9.12438 121.308 9.19641 121.394 9.28607C121.48 9.37573 121.543 9.48088 121.579 9.59423C121.615 9.70759 121.622 9.82643 121.601 9.94253V26.1694C121.604 26.2834 121.579 26.3968 121.53 26.502C121.48 26.6073 121.405 26.702 121.311 26.7801C121.217 26.8582 121.105 26.9179 120.983 26.9553C120.861 26.9926 120.732 27.0068 120.603 26.997C120.573 26.9982 120.543 26.9982 120.513 26.997ZM108.915 26.1429C108.703 26.1028 108.514 25.9977 108.381 25.8462C108.249 25.6947 108.181 25.5067 108.19 25.3153V10.7966C108.168 10.6805 108.176 10.5616 108.211 10.4483C108.247 10.3349 108.31 10.2298 108.396 10.1401C108.482 10.0504 108.59 9.97843 108.711 9.92903C108.831 9.87963 108.963 9.85405 109.096 9.85405C109.229 9.85405 109.361 9.87963 109.482 9.92903C109.602 9.97843 109.71 10.0504 109.796 10.1401C109.882 10.2298 109.945 10.3349 109.981 10.4483C110.016 10.5616 110.024 10.6805 110.002 10.7966V25.3153C110.005 25.4294 109.981 25.5427 109.931 25.648C109.881 25.7532 109.807 25.848 109.713 25.9261C109.619 26.0042 109.507 26.0639 109.385 26.1012C109.263 26.1386 109.133 26.1528 109.005 26.1429C108.975 26.1442 108.945 26.1442 108.915 26.1429ZM117.614 23.5808C117.402 23.5406 117.213 23.4355 117.08 23.2841C116.947 23.1326 116.88 22.9446 116.889 22.7532V13.3587C116.867 13.2425 116.874 13.1234 116.909 13.0097C116.944 12.8961 117.007 12.7906 117.094 12.7007C117.18 12.6107 117.287 12.5384 117.408 12.4889C117.529 12.4393 117.661 12.4136 117.794 12.4136C117.928 12.4136 118.059 12.4393 118.181 12.4889C118.302 12.5384 118.409 12.6107 118.495 12.7007C118.581 12.7906 118.644 12.8961 118.68 13.0097C118.715 13.1234 118.722 13.2425 118.7 13.3587V22.7532C118.703 22.8671 118.679 22.9803 118.629 23.0854C118.579 23.1905 118.505 23.2852 118.411 23.3633C118.317 23.4413 118.206 23.5011 118.084 23.5385C117.962 23.576 117.833 23.5904 117.704 23.5808C117.674 23.5821 117.643 23.5821 117.613 23.5808H117.614ZM106.015 22.7267C105.803 22.6866 105.614 22.5815 105.482 22.43C105.349 22.2786 105.281 22.0905 105.29 21.8992V14.2128C105.268 14.0965 105.275 13.9774 105.311 13.8638C105.346 13.7501 105.409 13.6447 105.495 13.5547C105.581 13.4648 105.689 13.3925 105.81 13.3429C105.931 13.2933 106.063 13.2676 106.196 13.2676C106.329 13.2676 106.461 13.2933 106.582 13.3429C106.703 13.3925 106.811 13.4648 106.897 13.5547C106.983 13.6447 107.046 13.7501 107.081 13.8638C107.117 13.9774 107.124 14.0965 107.102 14.2128V21.8992C107.105 22.0131 107.081 22.1263 107.031 22.2314C106.981 22.3365 106.907 22.4312 106.813 22.5092C106.719 22.5873 106.607 22.647 106.486 22.6845C106.364 22.722 106.235 22.7364 106.106 22.7267C106.075 22.7281 106.045 22.7281 106.014 22.7267H106.015ZM111.814 21.8727C111.602 21.8325 111.413 21.7274 111.281 21.576C111.148 21.4245 111.08 21.2365 111.09 21.0451V15.0668C111.068 14.9505 111.074 14.8315 111.11 14.7178C111.145 14.6042 111.208 14.4987 111.294 14.4088C111.381 14.3188 111.488 14.2465 111.609 14.1969C111.73 14.1474 111.862 14.1217 111.995 14.1217C112.129 14.1217 112.26 14.1474 112.381 14.1969C112.502 14.2465 112.61 14.3188 112.696 14.4088C112.782 14.4987 112.845 14.6042 112.88 14.7178C112.916 14.8315 112.923 14.9505 112.901 15.0668V21.0451C112.904 21.159 112.88 21.2722 112.83 21.3773C112.78 21.4824 112.706 21.5771 112.612 21.6552C112.518 21.7332 112.407 21.793 112.285 21.8304C112.163 21.8679 112.034 21.8823 111.905 21.8727C111.875 21.874 111.844 21.874 111.813 21.8727H111.814ZM123.413 21.8727C123.201 21.8325 123.012 21.7274 122.879 21.576C122.746 21.4245 122.679 21.2365 122.688 21.0451V15.0668C122.666 14.9507 122.674 14.8319 122.709 14.7185C122.745 14.6051 122.808 14.5 122.894 14.4103C122.98 14.3207 123.088 14.2486 123.208 14.1993C123.329 14.1499 123.461 14.1243 123.594 14.1243C123.727 14.1243 123.859 14.1499 123.98 14.1993C124.1 14.2486 124.208 14.3207 124.294 14.4103C124.38 14.5 124.443 14.6051 124.479 14.7185C124.514 14.8319 124.522 14.9507 124.5 15.0668V21.0451C124.503 21.1592 124.479 21.2725 124.429 21.3778C124.379 21.483 124.305 21.5778 124.211 21.6559C124.117 21.734 124.005 21.7936 123.883 21.831C123.761 21.8684 123.631 21.8826 123.503 21.8727C123.473 21.874 123.443 21.874 123.413 21.8727ZM103.116 20.1646C102.904 20.1244 102.715 20.0193 102.582 19.8679C102.449 19.7164 102.382 19.5284 102.391 19.337V16.7749C102.369 16.6588 102.377 16.5399 102.412 16.4266C102.448 16.3132 102.511 16.2081 102.597 16.1184C102.683 16.0288 102.791 15.9567 102.911 15.9073C103.032 15.8579 103.164 15.8324 103.297 15.8324C103.43 15.8324 103.562 15.8579 103.682 15.9073C103.803 15.9567 103.91 16.0288 103.997 16.1184C104.083 16.2081 104.146 16.3132 104.182 16.4266C104.217 16.5399 104.225 16.6588 104.203 16.7749V19.337C104.206 19.4511 104.182 19.5644 104.132 19.6697C104.082 19.7749 104.008 19.8697 103.914 19.9478C103.819 20.0259 103.708 20.0855 103.586 20.1229C103.464 20.1603 103.334 20.1745 103.206 20.1646C103.175 20.1659 103.145 20.1659 103.115 20.1646H103.116ZM114.714 20.1646C114.502 20.1244 114.313 20.0193 114.18 19.8679C114.048 19.7164 113.98 19.5284 113.989 19.337V16.7749C113.967 16.6586 113.974 16.5395 114.009 16.4259C114.045 16.3123 114.108 16.2068 114.194 16.1168C114.28 16.0269 114.388 15.9546 114.509 15.905C114.63 15.8555 114.761 15.8298 114.895 15.8298C115.028 15.8298 115.16 15.8555 115.281 15.905C115.402 15.9546 115.509 16.0269 115.595 16.1168C115.682 16.2068 115.745 16.3123 115.78 16.4259C115.815 16.5395 115.822 16.6586 115.8 16.7749V19.337C115.803 19.4509 115.779 19.5641 115.73 19.6692C115.68 19.7743 115.606 19.869 115.512 19.9471C115.418 20.0252 115.306 20.0849 115.184 20.1224C115.063 20.1598 114.933 20.1742 114.805 20.1646C114.774 20.1659 114.744 20.1659 114.713 20.1646H114.714ZM126.312 20.1646C126.1 20.1244 125.911 20.0193 125.779 19.8679C125.646 19.7164 125.578 19.5284 125.587 19.337V16.7749C125.566 16.6588 125.573 16.5399 125.609 16.4266C125.644 16.3132 125.708 16.2081 125.794 16.1184C125.88 16.0288 125.987 15.9567 126.108 15.9073C126.229 15.8579 126.36 15.8324 126.494 15.8324C126.627 15.8324 126.758 15.8579 126.879 15.9073C127 15.9567 127.107 16.0288 127.193 16.1184C127.28 16.2081 127.343 16.3132 127.378 16.4266C127.414 16.5399 127.421 16.6588 127.4 16.7749V19.337C127.403 19.4511 127.379 19.5644 127.329 19.6697C127.279 19.7749 127.204 19.8697 127.11 19.9478C127.016 20.0259 126.904 20.0855 126.782 20.1229C126.66 20.1603 126.531 20.1745 126.402 20.1646C126.372 20.1659 126.342 20.1659 126.312 20.1646Z" fill="white"/>
<path d="M143.787 23.3345C143.575 23.3107 143.386 23.2484 143.253 23.1586C143.121 23.0688 143.053 22.9573 143.062 22.8438V13.2226C143.041 13.1537 143.048 13.0833 143.084 13.0161C143.119 12.9489 143.182 12.8865 143.268 12.8333C143.355 12.7802 143.462 12.7375 143.583 12.7082C143.704 12.6789 143.835 12.6637 143.968 12.6637C144.101 12.6637 144.233 12.6789 144.354 12.7082C144.475 12.7375 144.582 12.7802 144.668 12.8333C144.754 12.8865 144.817 12.9489 144.853 13.0161C144.889 13.0833 144.896 13.1537 144.874 13.2226V22.8438C144.877 22.9114 144.853 22.9786 144.803 23.041C144.754 23.1034 144.679 23.1596 144.585 23.2059C144.491 23.2522 144.379 23.2876 144.257 23.3098C144.135 23.3319 144.006 23.3403 143.877 23.3345C143.847 23.3353 143.817 23.3353 143.787 23.3345ZM132.189 22.8281C131.977 22.8043 131.788 22.742 131.655 22.6522C131.522 22.5624 131.455 22.4509 131.464 22.3374V13.729C131.442 13.6601 131.45 13.5897 131.485 13.5224C131.521 13.4552 131.584 13.3929 131.67 13.3397C131.756 13.2866 131.864 13.2439 131.984 13.2146C132.105 13.1853 132.237 13.1701 132.37 13.1701C132.503 13.1701 132.635 13.1853 132.755 13.2146C132.876 13.2439 132.983 13.2866 133.07 13.3397C133.156 13.3929 133.219 13.4552 133.255 13.5224C133.29 13.5897 133.298 13.6601 133.276 13.729V22.3374C133.279 22.4051 133.255 22.4723 133.205 22.5347C133.155 22.5971 133.081 22.6532 132.987 22.6996C132.892 22.7459 132.781 22.7812 132.659 22.8034C132.537 22.8255 132.407 22.834 132.279 22.8281C132.249 22.8289 132.219 22.8289 132.189 22.8281ZM140.887 21.309C140.676 21.2852 140.486 21.2228 140.354 21.133C140.221 21.0432 140.153 20.9317 140.163 20.8183V15.2481C140.141 15.1792 140.147 15.1086 140.183 15.0412C140.218 14.9738 140.281 14.9113 140.367 14.8579C140.454 14.8046 140.561 14.7617 140.682 14.7323C140.803 14.703 140.935 14.6877 141.068 14.6877C141.202 14.6877 141.333 14.703 141.454 14.7323C141.575 14.7617 141.683 14.8046 141.769 14.8579C141.855 14.9113 141.918 14.9738 141.953 15.0412C141.989 15.1086 141.996 15.1792 141.974 15.2481V20.8183C141.977 20.8858 141.953 20.9529 141.903 21.0153C141.853 21.0776 141.779 21.1337 141.685 21.18C141.591 21.2263 141.48 21.2617 141.358 21.2839C141.236 21.3061 141.107 21.3147 140.978 21.309C140.948 21.3098 140.917 21.3098 140.886 21.309H140.887ZM129.289 20.8026C129.077 20.7788 128.888 20.7165 128.755 20.6267C128.623 20.5369 128.555 20.4254 128.564 20.3119V15.7545C128.542 15.6856 128.549 15.6149 128.585 15.5476C128.62 15.4802 128.683 15.4176 128.769 15.3643C128.855 15.311 128.963 15.2681 129.084 15.2387C129.205 15.2093 129.336 15.1941 129.47 15.1941C129.603 15.1941 129.735 15.2093 129.856 15.2387C129.977 15.2681 130.084 15.311 130.171 15.3643C130.257 15.4176 130.32 15.4802 130.355 15.5476C130.391 15.6149 130.397 15.6856 130.375 15.7545V20.3119C130.379 20.3794 130.354 20.4466 130.305 20.5089C130.255 20.5712 130.181 20.6273 130.087 20.6736C129.993 20.7199 129.881 20.7553 129.76 20.7775C129.638 20.7998 129.508 20.8083 129.38 20.8026C129.349 20.8034 129.319 20.8034 129.288 20.8026H129.289ZM135.088 20.2962C134.876 20.2724 134.687 20.2101 134.555 20.1203C134.422 20.0305 134.354 19.919 134.363 19.8055V16.2609C134.341 16.1919 134.348 16.1213 134.384 16.0539C134.419 15.9866 134.482 15.924 134.568 15.8707C134.654 15.8174 134.762 15.7745 134.883 15.7451C135.004 15.7157 135.136 15.7005 135.269 15.7005C135.402 15.7005 135.534 15.7157 135.655 15.7451C135.776 15.7745 135.884 15.8174 135.97 15.8707C136.056 15.924 136.119 15.9866 136.154 16.0539C136.19 16.1213 136.197 16.1919 136.175 16.2609V19.8055C136.178 19.8731 136.154 19.9402 136.104 20.0025C136.054 20.0648 135.98 20.121 135.886 20.1672C135.792 20.2135 135.68 20.2489 135.559 20.2712C135.437 20.2934 135.308 20.3019 135.179 20.2962C135.149 20.297 135.118 20.297 135.087 20.2962H135.088ZM146.687 20.2962C146.475 20.2724 146.286 20.2101 146.153 20.1203C146.02 20.0305 145.953 19.919 145.962 19.8055V16.2609C145.94 16.192 145.947 16.1216 145.983 16.0543C146.019 15.9871 146.082 15.9248 146.168 15.8716C146.254 15.8185 146.361 15.7758 146.482 15.7465C146.603 15.7172 146.735 15.702 146.868 15.702C147.001 15.702 147.133 15.7172 147.253 15.7465C147.374 15.7758 147.481 15.8185 147.568 15.8716C147.654 15.9248 147.717 15.9871 147.753 16.0543C147.788 16.1216 147.795 16.192 147.774 16.2609V19.8055C147.777 19.8732 147.753 19.9404 147.703 20.0028C147.653 20.0652 147.579 20.1213 147.485 20.1676C147.39 20.214 147.279 20.2493 147.157 20.2715C147.035 20.2936 146.905 20.3021 146.777 20.2962C146.747 20.297 146.717 20.297 146.687 20.2962ZM126.39 19.2834C126.178 19.2596 125.989 19.1973 125.856 19.1075C125.723 19.0177 125.655 18.9062 125.665 18.7928V17.2736C125.643 17.2048 125.65 17.1343 125.686 17.0671C125.722 16.9999 125.785 16.9376 125.871 16.8844C125.957 16.8312 126.064 16.7885 126.185 16.7592C126.306 16.7299 126.438 16.7148 126.571 16.7148C126.704 16.7148 126.835 16.7299 126.956 16.7592C127.077 16.7885 127.184 16.8312 127.271 16.8844C127.357 16.9376 127.42 16.9999 127.455 17.0671C127.491 17.1343 127.498 17.2048 127.477 17.2736V18.7928C127.48 18.8604 127.456 18.9276 127.406 18.99C127.356 19.0524 127.282 19.1086 127.187 19.1549C127.093 19.2012 126.982 19.2366 126.86 19.2587C126.738 19.2809 126.608 19.2893 126.479 19.2834C126.449 19.2842 126.419 19.2842 126.389 19.2834H126.39ZM137.988 19.2834C137.776 19.2596 137.587 19.1973 137.454 19.1075C137.322 19.0177 137.254 18.9062 137.263 18.7928V17.2736C137.241 17.2047 137.248 17.1341 137.283 17.0667C137.319 16.9993 137.382 16.9368 137.468 16.8835C137.554 16.8301 137.661 16.7873 137.782 16.7579C137.903 16.7285 138.035 16.7132 138.169 16.7132C138.302 16.7132 138.434 16.7285 138.555 16.7579C138.676 16.7873 138.783 16.8301 138.869 16.8835C138.956 16.9368 139.019 16.9993 139.054 17.0667C139.089 17.1341 139.096 17.2047 139.074 17.2736V18.7928C139.077 18.8603 139.053 18.9274 139.003 18.9897C138.954 19.0521 138.879 19.1082 138.785 19.1545C138.692 19.2008 138.58 19.2362 138.458 19.2584C138.337 19.2806 138.207 19.2892 138.079 19.2834C138.048 19.2842 138.017 19.2842 137.987 19.2834H137.988ZM149.586 19.2834C149.374 19.2596 149.185 19.1973 149.053 19.1075C148.92 19.0177 148.852 18.9062 148.861 18.7928V17.2736C148.84 17.2048 148.847 17.1343 148.883 17.0671C148.918 16.9999 148.981 16.9376 149.068 16.8844C149.154 16.8312 149.261 16.7885 149.382 16.7592C149.503 16.7299 149.634 16.7148 149.767 16.7148C149.901 16.7148 150.032 16.7299 150.153 16.7592C150.274 16.7885 150.381 16.8312 150.467 16.8844C150.553 16.9376 150.617 16.9999 150.652 17.0671C150.688 17.1343 150.695 17.2048 150.674 17.2736V18.7928C150.677 18.8604 150.652 18.9276 150.603 18.99C150.553 19.0524 150.478 19.1086 150.384 19.1549C150.29 19.2012 150.178 19.2366 150.056 19.2587C149.934 19.2809 149.805 19.2893 149.676 19.2834C149.646 19.2842 149.616 19.2842 149.586 19.2834Z" fill="white"/>
<path d="M167.06 26.997C166.848 26.9568 166.659 26.8517 166.526 26.7002C166.394 26.5488 166.326 26.3607 166.335 26.1694V9.94253C166.314 9.82643 166.321 9.70759 166.357 9.59423C166.392 9.48088 166.455 9.37573 166.541 9.28607C166.628 9.19641 166.735 9.12438 166.856 9.07499C166.977 9.02559 167.108 9 167.241 9C167.374 9 167.506 9.02559 167.627 9.07499C167.748 9.12438 167.855 9.19641 167.941 9.28607C168.027 9.37573 168.09 9.48088 168.126 9.59423C168.162 9.70759 168.169 9.82643 168.147 9.94253V26.1694C168.15 26.2834 168.126 26.3968 168.076 26.502C168.027 26.6073 167.952 26.702 167.858 26.7801C167.764 26.8582 167.652 26.9179 167.53 26.9553C167.408 26.9926 167.279 27.0068 167.15 26.997C167.12 26.9982 167.09 26.9982 167.06 26.997ZM155.462 26.1429C155.25 26.1028 155.061 25.9977 154.928 25.8462C154.795 25.6947 154.728 25.5067 154.737 25.3153V10.7966C154.715 10.6805 154.723 10.5616 154.758 10.4483C154.794 10.3349 154.857 10.2298 154.943 10.1401C155.029 10.0504 155.137 9.97843 155.257 9.92903C155.378 9.87963 155.51 9.85405 155.643 9.85405C155.776 9.85405 155.908 9.87963 156.028 9.92903C156.149 9.97843 156.257 10.0504 156.343 10.1401C156.429 10.2298 156.492 10.3349 156.528 10.4483C156.563 10.5616 156.571 10.6805 156.549 10.7966V25.3153C156.552 25.4294 156.528 25.5427 156.478 25.648C156.428 25.7532 156.354 25.848 156.26 25.9261C156.165 26.0042 156.054 26.0639 155.932 26.1012C155.81 26.1386 155.68 26.1528 155.552 26.1429C155.522 26.1442 155.492 26.1442 155.462 26.1429ZM164.16 23.5808C163.949 23.5406 163.76 23.4355 163.627 23.2841C163.494 23.1326 163.426 22.9446 163.436 22.7532V13.3587C163.414 13.2425 163.421 13.1234 163.456 13.0097C163.491 12.8961 163.554 12.7906 163.64 12.7007C163.727 12.6107 163.834 12.5384 163.955 12.4889C164.076 12.4393 164.208 12.4136 164.341 12.4136C164.475 12.4136 164.606 12.4393 164.727 12.4889C164.848 12.5384 164.956 12.6107 165.042 12.7007C165.128 12.7906 165.191 12.8961 165.227 13.0097C165.262 13.1234 165.269 13.2425 165.247 13.3587V22.7532C165.25 22.8671 165.226 22.9803 165.176 23.0854C165.126 23.1905 165.052 23.2852 164.958 23.3633C164.864 23.4413 164.753 23.5011 164.631 23.5385C164.509 23.576 164.38 23.5904 164.251 23.5808C164.221 23.5821 164.19 23.5821 164.159 23.5808H164.16ZM152.562 22.7267C152.35 22.6866 152.161 22.5815 152.028 22.43C151.896 22.2786 151.828 22.0905 151.837 21.8992V14.2128C151.815 14.0965 151.822 13.9774 151.858 13.8638C151.893 13.7501 151.956 13.6447 152.042 13.5547C152.128 13.4648 152.236 13.3925 152.357 13.3429C152.478 13.2933 152.609 13.2676 152.743 13.2676C152.876 13.2676 153.008 13.2933 153.129 13.3429C153.25 13.3925 153.357 13.4648 153.444 13.5547C153.53 13.6447 153.593 13.7501 153.628 13.8638C153.664 13.9774 153.67 14.0965 153.648 14.2128V21.8992C153.652 22.0131 153.627 22.1263 153.578 22.2314C153.528 22.3365 153.454 22.4312 153.36 22.5092C153.266 22.5873 153.154 22.647 153.033 22.6845C152.911 22.722 152.781 22.7364 152.653 22.7267C152.622 22.7281 152.592 22.7281 152.561 22.7267H152.562ZM158.361 21.8727C158.149 21.8325 157.96 21.7274 157.828 21.576C157.695 21.4245 157.627 21.2365 157.636 21.0451V15.0668C157.614 14.9505 157.621 14.8315 157.657 14.7178C157.692 14.6042 157.755 14.4987 157.841 14.4088C157.927 14.3188 158.035 14.2465 158.156 14.1969C158.277 14.1474 158.409 14.1217 158.542 14.1217C158.675 14.1217 158.807 14.1474 158.928 14.1969C159.049 14.2465 159.157 14.3188 159.243 14.4088C159.329 14.4987 159.392 14.6042 159.427 14.7178C159.463 14.8315 159.47 14.9505 159.448 15.0668V21.0451C159.451 21.159 159.427 21.2722 159.377 21.3773C159.327 21.4824 159.253 21.5771 159.159 21.6552C159.065 21.7332 158.953 21.793 158.832 21.8304C158.71 21.8679 158.581 21.8823 158.452 21.8727C158.422 21.874 158.391 21.874 158.36 21.8727H158.361ZM169.96 21.8727C169.748 21.8325 169.559 21.7274 169.426 21.576C169.293 21.4245 169.226 21.2365 169.235 21.0451V15.0668C169.213 14.9507 169.221 14.8319 169.256 14.7185C169.292 14.6051 169.355 14.5 169.441 14.4103C169.527 14.3207 169.635 14.2486 169.755 14.1993C169.876 14.1499 170.008 14.1243 170.141 14.1243C170.274 14.1243 170.406 14.1499 170.526 14.1993C170.647 14.2486 170.754 14.3207 170.841 14.4103C170.927 14.5 170.99 14.6051 171.026 14.7185C171.061 14.8319 171.069 14.9507 171.047 15.0668V21.0451C171.05 21.1592 171.026 21.2725 170.976 21.3778C170.926 21.483 170.852 21.5778 170.758 21.6559C170.663 21.734 170.552 21.7936 170.43 21.831C170.308 21.8684 170.178 21.8826 170.05 21.8727C170.02 21.874 169.99 21.874 169.96 21.8727ZM149.663 20.1646C149.451 20.1244 149.262 20.0193 149.129 19.8679C148.996 19.7164 148.928 19.5284 148.938 19.337V16.7749C148.916 16.6588 148.923 16.5399 148.959 16.4266C148.995 16.3132 149.058 16.2081 149.144 16.1184C149.23 16.0288 149.337 15.9567 149.458 15.9073C149.579 15.8579 149.711 15.8324 149.844 15.8324C149.977 15.8324 150.108 15.8579 150.229 15.9073C150.35 15.9567 150.457 16.0288 150.544 16.1184C150.63 16.2081 150.693 16.3132 150.728 16.4266C150.764 16.5399 150.771 16.6588 150.75 16.7749V19.337C150.753 19.4511 150.729 19.5644 150.679 19.6697C150.629 19.7749 150.555 19.8697 150.46 19.9478C150.366 20.0259 150.255 20.0855 150.133 20.1229C150.011 20.1603 149.881 20.1745 149.752 20.1646C149.722 20.1659 149.692 20.1659 149.662 20.1646H149.663ZM161.261 20.1646C161.049 20.1244 160.86 20.0193 160.727 19.8679C160.595 19.7164 160.527 19.5284 160.536 19.337V16.7749C160.514 16.6586 160.521 16.5395 160.556 16.4259C160.592 16.3123 160.655 16.2068 160.741 16.1168C160.827 16.0269 160.934 15.9546 161.055 15.905C161.176 15.8555 161.308 15.8298 161.442 15.8298C161.575 15.8298 161.707 15.8555 161.828 15.905C161.949 15.9546 162.056 16.0269 162.142 16.1168C162.229 16.2068 162.292 16.3123 162.327 16.4259C162.362 16.5395 162.369 16.6586 162.347 16.7749V19.337C162.35 19.4509 162.326 19.5641 162.276 19.6692C162.227 19.7743 162.152 19.869 162.058 19.9471C161.965 20.0252 161.853 20.0849 161.731 20.1224C161.61 20.1598 161.48 20.1742 161.352 20.1646C161.321 20.1659 161.29 20.1659 161.26 20.1646H161.261ZM172.859 20.1646C172.647 20.1244 172.458 20.0193 172.326 19.8679C172.193 19.7164 172.125 19.5284 172.134 19.337V16.7749C172.113 16.6588 172.12 16.5399 172.156 16.4266C172.191 16.3132 172.254 16.2081 172.341 16.1184C172.427 16.0288 172.534 15.9567 172.655 15.9073C172.776 15.8579 172.907 15.8324 173.04 15.8324C173.174 15.8324 173.305 15.8579 173.426 15.9073C173.547 15.9567 173.654 16.0288 173.74 16.1184C173.826 16.2081 173.89 16.3132 173.925 16.4266C173.961 16.5399 173.968 16.6588 173.947 16.7749V19.337C173.95 19.4511 173.925 19.5644 173.876 19.6697C173.826 19.7749 173.751 19.8697 173.657 19.9478C173.563 20.0259 173.451 20.0855 173.329 20.1229C173.207 20.1603 173.078 20.1745 172.949 20.1646C172.919 20.1659 172.889 20.1659 172.859 20.1646Z" fill="white"/>
</g>
<g clip-path="url(#clip1_1185_11943)">
<path d="M187.467 26.997C187.254 26.9568 187.064 26.8517 186.931 26.7002C186.797 26.5488 186.729 26.3607 186.738 26.1694V9.94253C186.717 9.82643 186.724 9.70759 186.76 9.59423C186.796 9.48088 186.859 9.37573 186.946 9.28607C187.032 9.19641 187.14 9.12438 187.262 9.07498C187.383 9.02559 187.515 9 187.649 9C187.783 9 187.915 9.02559 188.036 9.07498C188.158 9.12438 188.266 9.19641 188.352 9.28607C188.439 9.37573 188.502 9.48088 188.538 9.59423C188.574 9.70759 188.581 9.82643 188.56 9.94253V26.1694C188.563 26.2834 188.538 26.3968 188.488 26.502C188.438 26.6073 188.363 26.702 188.269 26.7801C188.174 26.8582 188.062 26.9179 187.939 26.9553C187.817 26.9926 187.687 27.0068 187.557 26.997C187.527 26.9982 187.497 26.9982 187.467 26.997ZM175.81 25.0326C175.597 24.9925 175.407 24.8874 175.274 24.7359C175.141 24.5845 175.073 24.3964 175.082 24.2051V11.9068C175.06 11.7907 175.067 11.6719 175.103 11.5585C175.139 11.4452 175.202 11.34 175.289 11.2504C175.376 11.1607 175.484 11.0887 175.605 11.0393C175.726 10.9899 175.859 10.9643 175.992 10.9643C176.126 10.9643 176.258 10.9899 176.38 11.0393C176.501 11.0887 176.609 11.1607 176.696 11.2504C176.782 11.34 176.846 11.4452 176.882 11.5585C176.917 11.6719 176.925 11.7907 176.903 11.9068V24.2051C176.906 24.3191 176.882 24.4325 176.832 24.5377C176.782 24.643 176.707 24.7377 176.612 24.8158C176.518 24.8939 176.405 24.9536 176.283 24.991C176.16 25.0283 176.03 25.0425 175.901 25.0326C175.871 25.0339 175.84 25.0339 175.81 25.0326ZM184.553 23.5808C184.34 23.5406 184.15 23.4355 184.016 23.2841C183.883 23.1326 183.815 22.9446 183.824 22.7532V13.3587C183.802 13.2425 183.809 13.1234 183.845 13.0097C183.88 12.8961 183.943 12.7906 184.03 12.7007C184.117 12.6107 184.225 12.5384 184.346 12.4889C184.468 12.4393 184.6 12.4136 184.734 12.4136C184.868 12.4136 185.001 12.4393 185.123 12.4889C185.244 12.5384 185.352 12.6107 185.439 12.7007C185.525 12.7906 185.589 12.8961 185.624 13.0097C185.66 13.1234 185.667 13.2425 185.645 13.3587V22.7532C185.648 22.8671 185.623 22.9803 185.573 23.0854C185.523 23.1905 185.449 23.2852 185.354 23.3633C185.26 23.4413 185.148 23.5011 185.026 23.5385C184.903 23.576 184.773 23.5904 184.644 23.5808C184.613 23.5821 184.583 23.5821 184.552 23.5808H184.553ZM172.896 20.5062C172.683 20.4661 172.493 20.361 172.36 20.2095C172.226 20.058 172.158 19.87 172.168 19.6786V16.4333C172.145 16.317 172.152 16.1979 172.188 16.0843C172.224 15.9706 172.287 15.8652 172.373 15.7752C172.46 15.6853 172.568 15.613 172.69 15.5634C172.811 15.5138 172.944 15.4882 173.078 15.4882C173.212 15.4882 173.344 15.5138 173.466 15.5634C173.588 15.613 173.695 15.6853 173.782 15.7752C173.869 15.8652 173.932 15.9706 173.968 16.0843C174.003 16.1979 174.01 16.317 173.988 16.4333V19.6786C173.991 19.7925 173.967 19.9057 173.917 20.0109C173.867 20.116 173.792 20.2106 173.698 20.2887C173.603 20.3668 173.491 20.4265 173.369 20.464C173.247 20.5014 173.117 20.5158 172.987 20.5062C172.957 20.5076 172.926 20.5076 172.895 20.5062H172.896ZM178.724 21.8727C178.511 21.8325 178.321 21.7274 178.188 21.576C178.055 21.4245 177.987 21.2365 177.996 21.0451V15.0668C177.974 14.9505 177.981 14.8315 178.016 14.7178C178.052 14.6042 178.115 14.4987 178.202 14.4088C178.288 14.3188 178.396 14.2465 178.518 14.1969C178.64 14.1474 178.772 14.1217 178.906 14.1217C179.04 14.1217 179.173 14.1474 179.294 14.1969C179.416 14.2465 179.524 14.3188 179.61 14.4088C179.697 14.4987 179.76 14.6042 179.796 14.7178C179.831 14.8315 179.838 14.9505 179.816 15.0668V21.0451C179.819 21.159 179.795 21.2722 179.745 21.3773C179.695 21.4824 179.62 21.5771 179.526 21.6552C179.432 21.7332 179.32 21.793 179.197 21.8304C179.075 21.8679 178.945 21.8823 178.816 21.8727C178.785 21.874 178.754 21.874 178.723 21.8727H178.724ZM190.381 21.8727C190.168 21.8325 189.978 21.7274 189.845 21.576C189.711 21.4245 189.643 21.2365 189.653 21.0451V15.0668C189.631 14.9507 189.638 14.8319 189.674 14.7185C189.71 14.6051 189.773 14.5 189.86 14.4103C189.947 14.3207 190.054 14.2486 190.176 14.1993C190.297 14.1499 190.429 14.1243 190.563 14.1243C190.697 14.1243 190.829 14.1499 190.951 14.1993C191.072 14.2486 191.18 14.3207 191.266 14.4103C191.353 14.5 191.417 14.6051 191.452 14.7185C191.488 14.8319 191.496 14.9507 191.474 15.0668V21.0451C191.477 21.1592 191.453 21.2725 191.403 21.3778C191.352 21.483 191.278 21.5778 191.183 21.6559C191.088 21.734 190.976 21.7936 190.853 21.831C190.731 21.8684 190.601 21.8826 190.471 21.8727C190.441 21.874 190.411 21.874 190.381 21.8727ZM169.982 20.1646C169.769 20.1244 169.579 20.0193 169.446 19.8679C169.312 19.7164 169.244 19.5284 169.253 19.337V16.7749C169.232 16.6588 169.239 16.5399 169.275 16.4266C169.311 16.3132 169.374 16.2081 169.461 16.1184C169.547 16.0288 169.655 15.9567 169.777 15.9073C169.898 15.8579 170.03 15.8324 170.164 15.8324C170.298 15.8324 170.43 15.8579 170.552 15.9073C170.673 15.9567 170.781 16.0288 170.867 16.1184C170.954 16.2081 171.017 16.3132 171.053 16.4266C171.089 16.5399 171.096 16.6588 171.075 16.7749V19.337C171.078 19.4511 171.054 19.5644 171.003 19.6697C170.953 19.7749 170.878 19.8697 170.784 19.9478C170.689 20.0259 170.577 20.0855 170.454 20.1229C170.332 20.1603 170.202 20.1745 170.072 20.1646C170.042 20.1659 170.011 20.1659 169.981 20.1646H169.982ZM181.639 19.0543C181.426 19.0142 181.236 18.9091 181.102 18.7576C180.969 18.6062 180.901 18.4181 180.91 18.2268V17.8851C180.888 17.7689 180.895 17.6498 180.93 17.5362C180.966 17.4225 181.029 17.317 181.116 17.2271C181.203 17.1371 181.31 17.0649 181.432 17.0153C181.554 16.9657 181.686 16.94 181.82 16.94C181.954 16.94 182.087 16.9657 182.208 17.0153C182.33 17.0649 182.438 17.1371 182.525 17.2271C182.611 17.317 182.674 17.4225 182.71 17.5362C182.746 17.6498 182.753 17.7689 182.73 17.8851V18.2268C182.733 18.3407 182.709 18.4539 182.659 18.559C182.609 18.6641 182.535 18.7588 182.44 18.8368C182.346 18.9149 182.234 18.9746 182.111 19.0121C181.989 19.0496 181.859 19.064 181.73 19.0543C181.699 19.0557 181.668 19.0557 181.638 19.0543H181.639ZM193.295 20.1646C193.082 20.1244 192.892 20.0193 192.759 19.8679C192.626 19.7164 192.557 19.5284 192.567 19.337V16.7749C192.545 16.6588 192.552 16.5399 192.588 16.4266C192.624 16.3132 192.687 16.2081 192.774 16.1184C192.861 16.0288 192.968 15.9567 193.09 15.9073C193.211 15.8579 193.344 15.8324 193.477 15.8324C193.611 15.8324 193.743 15.8579 193.865 15.9073C193.986 15.9567 194.094 16.0288 194.181 16.1184C194.267 16.2081 194.331 16.3132 194.367 16.4266C194.402 16.5399 194.41 16.6588 194.388 16.7749V19.337C194.391 19.4511 194.367 19.5644 194.317 19.6697C194.267 19.7749 194.192 19.8697 194.097 19.9478C194.003 20.0259 193.89 20.0855 193.768 20.1229C193.645 20.1603 193.515 20.1745 193.386 20.1646C193.355 20.1659 193.325 20.1659 193.295 20.1646Z" fill="white"/>
<path d="M210.65 24.7673C210.438 24.7372 210.249 24.6586 210.116 24.5454C209.984 24.4321 209.916 24.2915 209.925 24.1484V12.0142C209.903 11.9274 209.911 11.8385 209.946 11.7537C209.982 11.669 210.045 11.5903 210.131 11.5233C210.218 11.4562 210.325 11.4024 210.446 11.3654C210.566 11.3285 210.698 11.3094 210.831 11.3094C210.964 11.3094 211.096 11.3285 211.217 11.3654C211.337 11.4024 211.445 11.4562 211.531 11.5233C211.617 11.5903 211.68 11.669 211.716 11.7537C211.751 11.8385 211.759 11.9274 211.737 12.0142V24.1484C211.74 24.2337 211.716 24.3185 211.666 24.3972C211.616 24.4759 211.542 24.5467 211.448 24.6051C211.354 24.6635 211.242 24.7081 211.12 24.7361C210.998 24.764 210.868 24.7746 210.74 24.7673C210.71 24.7682 210.68 24.7682 210.65 24.7673ZM199.052 24.1286C198.84 24.0986 198.651 24.02 198.518 23.9067C198.385 23.7935 198.317 23.6529 198.327 23.5098V12.6528C198.305 12.566 198.312 12.4771 198.348 12.3924C198.384 12.3076 198.447 12.229 198.533 12.1619C198.619 12.0949 198.726 12.041 198.847 12.0041C198.968 11.9671 199.1 11.948 199.233 11.948C199.366 11.948 199.497 11.9671 199.618 12.0041C199.739 12.041 199.846 12.0949 199.933 12.1619C200.019 12.229 200.082 12.3076 200.117 12.3924C200.153 12.4771 200.16 12.566 200.139 12.6528V23.5098C200.142 23.5951 200.118 23.6798 200.068 23.7585C200.018 23.8372 199.944 23.9081 199.849 23.9665C199.755 24.0249 199.644 24.0695 199.522 24.0974C199.4 24.1254 199.27 24.136 199.141 24.1286C199.111 24.1296 199.081 24.1296 199.052 24.1286ZM207.75 22.2127C207.538 22.1827 207.349 22.1041 207.217 21.9908C207.084 21.8775 207.016 21.7369 207.025 21.5938V14.5687C207.003 14.4818 207.01 14.3928 207.046 14.3078C207.081 14.2228 207.144 14.1439 207.23 14.0767C207.316 14.0094 207.424 13.9554 207.545 13.9183C207.666 13.8812 207.798 13.862 207.931 13.862C208.064 13.862 208.196 13.8812 208.317 13.9183C208.438 13.9554 208.546 14.0094 208.632 14.0767C208.718 14.1439 208.781 14.2228 208.816 14.3078C208.852 14.3928 208.859 14.4818 208.837 14.5687V21.5938C208.84 21.679 208.816 21.7637 208.766 21.8423C208.716 21.9209 208.642 21.9916 208.548 22.05C208.454 22.1084 208.343 22.1531 208.221 22.1811C208.099 22.2091 207.97 22.2199 207.841 22.2127C207.811 22.2137 207.78 22.2137 207.749 22.2127H207.75ZM196.152 21.574C195.94 21.544 195.751 21.4654 195.618 21.3522C195.486 21.2389 195.418 21.0983 195.427 20.9552V15.2074C195.405 15.1205 195.412 15.0314 195.447 14.9464C195.483 14.8614 195.546 14.7826 195.632 14.7153C195.718 14.648 195.825 14.594 195.946 14.5569C196.068 14.5199 196.199 14.5006 196.333 14.5006C196.466 14.5006 196.598 14.5199 196.719 14.5569C196.84 14.594 196.947 14.648 197.033 14.7153C197.12 14.7826 197.183 14.8614 197.218 14.9464C197.253 15.0314 197.26 15.1205 197.238 15.2074V20.9552C197.241 21.0404 197.217 21.125 197.167 21.2036C197.118 21.2822 197.043 21.353 196.95 21.4114C196.856 21.4698 196.744 21.5144 196.622 21.5424C196.501 21.5705 196.371 21.5812 196.243 21.574C196.212 21.575 196.182 21.575 196.151 21.574H196.152ZM201.951 20.9354C201.739 20.9054 201.55 20.8268 201.417 20.7135C201.285 20.6003 201.217 20.4596 201.226 20.3165V15.846C201.204 15.7591 201.211 15.67 201.247 15.5851C201.282 15.5001 201.345 15.4212 201.431 15.354C201.517 15.2867 201.625 15.2326 201.746 15.1956C201.867 15.1585 201.998 15.1393 202.132 15.1393C202.265 15.1393 202.397 15.1585 202.518 15.1956C202.639 15.2326 202.746 15.2867 202.833 15.354C202.919 15.4212 202.982 15.5001 203.017 15.5851C203.053 15.67 203.059 15.7591 203.038 15.846V20.3165C203.041 20.4017 203.016 20.4864 202.967 20.565C202.917 20.6436 202.843 20.7144 202.749 20.7727C202.655 20.8311 202.543 20.8758 202.422 20.9038C202.3 20.9318 202.17 20.9426 202.042 20.9354C202.011 20.9364 201.981 20.9364 201.95 20.9354H201.951ZM213.549 20.9354C213.338 20.9054 213.149 20.8268 213.016 20.7135C212.883 20.6003 212.815 20.4596 212.825 20.3165V15.846C212.803 15.7592 212.81 15.6703 212.846 15.5856C212.882 15.5008 212.945 15.4222 213.031 15.3551C213.117 15.2881 213.224 15.2342 213.345 15.1973C213.466 15.1604 213.598 15.1412 213.731 15.1412C213.864 15.1412 213.995 15.1604 214.116 15.1973C214.237 15.2342 214.344 15.2881 214.43 15.3551C214.517 15.4222 214.58 15.5008 214.615 15.5856C214.651 15.6703 214.658 15.7592 214.637 15.846V20.3165C214.64 20.4018 214.616 20.4866 214.566 20.5653C214.516 20.644 214.442 20.7149 214.347 20.7733C214.253 20.8317 214.142 20.8763 214.02 20.9042C213.898 20.9322 213.768 20.9428 213.639 20.9354C213.609 20.9364 213.579 20.9364 213.549 20.9354ZM193.252 19.6581C193.04 19.6281 192.851 19.5495 192.719 19.4362C192.586 19.323 192.518 19.1823 192.527 19.0393V17.1233C192.506 17.0365 192.513 16.9476 192.549 16.8629C192.584 16.7781 192.648 16.6995 192.734 16.6324C192.82 16.5654 192.927 16.5115 193.048 16.4746C193.169 16.4376 193.3 16.4185 193.434 16.4185C193.567 16.4185 193.698 16.4376 193.819 16.4746C193.94 16.5115 194.047 16.5654 194.133 16.6324C194.22 16.6995 194.283 16.7781 194.318 16.8629C194.354 16.9476 194.361 17.0365 194.34 17.1233V19.0393C194.343 19.1245 194.319 19.2093 194.269 19.288C194.219 19.3667 194.144 19.4376 194.05 19.496C193.956 19.5544 193.844 19.599 193.722 19.6269C193.6 19.6549 193.471 19.6655 193.342 19.6581C193.312 19.6591 193.282 19.6591 193.251 19.6581H193.252ZM204.851 19.6581C204.639 19.6281 204.45 19.5495 204.317 19.4362C204.184 19.323 204.117 19.1823 204.126 19.0393V17.1233C204.104 17.0364 204.111 16.9473 204.146 16.8624C204.182 16.7774 204.245 16.6985 204.331 16.6312C204.417 16.564 204.524 16.5099 204.645 16.4729C204.766 16.4358 204.898 16.4166 205.031 16.4166C205.165 16.4166 205.297 16.4358 205.418 16.4729C205.539 16.5099 205.646 16.564 205.732 16.6312C205.818 16.6985 205.881 16.7774 205.917 16.8624C205.952 16.9473 205.959 17.0364 205.937 17.1233V19.0393C205.94 19.1244 205.916 19.2091 205.866 19.2877C205.816 19.3663 205.742 19.4371 205.648 19.4955C205.554 19.5538 205.443 19.5985 205.321 19.6265C205.199 19.6545 205.07 19.6653 204.942 19.6581C204.911 19.6591 204.88 19.6591 204.85 19.6581H204.851ZM216.449 19.6581C216.237 19.6281 216.048 19.5495 215.915 19.4362C215.783 19.323 215.715 19.1823 215.724 19.0393V17.1233C215.703 17.0365 215.71 16.9476 215.746 16.8629C215.781 16.7781 215.844 16.6995 215.93 16.6324C216.017 16.5654 216.124 16.5115 216.245 16.4746C216.366 16.4376 216.497 16.4185 216.63 16.4185C216.763 16.4185 216.895 16.4376 217.016 16.4746C217.137 16.5115 217.244 16.5654 217.33 16.6324C217.416 16.6995 217.479 16.7781 217.515 16.8629C217.551 16.9476 217.558 17.0365 217.536 17.1233V19.0393C217.539 19.1245 217.515 19.2093 217.465 19.288C217.416 19.3667 217.341 19.4376 217.247 19.496C217.153 19.5544 217.041 19.599 216.919 19.6269C216.797 19.6549 216.668 19.6655 216.539 19.6581C216.509 19.6591 216.479 19.6591 216.449 19.6581Z" fill="white"/>
</g>
</g>
<ellipse cx="21.0013" cy="18.0013" rx="10.8333" ry="10.8333" fill="#EF7D90"/>
<path d="M18.832 21.292L25.0612 17.7495L18.832 14.207V21.292Z" fill="#0B2B3E"/>
<defs>
<clipPath id="clip0_1185_11943">
<rect width="118.498" height="18" fill="white" transform="matrix(1 0 0 -1 55.7107 27)"/>
</clipPath>
<clipPath id="clip1_1185_11943">
<rect width="48.3051" height="18" fill="white" transform="matrix(1 0 0 -1 169.304 27)"/>
</clipPath>
</defs>
</svg>
