<svg width="72" height="72" viewBox="0 0 72 72" fill="none" xmlns="http://www.w3.org/2000/svg">
<ellipse cx="36" cy="35.9999" rx="30" ry="30" fill="#0B2B3E"/>
<ellipse cx="36" cy="36" rx="15" ry="15" fill="#EF7D90"/>
<path d="M31.4404 40L29.5294 36.555H28.1124V40H26.7864V31.485H29.5684C30.5217 31.485 31.2714 31.68 31.8174 32.07C32.3634 32.4513 32.6364 33.0797 32.6364 33.955C32.6364 34.5877 32.476 35.1077 32.1554 35.515C31.8434 35.9137 31.41 36.1997 30.8554 36.373L32.9354 40H31.4404ZM28.1124 35.489H29.4124C30.0364 35.489 30.5087 35.3633 30.8294 35.112C31.1587 34.852 31.3234 34.4663 31.3234 33.955C31.3234 33.4523 31.163 33.0927 30.8424 32.876C30.5304 32.6593 30.0537 32.551 29.4124 32.551H28.1124V35.489ZM39.3528 36.49C39.3528 36.7327 39.3355 36.958 39.3008 37.166H35.1018C35.1625 37.8073 35.3791 38.297 35.7518 38.635C36.1331 38.9643 36.5925 39.129 37.1298 39.129C37.6411 39.129 38.1481 38.9687 38.6508 38.648L39.1058 39.48C38.4298 39.9307 37.7148 40.156 36.9608 40.156C36.3801 40.156 35.8558 40.0217 35.3878 39.753C34.9198 39.4843 34.5471 39.0987 34.2698 38.596C34.0011 38.0933 33.8668 37.504 33.8668 36.828C33.8668 36.1607 34.0011 35.5757 34.2698 35.073C34.5471 34.5617 34.9068 34.1717 35.3488 33.903C35.7908 33.6257 36.2631 33.487 36.7658 33.487C37.5891 33.487 38.2261 33.76 38.6768 34.306C39.1275 34.8433 39.3528 35.5713 39.3528 36.49ZM38.2088 36.256C38.2088 35.7013 38.0875 35.2723 37.8448 34.969C37.6021 34.6657 37.2511 34.514 36.7918 34.514C36.3931 34.514 36.0378 34.6613 35.7258 34.956C35.4138 35.2507 35.2145 35.684 35.1278 36.256H38.2088ZM43.6212 40.156C43.0492 40.156 42.5335 40.026 42.0742 39.766C41.6149 39.4973 41.2509 39.1117 40.9822 38.609C40.7222 38.1063 40.5922 37.5127 40.5922 36.828C40.5922 36.1433 40.7352 35.5497 41.0212 35.047C41.3072 34.5443 41.6885 34.1587 42.1652 33.89C42.6419 33.6213 43.1619 33.487 43.7252 33.487C44.4185 33.487 45.0382 33.7297 45.5842 34.215L44.9342 35.073C44.7435 34.9083 44.5572 34.7827 44.3752 34.696C44.1932 34.6093 43.9982 34.566 43.7902 34.566C43.2442 34.566 42.7979 34.774 42.4512 35.19C42.1132 35.606 41.9442 36.152 41.9442 36.828C41.9442 37.504 42.1089 38.05 42.4382 38.466C42.7762 38.8733 43.2139 39.077 43.7512 39.077C44.2279 39.077 44.6915 38.882 45.1422 38.492L45.6882 39.363C45.4022 39.623 45.0772 39.8223 44.7132 39.961C44.3579 40.091 43.9939 40.156 43.6212 40.156Z" fill="#0B2B3E"/>
</svg>
