<svg width="72" height="72" viewBox="0 0 72 72" fill="none" xmlns="http://www.w3.org/2000/svg">
<ellipse cx="36" cy="36.0001" rx="30" ry="30" fill="#0B2B3E"/>
<path d="M29.25 33.75C29.4489 33.75 29.6397 33.829 29.7803 33.9697C29.921 34.1103 30 34.3011 30 34.5V36C30 37.5913 30.6321 39.1174 31.7574 40.2426C32.8826 41.3679 34.4087 42 36 42C37.5913 42 39.1174 41.3679 40.2426 40.2426C41.3679 39.1174 42 37.5913 42 36V34.5C42 34.3011 42.079 34.1103 42.2197 33.9697C42.3603 33.829 42.5511 33.75 42.75 33.75C42.9489 33.75 43.1397 33.829 43.2803 33.9697C43.421 34.1103 43.5 34.3011 43.5 34.5V36C43.5 37.8593 42.8094 39.6523 41.5622 41.0312C40.3149 42.4101 38.6 43.2766 36.75 43.4625V46.5H41.25C41.4489 46.5 41.6397 46.579 41.7803 46.7197C41.921 46.8603 42 47.0511 42 47.25C42 47.4489 41.921 47.6397 41.7803 47.7803C41.6397 47.921 41.4489 48 41.25 48H30.75C30.5511 48 30.3603 47.921 30.2197 47.7803C30.079 47.6397 30 47.4489 30 47.25C30 47.0511 30.079 46.8603 30.2197 46.7197C30.3603 46.579 30.5511 46.5 30.75 46.5H35.25V43.4625C33.4 43.2766 31.6851 42.4101 30.4378 41.0312C29.1906 39.6523 28.5 37.8593 28.5 36V34.5C28.5 34.3011 28.579 34.1103 28.7197 33.9697C28.8603 33.829 29.0511 33.75 29.25 33.75Z" fill="#EF7D90"/>
<path d="M39 36C39 36.7956 38.6839 37.5587 38.1213 38.1213C37.5587 38.6839 36.7956 39 36 39C35.2044 39 34.4413 38.6839 33.8787 38.1213C33.3161 37.5587 33 36.7956 33 36V28.5C33 27.7044 33.3161 26.9413 33.8787 26.3787C34.4413 25.8161 35.2044 25.5 36 25.5C36.7956 25.5 37.5587 25.8161 38.1213 26.3787C38.6839 26.9413 39 27.7044 39 28.5V36ZM36 24C34.8065 24 33.6619 24.4741 32.818 25.318C31.9741 26.1619 31.5 27.3065 31.5 28.5V36C31.5 37.1935 31.9741 38.3381 32.818 39.182C33.6619 40.0259 34.8065 40.5 36 40.5C37.1935 40.5 38.3381 40.0259 39.182 39.182C40.0259 38.3381 40.5 37.1935 40.5 36V28.5C40.5 27.3065 40.0259 26.1619 39.182 25.318C38.3381 24.4741 37.1935 24 36 24V24Z" fill="#EF7D90"/>
</svg>
