<svg width="20" height="20" viewBox="0 0 20 20" fill="none" xmlns="http://www.w3.org/2000/svg">
<g clip-path="url(#clip0_941_3295)">
<path d="M2.0625 11.2374L4.53737 13.7123L7.01225 11.2374" stroke="#BD3150" stroke-width="2" stroke-linecap="round" stroke-linejoin="round"/>
<path d="M7.63503 14.7394C8.6616 15.2311 9.82014 15.3758 10.9361 15.1518C12.0521 14.9278 13.065 14.3471 13.8223 13.4974C14.5796 12.6476 15.0402 11.5747 15.1347 10.4404C15.2292 9.30612 14.9525 8.17183 14.3463 7.20845C13.7401 6.24507 12.8372 5.5048 11.7737 5.09917C10.7102 4.69354 9.5437 4.64454 8.44992 4.95953C7.35614 5.27452 6.39436 5.93646 5.70949 6.84559C5.02463 7.75473 4.65377 8.86182 4.65281 10.0001L4.53731 13.7124" stroke="#BD3150" stroke-width="1.5" stroke-linecap="round" stroke-linejoin="round"/>
</g>
<defs>
<clipPath id="clip0_941_3295">
<rect width="14" height="14" fill="white" transform="translate(0 10) rotate(-45)"/>
</clipPath>
</defs>
</svg>
