<svg width="68" height="68" viewBox="0 0 68 68" fill="none" xmlns="http://www.w3.org/2000/svg">
<circle cx="34" cy="34" r="19" fill="white" stroke="#1AAD54" stroke-width="10"/>
<path d="M34 18.25C25.3015 18.25 18.25 25.3015 18.25 34C18.25 42.6985 25.3015 49.75 34 49.75C42.6985 49.75 49.75 42.6985 49.75 34C49.75 25.3015 42.6985 18.25 34 18.25ZM29.0359 23.8101C29.3604 23.791 29.6537 23.9849 29.8761 24.3292L32.0294 28.4128C32.2561 28.8967 32.1273 29.4148 31.7891 29.7606L30.8028 30.7468C30.7419 30.8303 30.7019 30.9242 30.7009 31.0275C31.0791 32.4916 32.2265 33.8421 33.2388 34.7709C34.251 35.6996 35.339 36.957 36.7513 37.2549C36.9259 37.3036 37.1397 37.321 37.2647 37.2049L38.4105 36.0379C38.8061 35.7381 39.3783 35.5928 39.8006 35.838L39.8198 35.838L43.7053 38.1316C44.2757 38.4891 44.3348 39.1802 43.9264 39.6005L41.2502 42.2556C40.855 42.6609 40.33 42.7972 39.8198 42.7978C37.5637 42.7302 35.4319 41.6229 33.681 40.4849C30.8069 38.394 28.1705 35.8007 26.5154 32.6676C25.8806 31.3537 25.1349 29.6774 25.2061 28.211C25.2124 27.6593 25.3617 27.1189 25.7502 26.7633L28.4265 24.087C28.6349 23.9096 28.8412 23.8216 29.0359 23.8101Z" fill="#1AAD54"/>
</svg>
