<svg width="152" height="63" viewBox="0 0 152 63" fill="none" xmlns="http://www.w3.org/2000/svg">
<path d="M50.5972 34.0499C50.4447 33.7736 46.8751 27.2183 44.7249 24.1067C43.4747 22.2974 39.2859 17.5869 39.1122 17.3853C38.8743 17.1167 38.5216 16.9793 38.1643 17.0145C37.554 17.0678 23.2487 18.4185 19.0196 19.2927C13.5847 20.4145 7.29835 21.7171 1.5486 23.2966C1.18105 23.3971 0.889548 23.6775 0.773848 24.04C0.658243 24.4031 0.733349 24.8006 0.974545 25.0954C3.29569 27.9599 11.6737 37.9863 13.369 40.0276C13.169 42.1474 12.3237 50.8873 11.9427 54.5643C11.8059 55.8543 11.7181 57.1239 11.6245 58.3554C11.5845 58.9518 11.5395 59.5575 11.4893 60.1724C11.4628 60.5051 11.5866 60.8327 11.8262 61.0653C12.0673 61.2996 12.3993 61.4154 12.7336 61.3837C16.6787 60.956 20.4905 60.2491 24.1759 59.5678C26.6198 59.1135 29.1455 58.6402 31.7165 58.2512C34.7266 57.7958 41.7126 57.1163 41.7836 57.1121L41.8408 57.1034C42.2322 57.0442 42.5632 56.7839 42.7136 56.4181C42.8671 56.0564 46.4146 47.4934 47.5717 44.2133C48.5751 41.3796 50.6461 35.019 50.6683 34.9505C50.7684 34.6529 50.7427 34.328 50.5972 34.0499Z" fill="#DDB493"/>
<path d="M21.105 39.0069C21.3417 38.7602 21.4699 38.429 21.4625 38.0871C21.4543 37.7446 21.3108 37.42 21.0635 37.184C17.2596 33.5544 7.80582 22.441 7.71116 22.3317C7.24275 21.8258 6.45899 21.7784 5.93346 22.2244C5.40793 22.6704 5.32681 23.4508 5.74966 23.9954C6.13851 24.4574 15.3737 35.3304 19.2894 39.0538C19.8043 39.5402 20.6156 39.5197 21.105 39.0069Z" fill="#BF9375"/>
<path d="M13.3486 25.6967C14.0524 26.6051 14.8586 27.4289 15.751 28.1519C16.322 28.57 17.1239 28.4486 17.5456 27.8803C17.7488 27.6055 17.8341 27.2613 17.7829 26.9233C17.7318 26.5854 17.5485 26.2818 17.2731 26.0794C16.5428 25.4686 15.8803 24.7812 15.2964 24.0285C14.5784 23.1074 13.7555 22.2724 12.8437 21.542C12.2698 21.1217 11.4639 21.2469 11.0437 21.8208C10.6241 22.3947 10.7486 23.2006 11.3225 23.6208C12.0747 24.2341 12.7542 24.93 13.3486 25.6967Z" fill="#BF9375"/>
<path d="M40.2656 34.077L32.4151 25.429C32.1052 25.0885 31.6374 24.9393 31.1881 25.0372C30.7381 25.1352 30.3754 25.4655 30.2354 25.9039C30.0953 26.3424 30.1998 26.8219 30.5097 27.1623L38.3274 35.8088C38.6363 36.1553 39.1069 36.3099 39.5619 36.2151C40.0162 36.1203 40.3855 35.7904 40.531 35.3491C40.6758 34.908 40.5745 34.4234 40.2656 34.077Z" fill="#BF9375"/>
<path d="M34.0602 21.2027C34.3907 21.6019 34.742 21.9829 35.1119 22.3455C35.4012 22.6226 35.8031 22.7493 36.1988 22.6888C36.4785 22.6439 36.7363 22.5111 36.9358 22.3104C37.1724 22.063 37.3014 21.7324 37.2933 21.3905C37.2857 21.048 37.1422 20.7234 36.8943 20.4875C36.5908 20.1812 36.3033 19.8596 36.0325 19.5243C35.5425 18.8974 34.9849 18.3269 34.3691 17.8231C34.0038 17.5432 33.5165 17.4802 33.0915 17.6571C32.6672 17.8339 32.3687 18.2234 32.309 18.6803C32.2498 19.1365 32.4387 19.5896 32.804 19.8696C33.2725 20.2641 33.6936 20.7114 34.0602 21.2027Z" fill="#BF9375"/>
<path d="M18.0443 38.7799C17.7041 38.7467 17.3648 38.8495 17.1008 39.0665C16.8368 39.2835 16.67 39.5964 16.6375 39.9366C16.0806 45.4628 13.7397 58.6016 13.7135 58.7292C13.6523 59.0652 13.7277 59.4125 13.923 59.6928C14.1179 59.9738 14.4169 60.1649 14.7535 60.2253C14.8932 60.2497 15.0369 60.2527 15.1777 60.2327C15.7223 60.149 16.1533 59.7277 16.2495 59.1852C16.3497 58.6428 18.6321 45.8058 19.2338 40.1882C19.2668 39.8428 19.16 39.4983 18.9357 39.2334C18.712 38.9679 18.3904 38.8043 18.0443 38.7799Z" fill="#BF9375"/>
<path d="M24.3018 37.8592C23.9606 37.8503 23.6296 37.9772 23.3814 38.2126C23.1339 38.448 22.9902 38.7718 22.9813 39.1135C22.8043 42.5383 22.2635 45.9341 21.3702 49.2452C21.2425 49.9116 21.6543 50.5634 22.3108 50.7335C22.968 50.9042 23.6446 50.5356 23.8569 49.891C24.8027 46.389 25.3722 42.7961 25.5551 39.1733C25.5703 38.4647 25.0102 37.8777 24.3018 37.8592Z" fill="#BF9375"/>
<path d="M35.1732 42.3789C34.501 42.1525 33.7725 42.5133 33.5442 43.1852C32.1491 47.3019 29.6221 55.9839 29.5964 56.0724C29.5018 56.4024 29.5424 56.7569 29.7101 57.0563C29.8779 57.3564 30.158 57.577 30.4889 57.6689C30.6689 57.7184 30.8568 57.7297 31.0408 57.7025C31.5357 57.6263 31.9415 57.2707 32.081 56.7901C32.1066 56.7015 34.6159 48.0744 36.005 44.0041C36.1112 43.6782 36.0836 43.3237 35.9275 43.0186C35.7713 42.7135 35.4995 42.4832 35.1732 42.3789Z" fill="#BF9375"/>
<path d="M39.1523 45.3115C38.4735 45.1018 37.7531 45.4815 37.5427 46.1604C37.5523 46.2241 35.6246 52.4133 34.341 55.374C34.1423 55.7986 34.1905 56.2977 34.4658 56.6766C34.742 57.056 35.2017 57.2553 35.6669 57.1973C36.1325 57.1385 36.5288 56.8318 36.7025 56.3968C38.0441 53.3036 39.9232 47.1803 40.0076 46.9201C40.1078 46.5932 40.0739 46.2403 39.9137 45.9384C39.7535 45.6365 39.4792 45.4111 39.1523 45.3115Z" fill="#BF9375"/>
<path d="M14.8076 43.4619C13.7879 43.6357 12.7522 43.2527 12.0914 42.4564C11.4299 41.6595 11.2444 40.5711 11.604 39.6008C11.9629 38.63 12.8131 37.9246 13.8329 37.7508C17.1982 37.1049 26.7781 35.4993 35.2281 34.0841C41.1702 33.0874 46.7886 32.1462 49.0954 31.7321C53.6963 30.9058 81.1081 26.3482 85.6866 25.8899C88.2513 25.632 109.852 22.1165 117.956 20.7861L117.995 20.7803C119.575 20.5301 121.058 21.6089 121.308 23.1887C121.558 24.7685 120.48 26.2518 118.899 26.502C117.697 26.6839 89.5045 31.3335 86.2658 31.6542C81.9184 32.0907 54.5756 36.6313 50.1211 37.4354C47.7761 37.8553 42.1449 38.7984 36.1583 39.8019C27.7401 41.2122 18.1984 42.8121 14.8958 43.442L14.8076 43.4619Z" fill="#B17606"/>
<path d="M147.859 19.0998C147.722 19.0555 134.697 14.6665 131.069 13.2364C123.366 10.2098 115.008 7.24317 106.105 6.09064C105.649 6.03015 105.202 6.2533 104.975 6.65405C104.75 7.05533 104.791 7.55363 105.079 7.91235C108.518 12.1894 115.883 22.1022 117.275 23.9876C117.232 25.5545 117.061 27.1147 116.764 28.6542C115.924 32.2397 115.388 35.8899 115.16 39.5658C115.144 39.9021 115.281 40.2278 115.532 40.4527C115.783 40.6771 116.122 40.7768 116.455 40.7239C116.601 40.7018 116.742 40.6518 116.869 40.5767C116.994 40.4992 129.247 33.0731 134.783 29.9052C139.362 27.2595 147.768 21.3398 148.121 21.0911C148.474 20.8476 148.662 20.4274 148.608 20.0021C148.545 19.5858 148.257 19.2382 147.859 19.0998Z" fill="#EAF3F3"/>
<path d="M132.339 22.7499L132.18 22.7739C130.591 22.851 129.008 23.0099 127.436 23.251C126.424 23.4041 125.374 23.5238 124.392 23.6139C123.683 23.6795 123.054 23.1581 122.989 22.4494C122.923 21.74 123.444 21.1119 124.153 21.0462C125.084 20.9575 126.073 20.8273 127.094 20.6924C128.785 20.469 130.534 20.237 132.108 20.1876C132.818 20.1232 133.444 20.6462 133.509 21.3557C133.573 22.0646 133.05 22.6918 132.34 22.7562L132.339 22.7499Z" fill="#A1AFAE"/>
</svg>
