<svg width="65" height="64" viewBox="0 0 65 64" fill="none" xmlns="http://www.w3.org/2000/svg">
<path d="M32 56C18.7452 56 8 45.2548 8 32C8 18.7452 18.7452 8 32 8C45.2548 8 56 18.7452 56 32C56 45.2548 45.2548 56 32 56Z" fill="white" stroke="#EC2D2D" stroke-width="16"/>
<path d="M47.1041 46.8492C55.3051 38.6482 55.3051 25.3518 47.1041 17.1508C38.9031 8.94974 25.6067 8.94974 17.4056 17.1508C9.20463 25.3518 9.20463 38.6482 17.4056 46.8492C25.6067 55.0503 38.9031 55.0503 47.1041 46.8492ZM46.5422 36.9269C46.2543 37.2509 45.7949 37.3446 45.2607 37.2297L39.3804 35.4098C38.7105 35.1673 38.3434 34.5573 38.3363 33.9125L38.3363 32.0527C38.3151 31.9167 38.2643 31.7904 38.1678 31.692C36.4308 30.6683 34.0758 30.4767 32.2458 30.5555C30.4158 30.6343 28.2046 30.4745 26.5922 31.5252C26.3817 31.6439 26.1636 31.8291 26.1553 32.0563L26.1752 34.2369C26.085 34.8925 25.6825 35.569 25.0532 35.736L25.0351 35.7541L19.2093 37.255C18.3345 37.4556 17.6272 36.8598 17.6159 36.0785L17.6358 31.0521C17.6263 30.2974 17.9929 29.6739 18.4733 29.1924C20.6641 27.129 23.7179 26.1632 26.4417 25.5852C31.1227 24.8468 36.0533 24.8062 40.5677 26.1997C42.4048 26.8399 44.6883 27.7173 46.0038 29.1669C46.5179 29.693 46.8868 30.3433 46.8557 31.0448L46.8557 36.0913C46.8264 36.4551 46.715 36.7325 46.5422 36.9269Z" fill="#EC2D2D"/>
</svg>
