<svg width="10" height="5" viewBox="0 0 10 5" fill="none" xmlns="http://www.w3.org/2000/svg">
<path d="M9.78799 4.21064C9.69151 4.31922 9.53754 4.35061 9.3585 4.3121L7.38783 3.70218C7.1633 3.62092 7.0403 3.41651 7.03792 3.2004L7.03791 2.57713C7.03079 2.53153 7.01376 2.48919 6.98142 2.45624C6.3993 2.11314 5.61006 2.04895 4.99676 2.07535C4.38347 2.10175 3.6424 2.04822 3.10203 2.40034C3.03148 2.44012 2.9584 2.50217 2.95561 2.57833L2.9623 3.30913C2.93205 3.52883 2.79716 3.75554 2.58626 3.81152L2.58019 3.81759L0.627749 4.32057C0.334575 4.38783 0.0975593 4.18816 0.0937691 3.92632L0.100438 2.24178C0.0972535 1.98885 0.220098 1.77989 0.381088 1.61852C1.11531 0.927007 2.13877 0.603319 3.05158 0.409625C4.62037 0.162152 6.27278 0.148549 7.78572 0.615553C8.40141 0.830106 9.16669 1.12416 9.60755 1.60999C9.77986 1.78631 9.90346 2.00424 9.89306 2.23935L9.89306 3.93058C9.88324 4.0525 9.84589 4.14548 9.78799 4.21064Z" fill="#EC2D2D"/>
</svg>
