<svg width="49" height="48" viewBox="0 0 49 48" fill="none" xmlns="http://www.w3.org/2000/svg">
<circle cx="24.9412" cy="24" r="14" fill="white" stroke="#77CAE5" stroke-width="20"/>
<path d="M33.7333 16.1166L27.4 15.4833H22.3333L17.9 16.1166L16.6333 16.7499L16 21.1833V25.6166L17.2667 29.4166L20.4333 30.6833V32.5833L24.2333 30.6833H28.0333L31.8333 30.0499L34.3667 28.7833L35 21.1833L33.7333 16.1166Z" fill="white" stroke="white"/>
<path d="M27.4 30.3666C30.9824 30.3666 32.7741 30.3666 33.8866 29.2532C35 28.1408 35 26.3491 35 22.7666C35 19.1842 35 17.3925 33.8866 16.28C32.7741 15.1666 30.9824 15.1666 27.4 15.1666H23.6C20.0176 15.1666 18.2258 15.1666 17.1134 16.28C16 17.3925 16 19.1842 16 22.7666C16 26.3491 16 28.1408 17.1134 29.2532C17.7337 29.8745 18.565 30.1491 19.8 30.2697" stroke="white" stroke-linecap="round" stroke-linejoin="round"/>
</svg>
