<svg width="10" height="10" viewBox="0 0 10 10" fill="none" xmlns="http://www.w3.org/2000/svg">
<path d="M2.71346 1.00058C2.85846 0.992027 2.98953 1.0787 3.08889 1.23253L4.0511 3.05728C4.15241 3.27351 4.09484 3.50503 3.94371 3.65952L3.50299 4.10025C3.47579 4.13752 3.45789 4.1795 3.45745 4.22567C3.62647 4.8799 4.13915 5.48337 4.5915 5.89837C5.04382 6.31337 5.52998 6.87523 6.16108 7.00834C6.23908 7.0301 6.33464 7.0379 6.39046 6.98602L6.90249 6.46454C7.07924 6.33057 7.33492 6.26565 7.52363 6.37519H7.53221L9.26846 7.40012C9.52333 7.55986 9.54973 7.86865 9.36726 8.05648L8.1714 9.2429C7.9948 9.42401 7.76018 9.4849 7.53224 9.48517C6.52409 9.45497 5.57152 8.96016 4.7891 8.45166C3.50481 7.51735 2.32675 6.35854 1.58717 4.95851C1.30352 4.37144 0.970314 3.62238 1.00211 2.96711C1.00495 2.72059 1.07165 2.47909 1.24525 2.3202L2.44113 1.12432C2.53429 1.04505 2.62645 1.00572 2.71346 1.00058Z" fill="#1AAD54"/>
</svg>
