<svg width="18" height="20" viewBox="0 0 18 20" fill="none" xmlns="http://www.w3.org/2000/svg">
<path d="M1 16.1396C1.01736 14.9162 1.55143 13.7484 2.48666 12.8888C3.42189 12.0291 4.68308 11.5468 5.99737 11.5462H12.0026C13.3169 11.5468 14.5781 12.0291 15.5133 12.8888C16.4486 13.7484 16.9826 14.9162 17 16.1396C14.8049 17.9809 11.9548 19 9 19C6.04516 19 3.19508 17.9809 1 16.1396ZM13.5039 5.19271C13.5039 6.02196 13.2398 6.83257 12.7449 7.52206C12.25 8.21155 11.5466 8.74894 10.7236 9.06628C9.90059 9.38361 8.995 9.46664 8.12133 9.30487C7.24765 9.14309 6.44512 8.74377 5.81523 8.15741C5.18535 7.57105 4.75639 6.82398 4.5826 6.01067C4.40882 5.19737 4.49801 4.35435 4.8389 3.58823C5.17979 2.82211 5.75708 2.1673 6.49775 1.7066C7.23841 1.2459 8.1092 1 9 1C10.1945 1 11.3401 1.44173 12.1848 2.22802C13.0294 3.0143 13.5039 4.08074 13.5039 5.19271Z" stroke="#111111" stroke-width="1.5"/>
</svg>
