<svg width="41" height="35" viewBox="0 0 41 35" fill="none" xmlns="http://www.w3.org/2000/svg">
<path d="M38.5823 10.333C39.2192 12.3809 39.2985 14.5617 38.812 16.6504C37.5486 21.0611 32.8622 23.3584 28.6353 25.1502C29.9489 27.2145 30.6793 29.596 30.7487 32.0419L25.3732 27.8839C25.0768 27.6409 24.7433 27.447 24.3854 27.3096C23.7989 27.1494 23.1801 27.1494 22.5935 27.3096C19.3171 28.0047 15.9482 28.1522 12.6235 27.7461C8.76418 27.2866 4.60618 25.7705 2.86028 22.3016C1.86039 20.1371 1.72078 17.6735 2.46975 15.4099C6.07641 3.46428 19.0558 -0.670747 30.2204 2.2008C32.4315 2.67427 34.4629 3.76563 36.0783 5.34801C37.3148 6.77545 38.1754 8.48889 38.5823 10.333Z" fill="white" stroke="#0B2B3E" stroke-width="2.22082"/>
</svg>
