<svg width="49" height="48" viewBox="0 0 49 48" fill="none" xmlns="http://www.w3.org/2000/svg">
<circle cx="24.8823" cy="24" r="14" fill="white" stroke="#2F70EE" stroke-width="20"/>
<path d="M29.75 31.5H17C16.6022 31.5 16.2206 31.342 15.9393 31.0607C15.658 30.7794 15.5 30.3978 15.5 30V18C15.5 17.6022 15.658 17.2206 15.9393 16.9393C16.2206 16.658 16.6022 16.5 17 16.5H29.75C30.1478 16.5 30.5294 16.658 30.8107 16.9393C31.092 17.2206 31.25 17.6022 31.25 18V21.045L35.315 18.1425C35.4269 18.0628 35.5586 18.0154 35.6957 18.0054C35.8327 17.9955 35.9699 18.0234 36.0922 18.086C36.2144 18.1487 36.3171 18.2438 36.3891 18.3609C36.461 18.478 36.4994 18.6126 36.5 18.75V29.25C36.4994 29.3874 36.461 29.522 36.3891 29.6391C36.3171 29.7562 36.2144 29.8513 36.0922 29.914C35.9699 29.9766 35.8327 30.0045 35.6957 29.9946C35.5586 29.9846 35.4269 29.9372 35.315 29.8575L31.25 26.955V30C31.25 30.3978 31.092 30.7794 30.8107 31.0607C30.5294 31.342 30.1478 31.5 29.75 31.5Z" fill="white"/>
</svg>
