<svg width="331" height="416" viewBox="0 0 331 416" fill="none" xmlns="http://www.w3.org/2000/svg">
<g clip-path="url(#clip0_941_3700)">
<path d="M294.709 312.529C305.108 318.061 316.837 317.442 327.949 319.762C328.522 319.93 329.137 319.875 329.672 319.608C330.207 319.341 330.622 318.882 330.834 318.323C331.356 317.014 330.644 316.062 329.789 315.182C328.731 314.281 327.391 313.78 326.002 313.767C320.549 312.974 315.1 312.228 309.655 311.53C309.88 311.209 309.774 311.007 309.346 310.983C308.919 310.959 308.8 311.161 308.978 311.506L295.813 311.328C295.29 310.602 294.626 310.507 294.186 311.328C294.119 311.437 294.078 311.562 294.069 311.69C294.06 311.819 294.082 311.948 294.133 312.066C294.185 312.184 294.264 312.288 294.364 312.368C294.464 312.449 294.583 312.504 294.709 312.529ZM122.359 209.439H124.733C124.413 211.188 124.175 213.008 123.76 214.674C123.07 217.573 122.957 220.581 123.427 223.524C123.712 225.368 124.306 227.842 126.585 228.045C127.576 228.051 128.552 227.801 129.417 227.317C130.283 226.833 131.009 226.133 131.524 225.285C131.766 224.972 131.966 224.628 132.117 224.262C133.304 220.693 134.883 217.35 135.239 213.555C135.597 208.849 136.311 204.176 137.376 199.578C138.635 194.522 136.355 191.191 132.913 188.288C130.348 186.123 129.007 186.564 126.728 189.419C122.893 194.236 118.702 198.697 113.064 201.433C109.728 203.051 107.626 202.064 108.172 198.555C109.146 192.416 105.489 189.704 101.441 186.659C100.872 186.135 100.13 185.839 99.3574 185.828C98.5844 185.817 97.8345 186.092 97.2507 186.599C96.1323 187.407 95.2043 188.451 94.5321 189.657C89.4036 197.472 85.8897 206.073 82.2571 214.638C81.5065 216.464 81.1272 218.423 81.1415 220.398C81.1558 222.373 81.5633 224.326 82.3402 226.141C82.9812 227.795 83.5985 229.532 85.9016 229.71C88.2047 229.888 89.1187 228.247 89.653 226.57C91.1369 221.906 94.1997 217.957 95.3631 213.115C96.1229 209.951 97.0845 209.82 99.53 212.509C102.569 215.839 106.071 216.41 110.214 215.364C114.678 214.222 118.382 211.509 122.359 209.439ZM127.012 81.9272C125.613 86.269 125.1 90.8487 125.505 95.3933C125.623 97.4513 126.098 99.545 128.437 99.9852C129.431 100.146 130.45 99.9793 131.341 99.5094C132.231 99.0395 132.946 98.2921 133.376 97.38C135.445 93.7806 136.815 89.8207 137.412 85.7101C137.958 81.035 138.468 76.3361 139.454 71.7442C140.439 67.1524 138.884 63.6312 135.429 60.7762C132.723 58.5398 131.12 58.8729 128.686 61.7398C125.126 66.2324 120.841 70.0964 116.008 73.1718C111.627 75.7532 110.44 75.0989 110.226 70.1978C110.226 69.1985 110.309 68.1993 110.226 67.2238C109.846 63.5123 105.62 58.6826 102.082 58.1591C98.2361 57.5881 97.0964 60.919 95.6362 63.322C91.0606 71.1835 87.153 79.4167 83.9547 87.9346C82.542 91.5034 83.0287 94.8937 84.2515 98.3197C84.94 100.223 85.8422 102.126 88.2284 102.115C90.389 102.115 91.1369 100.235 91.7305 98.5457C93.3806 93.9182 96.0992 89.7665 97.4525 84.9844C98.3191 81.9153 98.9721 81.8201 101.014 84.1993C104.48 88.1606 108.481 88.7554 113.289 87.09C117.406 85.7561 121.231 83.6442 124.555 80.8684C125.564 80.7495 126.585 80.6781 127.012 81.9272ZM228.513 71.2209L229.036 71.7561C229.026 73.1334 228.697 74.4896 228.074 75.7175C226.424 80.345 224.287 84.8179 223.326 89.6714C222.257 94.8104 224.441 100.199 228.312 101.9C230.033 102.65 231.873 102.888 233.167 101.27C234.022 100.235 234.972 98.8907 233.689 97.5584C230.698 94.5249 231.992 91.432 233.357 88.3034C235.731 82.8788 238.189 77.49 240.48 72.006C241.228 70.174 242.059 69.0201 244.16 68.8059C246.701 68.5442 249.158 67.7234 251.758 67.771C253.923 67.9365 256.099 67.6447 258.145 66.9145C261.077 65.6654 261.706 64.0833 259.818 61.5613C257.682 58.6944 254.856 56.922 251.152 57.7071C248.778 58.1948 246.333 57.8855 244.148 58.5993C240.527 59.7889 236.918 58.3494 233.298 59.2178C226.08 60.9665 218.767 62.7867 211.585 58.8015C210.667 58.4395 209.664 58.3567 208.7 58.5636C201.089 59.4893 193.568 61.0491 186.215 63.2268C181.93 64.5829 180.992 65.7487 182.654 70.1026C184.447 74.7539 182.998 78.4297 181.206 82.4149C180.553 83.8424 179.615 85.1391 179.057 86.6023C175.816 94.9294 180.481 102.257 189.361 101.912C194.642 101.886 199.902 101.263 205.044 100.057C206.579 99.7015 208.041 99.0816 209.365 98.2245C210.801 97.2015 212.404 96.1309 212.19 94.0372C211.929 91.5629 209.887 90.4684 208.035 89.481C206.906 89.1169 205.683 89.189 204.604 89.6833C200.829 91.1227 196.781 90.3613 192.947 91.4082C191.664 91.7532 189.587 92.348 188.732 90.5874C188.079 89.2432 189.516 88.0655 190.038 86.8283C190.869 84.8655 192.258 84.5086 194.347 84.9249C196.764 85.4374 199.266 85.391 201.663 84.789C204.059 84.1871 206.287 83.0456 208.178 81.4513C208.949 80.8446 209.745 80.2023 209.365 79.0127C208.747 77.1807 203.821 73.9569 201.874 74.397C199.765 74.9179 197.574 75.0149 195.428 74.6825C194.241 74.4684 194.098 73.2907 194.953 72.458C195.56 71.9799 196.266 71.6427 197.018 71.4707C202.42 69.6982 208.213 69.4365 213.449 67.0573C214.636 66.5577 215.229 66.8313 215.728 67.9733C217.2 71.3755 220.144 71.435 223.219 71.2446C224.964 71.1257 226.745 71.1971 228.513 71.1733V71.2209ZM134.646 324.604C137.246 324.604 138.433 324.723 139.608 324.604C143.015 324.211 145.057 325.389 146.114 328.922C146.458 329.713 146.622 330.571 146.593 331.433C146.564 332.295 146.344 333.14 145.947 333.906C144.449 336.691 143.102 339.554 141.911 342.483C138.741 350.299 143.407 357.948 151.669 357.71C157.179 357.751 162.673 357.116 168.028 355.819C169.365 355.5 170.657 355.016 171.875 354.379C173.584 353.404 175.329 352.262 175.329 349.942C175.329 347.622 172.955 346.944 171.637 345.624C170.581 344.565 169.002 345.065 167.684 345.457C163.695 346.647 159.516 346.647 155.445 347.265C154.257 347.456 152.512 347.979 151.788 346.373C151.064 344.767 152.477 343.828 153.07 342.614C153.913 340.889 155.136 340.794 156.94 341.02C161.47 341.743 166.104 340.714 169.904 338.141C173.359 335.762 173.299 335.762 170.07 332.776C167.874 330.742 165.797 329.564 162.746 330.552C161.566 330.74 160.364 330.74 159.184 330.552C158.341 330.552 157.593 330.242 157.558 329.279C157.572 328.884 157.713 328.505 157.959 328.197C158.204 327.889 158.542 327.667 158.923 327.566C159.681 327.362 160.45 327.203 161.226 327.09C165.595 326.007 170.011 325.056 174.285 323.759C176.79 323.01 179.116 321.582 178.855 318.382C178.713 316.574 174.783 314.183 172.314 314.219C171.517 314.278 170.724 314.385 169.94 314.54C163.107 315.389 156.357 316.805 149.758 318.775C147.289 319.536 145.294 319.715 144.179 316.8C143.264 314.421 141.294 314.016 138.943 313.862C130.811 313.303 123.427 316.086 116.067 318.858C113.971 319.441 111.988 320.374 110.202 321.618C108.94 322.586 107.964 323.88 107.378 325.362C106.793 326.843 106.62 328.456 106.878 330.028C107.294 333.145 110.084 333.692 112.375 334.787C113.676 335.262 115.051 335.499 116.435 335.488C119.384 335.681 122.286 336.323 125.042 337.392C128.603 338.843 129.019 340.294 126.086 342.638C122.325 345.545 117.925 347.51 113.253 348.372C112.149 348.61 110.559 348.158 110.167 349.561C109.552 351.671 109.631 353.924 110.392 355.985C111.176 358.043 113.099 358.186 114.892 357.936C122.81 356.83 129.731 353.773 134.349 346.909C135.456 345.492 136.075 343.753 136.114 341.954C136.152 340.155 135.608 338.391 134.563 336.928C132.188 333.359 130.42 329.231 125.707 327.946C125.279 327.828 125.018 327.102 124.674 326.65C125.137 326.4 125.588 326.103 126.063 325.888C128.762 324.711 131.717 324.248 134.646 324.544V324.604ZM255.212 274.225C255.075 276 255.099 277.783 255.284 279.554C255.592 281.267 256.708 282.813 257.064 284.526C258.726 292.592 265.944 294.341 272.735 291.271C282.137 287.025 288.452 279.732 292.916 270.62C295.837 264.672 294.911 258.724 292.477 252.978C291.883 251.563 290.756 250.064 288.975 250.23C287.194 250.397 287.17 251.943 286.838 253.347C286.387 255.251 285.829 257.106 285.52 259.069C284.511 265.303 281.959 270.822 276.842 274.748C273.945 276.973 270.455 280.601 267.131 278.638C264.033 276.806 265.339 272.214 266.336 268.729C266.806 267.003 266.867 265.191 266.515 263.438C266.163 261.684 265.406 260.038 264.306 258.629C262.352 255.91 259.999 253.504 257.325 251.491C256.286 250.607 255.067 249.962 253.752 249.6C252.437 249.238 251.06 249.169 249.716 249.398C242.512 250.394 235.438 252.177 228.62 254.715C220.168 257.784 220.132 257.856 225.593 265.422C226.626 266.849 226.222 267.92 225.7 269.228C225.178 270.537 224.513 270.501 223.112 270.501C218.173 270.501 215.989 274.07 218.363 278.364C219.812 280.898 220.678 282.956 219.812 285.99C218.874 289.273 221.949 293.532 224.869 293.365C228.193 293.187 228.715 290.558 228.62 287.774C228.602 287.576 228.602 287.377 228.62 287.179C229.499 282.326 230.318 281.529 235.423 280.589C239.091 279.911 242.747 279.209 246.416 278.519C249.146 277.996 250.749 276.14 250.369 273.582C249.989 271.025 248.173 269.573 245.181 269.93C242.825 270.081 240.483 270.411 238.177 270.917C237.263 271.179 236.182 271.191 235.684 270.037C234.924 268.265 237.738 261.591 239.661 260.961C244.387 259.611 249.227 258.703 254.12 258.248C256.4 257.951 257.349 258.807 256.791 261.329C255.901 265.541 254.904 269.787 255.212 274.165V274.225ZM226.068 198.781H227.849C232.372 198.721 232.479 198.9 230.425 203.206C230.259 203.551 229.891 203.825 229.772 204.181C227.979 209.57 225.023 214.638 225.166 220.55C225.296 224.44 226.353 227.89 230.306 229.841C231.071 230.293 231.969 230.466 232.847 230.332C233.725 230.197 234.53 229.763 235.126 229.103C235.424 228.832 235.66 228.499 235.816 228.127C235.972 227.755 236.046 227.353 236.031 226.95C236.016 226.547 235.914 226.151 235.731 225.792C235.548 225.432 235.289 225.117 234.972 224.868C233.12 223.251 233.44 221.561 234.069 219.527C236.313 212.33 240.254 205.883 242.795 198.828C243.543 196.746 245.169 196.449 247.021 196.342C251.14 195.985 255.26 195.64 259.332 195.045C263.095 194.486 263.724 192.345 261.54 189.252C258.287 184.625 253.645 185.35 249.205 186.004C240.895 187.194 232.455 187.277 224.216 189.002C222.732 189.312 220.987 189.442 219.835 187.955C218.007 185.576 215.395 185.576 212.831 185.719C203.465 186.373 194.858 189.621 186.548 193.796C185.744 194.174 185.051 194.754 184.537 195.479C184.024 196.205 183.706 197.051 183.616 197.936C182.725 203.717 184.15 205.787 189.955 207.143C193.766 208.036 197.778 207.893 201.482 209.416C205.412 211.045 205.732 212.413 202.218 214.935C198.614 217.714 194.359 219.52 189.86 220.181C185.978 220.657 185.776 220.967 186.025 224.999C186.263 228.782 187.011 229.817 190.537 229.651C199.06 229.246 206.112 225.915 210.801 218.421C211.658 217.197 212.145 215.752 212.204 214.259C212.263 212.765 211.892 211.286 211.134 209.999C208.842 205.99 207.097 201.362 201.933 199.946C200.485 199.554 200.426 198.947 201.779 198.305C206.759 195.96 212.434 195.57 217.687 197.21C220.385 198.147 223.213 198.656 226.068 198.721V198.781ZM145.829 259.973C145.958 257.38 145.11 254.833 143.454 252.836C140.368 248.934 138.967 249.041 136.996 253.538C134.622 258.962 132.485 264.482 130.23 269.942C129.349 272.368 127.932 274.564 126.086 276.366C125.125 277.234 124.282 278.876 122.703 278.079C121.516 277.484 121.967 275.973 121.955 274.843C121.884 271.048 123.214 267.48 123.855 263.804C124.496 260.128 123.558 257.761 120.649 255.679C118.785 254.335 117.242 253.871 115.806 256.297C114.191 259.01 112.375 261.603 110.665 264.244C107.876 268.538 105.668 273.261 101.833 276.794C100.444 278.067 99.1264 280.851 97.3813 279.887C95.9567 279.102 96.9183 276.175 97.3813 274.332C98.7584 269.395 100.432 264.541 101.857 259.616C102.723 256.642 100.337 251.908 97.5475 251.289C94.3422 250.528 93.808 253.668 92.6327 255.477C91.4508 257.501 90.5294 259.668 89.8904 261.924C88.169 266.968 87.5161 272.297 86.0441 277.389C84.572 282.48 86.8632 285.906 89.5224 289.285C92.3715 292.854 95.8855 293.413 100.147 291.497C102.284 290.534 104.219 289.118 106.285 287.929C109.051 286.382 110.82 281.981 113.526 282.385C116.637 282.825 117.029 287.572 119.106 290.129C122.121 293.853 124.804 294.329 128.603 291.236C131.4 289.025 133.746 286.294 135.512 283.194C139.276 276.449 141.923 269.204 145.116 262.21C145.428 261.469 145.666 260.7 145.829 259.914V259.973ZM205.993 157.49C206.053 158.335 206.112 159.524 206.254 160.702C206.504 162.819 207.525 164.628 209.59 165.163C211.858 165.746 213.152 164.033 214.256 162.296C214.535 161.774 214.758 161.224 214.921 160.654C215.538 158.846 216.108 158.275 218.138 159.655C223.706 163.395 229.974 165.965 236.562 167.209C240.266 168.006 242.64 166.198 242.973 162.986C243.365 159.108 242.308 157.787 238.224 157.193C233.927 156.55 229.677 155.777 225.937 153.374C225.336 152.889 224.787 152.343 224.299 151.744C224.841 151.233 225.453 150.8 226.115 150.46C229.292 149.407 232.374 148.086 235.328 146.51C236.766 145.829 237.948 144.703 238.701 143.298C239.453 141.894 239.735 140.284 239.506 138.706C239.207 134.323 237.403 130.179 234.402 126.977C228.122 120.41 225.736 119.138 219.159 127.596C217.188 130.129 215.835 133.544 211.62 133.401C210.766 133.401 210.172 134.709 209.982 135.673C208.534 142.727 206.444 149.77 205.993 157.43V157.49ZM165.785 266.445C164.958 266.499 164.13 266.499 163.304 266.445C162.116 266.29 160.169 267.135 160.086 265.029C160.086 263.839 161.44 263.138 162.662 263.078C166.829 262.864 170.474 260.532 174.676 260.306C175.865 260.232 177.026 259.916 178.089 259.378C179.152 258.84 180.095 258.092 180.861 257.178C181.704 256.202 182.773 254.656 181.443 253.49C179.579 251.836 177.727 249.731 174.854 250.112C166.873 251.087 158.983 252.715 151.266 254.977C147.467 256.167 146.517 257.558 148.001 261.472C149.818 266.397 148.642 270.656 146.22 274.76C145.165 276.427 144.365 278.244 143.846 280.149C142.445 285.966 145.2 291.949 150.269 292.889C158.294 294.376 166.236 293.056 174.012 290.617C174.909 290.215 175.716 289.637 176.386 288.916C178.357 287.167 178.582 285.204 176.564 283.384C174.854 281.838 173.323 280.553 170.367 281.338C165.803 282.559 161.094 283.151 156.371 283.099C153.996 283.099 153.913 282.076 154.756 280.125C155.116 278.993 155.886 278.036 156.914 277.444C157.942 276.852 159.154 276.667 160.312 276.925C162.557 277.266 164.848 277.156 167.051 276.603C169.254 276.049 171.325 275.063 173.145 273.701C174.997 272.286 175.828 271.143 173.608 269.074C171.388 267.004 168.847 265.719 165.785 266.445ZM153.996 229.425C161.036 229.77 167.589 227.628 173.786 224.666C180.197 221.609 181.455 217.529 179.496 210.593C178.347 207.25 176.934 204.004 175.27 200.886C174.083 198.233 172.896 195.783 173.062 192.559C173.13 191.344 172.852 190.134 172.261 189.07C171.671 188.007 170.791 187.133 169.725 186.55C168.658 185.967 167.449 185.699 166.237 185.777C165.024 185.856 163.859 186.277 162.876 186.992C158.437 190.19 154.217 193.684 150.245 197.448C144.938 202.278 140.878 207.869 139.264 215.197C137.744 222.061 143.407 228.413 148.761 229.329C150.5 229.507 152.252 229.538 153.996 229.425ZM57.6 293.662C64.4597 293.193 71.1166 291.132 77.0455 287.643C81.9128 284.848 83.1237 280.946 81.6635 275.604C80.3129 271.278 78.5436 267.095 76.3807 263.114C75.6921 261.722 74.1726 260.128 74.8374 258.796C77.0574 254.323 73.0923 252.848 71.1691 250.468C69.6139 248.553 67.8926 248.327 65.6014 250.088C58.5616 255.465 51.593 260.794 46.0847 267.932C44.3168 270.065 42.953 272.504 42.0603 275.129C41.2649 277.722 40.3152 280.291 40.8732 283.182C42.2859 289.963 46.8089 293.353 57.6238 293.627L57.6 293.662ZM156.715 85.2104C162.924 85.6268 167.399 84.461 171.246 81.2729C172.682 80.0833 172.919 79.0364 171.447 78.0015C168.729 76.0982 166.497 72.577 162.306 74.8372C161.919 74.9543 161.506 74.9543 161.119 74.8372C159.932 74.6587 157.985 75.5034 157.665 73.6476C157.344 71.7918 159.113 71.6967 160.454 71.3755C165.203 70.1859 169.952 69.1033 174.7 67.8067C177.074 67.1167 179.318 65.6179 178.808 62.8104C178.368 60.3242 175.899 59.3606 173.667 58.5874C173.089 58.4423 172.486 58.422 171.898 58.5279C163.896 59.4685 155.989 61.0923 148.262 63.3814C144.701 64.4164 143.514 66.4149 145.14 69.7339C147.514 74.7539 145.876 78.7866 143.609 82.9978C143.051 84.0327 142.528 85.1034 142.077 86.1859C138.516 94.4417 143.597 102.567 152.358 101.9C157.593 101.496 163.042 101.627 168.123 99.9852C169.456 99.667 170.744 99.1834 171.958 98.5457C173.596 97.5227 175.519 96.3926 175.258 94.0372C174.997 91.6818 172.694 90.6706 170.949 89.5881C170.406 89.3561 169.823 89.2365 169.233 89.2365C168.644 89.2365 168.06 89.3561 167.518 89.5881C163.956 91.0632 160.098 90.3019 156.466 91.3249C154.993 91.7413 152.631 92.5145 151.717 90.4089C150.993 88.6602 152.595 87.09 153.593 85.6506C153.761 85.4036 153.979 85.194 154.231 85.0349C154.484 84.8759 154.767 84.7707 155.062 84.7261C155.357 84.6814 155.659 84.6982 155.947 84.7754C156.235 84.8526 156.505 84.9885 156.739 85.1747L156.715 85.2104ZM181.301 284.622C181.301 287.001 181.301 288.607 182.108 290.058C182.386 290.804 182.867 291.457 183.496 291.942C184.126 292.428 184.879 292.727 185.669 292.806C186.465 292.855 187.256 292.659 187.937 292.245C188.619 291.83 189.157 291.216 189.48 290.486C189.684 290.147 189.844 289.783 189.955 289.404C190.75 285.645 192.032 286.43 194.703 288.214C199.939 291.751 205.912 294.042 212.166 294.912C216.298 295.483 217.829 294.293 218.233 291.2C218.731 287.346 217.853 286.346 213.722 285.252C210.16 284.312 206.349 283.932 203.037 282.112C201.85 281.481 200.224 281.077 200.366 279.399C200.485 278.007 202.111 278.031 203.12 277.591C204.913 276.818 206.895 276.401 208.664 275.616C214.79 272.69 216.357 268.479 213.983 262.079C212.596 258.166 210.175 254.704 206.979 252.062C202.978 248.779 200.972 248.732 197.303 252.3C196.339 253.288 195.439 254.338 194.609 255.441C192.709 257.82 191.581 261.139 187.557 260.806C186.37 260.711 186.215 261.996 185.931 262.923C183.902 270.044 182.355 277.293 181.301 284.622ZM133.72 165.329C141.068 165.936 149.283 163.319 154.602 160.702C161.309 157.407 162.651 153.564 160.537 146.225C159.35 142.18 157.154 138.683 155.456 134.923C154.661 133.151 153.806 131.581 154.459 129.332C155.646 125.49 152.085 123.825 149.877 121.85C147.942 120.077 145.829 121.683 144.024 122.944C138.437 126.971 133.21 131.477 128.401 136.41C124.066 140.507 121.252 145.962 120.424 151.875C120.205 153.43 120.295 155.012 120.689 156.531C121.084 158.051 121.774 159.477 122.721 160.728C123.668 161.978 124.852 163.029 126.206 163.819C127.56 164.608 129.057 165.122 130.609 165.329C131.645 165.401 132.684 165.401 133.72 165.329ZM27.221 249.66C19.0178 249.66 14.6254 252.443 11.7881 259.89C11.1079 261.908 9.91771 263.716 8.33346 265.136C5.95917 267.277 4.09534 270.477 4.9026 273.594C6.13737 278.159 6.13737 282.971 4.9026 287.536C4.27341 289.915 6.58835 293.151 8.54714 293.627C9.90183 293.945 11.3265 293.741 12.5383 293.056C13.75 292.371 14.6603 291.254 15.0883 289.927C16.0826 287.543 16.529 284.965 16.3942 282.385C16.3028 282.001 16.301 281.601 16.3889 281.216C16.4769 280.83 16.6523 280.471 16.9015 280.165C17.1507 279.859 17.4671 279.614 17.8258 279.451C18.1846 279.287 18.5763 279.208 18.9703 279.221C20.523 278.989 22.0609 278.667 23.5765 278.257C28.515 277.068 33.4891 276.033 37.8815 273.059C41.2649 270.763 42.832 267.599 42.2028 263.994C40.4814 253.93 37.5729 249.053 27.221 249.66ZM238.165 334.12C236.337 334.513 235.007 334.846 233.654 335.048C232.74 335.191 232.241 334.656 232.099 333.728C231.647 330.718 234.793 325.52 237.738 324.627C239.437 324.141 241.161 323.744 242.902 323.438C246.576 322.774 250.294 322.376 254.025 322.248C257.159 322.117 257.955 319.786 255.925 317.359C253.23 314.112 249.989 312.601 245.537 313.398C238.777 314.645 232.118 316.394 225.617 318.632C216.63 321.725 216.571 321.701 222.138 329.612C223.148 331.051 222.685 332.134 222.138 333.419C221.592 334.703 221.034 334.703 219.586 334.668C214.624 334.572 212.463 338.153 214.98 342.424C215.747 343.539 216.264 344.808 216.493 346.143C216.723 347.479 216.66 348.848 216.31 350.156C215.538 353.106 218.387 356.961 220.963 357.484C223.337 357.948 224.216 356.663 225.083 351.738C225.985 346.611 226.756 345.79 232.015 344.743C235.66 344.006 239.328 343.328 242.985 342.65C245.739 342.126 247.377 340.009 247.092 337.701C246.807 335.393 244.718 333.775 241.809 334.132C240.596 334.214 239.378 334.214 238.165 334.132V334.12ZM178.226 164.259C180.519 164.509 182.834 164.052 184.862 162.95C194.157 158.477 200.295 150.888 204.557 141.871C207.157 136.434 206.219 130.712 203.845 125.276C203.192 123.765 202.147 122.457 200.354 122.552C198.562 122.647 198.396 124.134 197.98 125.526C197.387 127.599 196.907 129.704 196.544 131.83C196.161 134.883 195.167 137.826 193.62 140.484C192.074 143.141 190.007 145.458 187.545 147.295C184.779 149.341 181.396 152.589 178.167 150.471C175.258 148.568 176.54 144.393 177.395 141.062C178.033 138.96 178.07 136.721 177.501 134.599C176.932 132.477 175.781 130.557 174.178 129.059C173.37 128.25 172.753 126.81 171.4 127.346C170.637 127.554 169.947 127.972 169.408 128.552C168.869 129.132 168.502 129.851 168.349 130.629C167.162 137.826 165.239 145.118 167.067 152.303C169.204 160.738 170.248 164.628 178.226 164.259ZM320.019 291.295C321.977 291.295 323.96 291.367 325.954 291.295C327.616 291.212 329.231 290.653 329.516 288.785C329.801 286.918 329.896 284.574 327.64 283.634C324.435 282.314 321.491 280.208 317.621 280.743C314.686 280.954 311.766 281.323 308.871 281.85C305.998 282.552 305.215 281.624 305.809 278.721C306.159 277.186 306.636 275.682 307.233 274.225C309.311 268.693 311.364 263.149 313.584 257.677C314.475 255.5 314.142 253.633 312.397 252.36C310.236 250.671 307.52 249.855 304.788 250.076C304.396 250.076 303.897 250.837 303.731 251.337C300.538 260.854 296.869 270.239 294.388 279.887C291.907 289.535 298.876 295.637 308.432 292.77C312.185 291.631 316.101 291.133 320.019 291.295ZM93.4518 160.107C93.3331 163.545 94.9832 165.853 97.5 166.495C100.551 167.257 101.714 165.115 102.89 162.998C109.395 151.304 115.177 139.123 125.042 129.689C125.606 129.28 126.006 128.683 126.169 128.004C126.332 127.326 126.248 126.611 125.932 125.99C123.558 121.231 119.427 120.399 115.521 124.039C114.96 124.591 114.443 125.188 113.978 125.823C112.066 128.333 110.191 130.867 108.267 133.353C107.674 134.115 107.08 135.376 106.131 135.197C104.872 134.971 104.848 133.448 104.492 132.402C104.29 131.625 104.186 130.825 104.184 130.022C104.096 128.335 103.498 126.715 102.47 125.377C101.441 124.038 100.031 123.044 98.426 122.528C95.6124 121.422 93.4993 122.361 93.9148 125.371C94.7933 131.545 94.3778 138.183 97.9867 143.631C99.7793 146.32 99.2332 148.033 97.8324 150.483C95.9567 153.707 93.7249 156.836 93.4518 160.107ZM203.975 355.474C205.744 355.474 207.537 355.474 209.294 355.474C211.051 355.474 213.045 355.033 213.365 352.868C213.686 350.703 213.532 348.526 210.991 347.408C207.928 346.064 205.055 344.589 201.435 344.874C198.293 345.009 195.168 345.407 192.092 346.064C190.05 346.575 189.076 345.41 189.539 343.387C190.018 341.476 190.617 339.597 191.332 337.761C193.326 332.407 195.487 327.054 197.41 321.725C198.716 318.073 197.256 316.051 192.662 314.587C188.851 313.398 188.554 313.564 187.058 318.061C185.871 321.808 184.565 325.543 183.259 329.267C181.55 334.097 179.52 338.784 178.511 343.863C176.528 353.511 182.381 359.328 191.795 356.949C195.728 355.778 199.829 355.279 203.928 355.474H203.975ZM227.03 398.644C226.495 392.28 226.792 385.297 224.358 378.671C224.095 378.15 223.777 377.659 223.409 377.207C223.017 377.588 222.34 377.921 222.222 378.397C221.497 381.883 219.705 385.071 219.456 388.675C218.957 395.991 219.171 403.307 219.361 410.623C219.372 411.607 219.595 412.576 220.013 413.466C220.726 414.906 221.782 416.274 223.575 416C224.367 415.881 225.098 415.504 225.655 414.928C226.213 414.352 226.566 413.609 226.662 412.812C226.86 411.633 226.956 410.439 226.946 409.243C227.006 405.888 226.982 402.522 226.982 398.644H227.03ZM122.311 40.0298C122.406 40.577 121.789 41.8142 123.13 42.1472C124.116 42.3971 124.187 41.2193 124.721 40.7435C131.061 35.2595 133.696 27.5033 137.21 20.2944C138.495 17.6451 139.629 14.9245 140.605 12.1458C141.045 11.1314 141.099 9.99106 140.758 8.93936C140.417 7.88767 139.704 6.99722 138.753 6.4357C136.842 5.37696 134.883 6.24537 133.886 8.37474C129.149 18.4863 123.938 28.4313 122.311 40.0298ZM71.9645 36.3301C71.5987 34.7221 71.151 33.1339 70.6231 31.5718C67.9084 24.4342 65.1384 17.2967 62.313 10.1591C61.1259 7.23273 59.9387 4.3658 58.5497 1.52268C58.4553 1.24042 58.3052 0.980062 58.1085 0.756968C57.9118 0.533875 57.6724 0.352606 57.4045 0.223925C57.1366 0.0952432 56.8456 0.0217497 56.5489 0.00781038C56.2521 -0.00612898 55.9556 0.0397815 55.6769 0.142787C54.4897 0.523456 54.4185 1.5703 54.3947 2.52197C54.2802 4.48942 54.5628 6.4598 55.2257 8.31527C57.0302 13.0736 58.6328 17.9391 60.4136 22.7331C62.7878 29.1688 64.9604 35.7472 69.5665 41.0885C69.9107 41.493 70.2788 41.8617 70.6349 42.2781C70.8842 41.7428 71.1216 41.2075 71.3947 40.684C72.0079 39.3205 72.2062 37.806 71.9645 36.3301ZM271.405 354.605C271.073 354.777 270.809 355.056 270.656 355.397C270.503 355.739 270.47 356.122 270.562 356.485C271.103 359.403 272.476 362.101 274.515 364.253C281.638 372.211 289.675 379.099 297.214 386.569C298.329 387.688 299.683 389.936 301.511 388.247C303.339 386.558 301.95 384.607 300.882 382.917C300.547 382.428 300.174 381.967 299.766 381.538C292.96 374.17 285.9 367.032 278.587 360.125C276.403 358.174 273.447 357.258 271.369 354.605H271.405ZM2.58772 51.1286C0.605185 51.2833 -0.213963 52.4491 0.0472089 54.0669C0.202348 54.7345 0.504638 55.3587 0.931917 55.8939C1.35919 56.4291 1.90064 56.8617 2.51649 57.1599C10.8859 62.5844 18.9466 68.5443 28.4794 71.8751C29.4884 72.232 30.6043 73.6595 31.4947 72.6364C32.3851 71.6134 31.186 70.4952 30.3788 69.6625C29.4766 68.6215 28.4963 67.6512 27.4466 66.7599C20.1575 61.1212 12.168 56.5532 4.34467 51.7234C3.78999 51.443 3.19847 51.2428 2.58772 51.1286ZM43.2593 50.9978C44.1971 50.9383 45.3249 51.2 45.8117 50.1175C46.4527 48.69 45.2774 48.1309 44.3752 47.3695C42.3213 45.8975 40.1214 44.6418 37.8103 43.6223C37.4038 43.3492 36.9069 43.2461 36.4257 43.335C35.9444 43.4239 35.5168 43.6978 35.2342 44.0982C34.8222 44.5189 34.5807 45.078 34.5565 45.667C34.5324 46.256 34.7273 46.8331 35.1036 47.2863C36.04 48.5464 37.2779 49.5502 38.7032 50.2051C40.1285 50.8599 41.6953 51.1448 43.2593 51.0335V50.9978ZM297.071 340.199V340.318H299.445C300.573 340.318 301.903 340.544 302.2 338.95C302.496 337.356 301.38 336.488 300.075 335.929C298.617 335.355 297.021 335.231 295.492 335.572C293.64 335.905 290.803 336.107 290.744 338.094C290.684 340.08 293.486 340.08 295.338 340.199C295.908 340.199 296.454 340.199 297.071 340.199ZM247.14 382.073C247.136 381.19 247.049 380.31 246.879 379.444C246.463 377.862 246.879 376.113 245.834 374.685C244.647 376.149 244.647 377.921 244.647 379.67C244.638 380.648 244.774 381.622 245.05 382.561C245.3 383.31 245.05 384.845 246.546 384.404C247.342 384.214 247.152 383.108 247.14 382.073ZM105.383 27.3963C105.264 27.0156 105.193 25.7785 104.789 25.6595C103.483 25.2669 103.353 26.5041 103.068 27.4201C102.796 27.9458 102.585 28.5004 102.439 29.0736C102.32 31.0245 100.147 32.6424 101.56 34.8431C103.317 33.4751 104.089 31.429 105.122 29.5494C105.315 28.8488 105.403 28.123 105.383 27.3963Z" fill="#FDFDFD"/>
<path d="M134.646 324.544C131.766 324.218 128.85 324.627 126.17 325.734C125.695 325.948 125.244 326.245 124.781 326.495C125.125 326.947 125.387 327.685 125.814 327.792C130.563 329.077 132.296 333.169 134.67 336.773C135.716 338.237 136.26 340 136.221 341.799C136.183 343.598 135.564 345.337 134.456 346.754C129.838 353.618 122.917 356.675 114.999 357.781C113.207 358.031 111.283 357.888 110.5 355.83C109.739 353.769 109.66 351.517 110.274 349.407C110.666 348.039 112.257 348.491 113.361 348.217C118.024 347.384 122.423 345.451 126.194 342.578C129.126 340.199 128.711 338.784 125.149 337.332C122.394 336.263 119.491 335.621 116.542 335.429C115.158 335.44 113.783 335.202 112.482 334.727C110.191 333.68 107.401 333.133 106.986 329.969C106.727 328.397 106.9 326.784 107.486 325.302C108.071 323.821 109.047 322.527 110.31 321.558C112.096 320.314 114.079 319.381 116.174 318.799C123.535 316.027 130.919 313.243 139.051 313.802C141.425 313.957 143.372 314.349 144.286 316.741C145.402 319.655 147.396 319.477 149.866 318.715C156.464 316.746 163.214 315.329 170.047 314.48C170.831 314.326 171.624 314.219 172.421 314.159C174.891 314.159 178.82 316.538 178.963 318.323C179.224 321.523 176.897 322.95 174.392 323.7C170.083 324.996 165.666 325.948 161.333 327.03C160.557 327.143 159.788 327.302 159.03 327.506C158.65 327.608 158.312 327.829 158.066 328.137C157.82 328.446 157.68 328.825 157.665 329.219C157.665 330.183 158.449 330.48 159.292 330.492C160.471 330.68 161.673 330.68 162.853 330.492C165.904 329.505 167.981 330.683 170.178 332.717C173.407 335.703 173.466 335.667 170.011 338.082C166.211 340.654 161.577 341.683 157.048 340.961C155.243 340.735 154.021 340.83 153.178 342.555C152.584 343.744 151.231 344.839 151.896 346.314C152.56 347.789 154.353 347.396 155.552 347.206C159.624 346.575 163.803 346.611 167.791 345.398C169.109 345.005 170.688 344.506 171.745 345.564C173.074 346.885 175.437 347.456 175.437 349.883C175.437 352.309 173.692 353.344 171.982 354.32C170.764 354.957 169.472 355.44 168.136 355.759C162.729 357.061 157.183 357.689 151.623 357.627C143.313 357.817 138.695 350.216 141.864 342.4C143.055 339.47 144.402 336.607 145.901 333.823C146.297 333.057 146.517 332.212 146.546 331.35C146.575 330.487 146.411 329.629 146.067 328.839C145.01 325.27 142.968 324.08 139.561 324.52C138.433 324.663 137.246 324.544 134.646 324.544Z" fill="#D05C74"/>
<path d="M228.514 71.1732C226.745 71.1732 224.952 71.1732 223.195 71.2446C220.121 71.4349 217.176 71.3755 215.704 67.9732C215.206 66.7836 214.517 66.5576 213.425 67.0573C208.19 69.4364 202.396 69.6981 196.995 71.4706C196.242 71.6427 195.537 71.9799 194.929 72.458C194.075 73.2907 194.17 74.4684 195.404 74.6825C197.551 75.0149 199.742 74.9179 201.85 74.397C203.797 73.9569 208.724 77.1807 209.341 79.0126C209.757 80.2022 208.961 80.8446 208.154 81.4513C206.268 83.0403 204.046 84.1788 201.656 84.7806C199.266 85.3824 196.771 85.4317 194.359 84.9249C192.27 84.5085 190.881 84.8654 190.05 86.8282C189.528 88.0178 188.091 89.2074 188.744 90.5874C189.599 92.348 191.677 91.7769 192.959 91.4081C196.793 90.3613 200.841 91.1227 204.616 89.6833C205.695 89.189 206.919 89.1168 208.047 89.481C209.899 90.4327 211.941 91.5628 212.202 94.0372C212.416 96.1308 210.813 97.2015 209.377 98.2245C208.053 99.0816 206.591 99.7015 205.056 100.056C199.882 101.254 194.589 101.861 189.278 101.865C180.399 102.21 175.733 94.8937 178.974 86.5546C179.532 85.0914 180.47 83.7948 181.123 82.3673C182.915 78.4297 184.364 74.7063 182.571 70.055C180.885 65.7011 181.823 64.5353 186.133 63.1792C193.481 61.0021 200.998 59.4423 208.605 58.516C209.569 58.3091 210.573 58.3919 211.49 58.7539C218.672 62.739 225.985 60.919 233.203 59.1703C236.764 58.3019 240.433 59.7174 244.053 58.5516C246.238 57.8379 248.719 58.1472 251.058 57.6595C254.761 56.8743 257.587 58.6468 259.724 61.5138C261.611 64.0357 260.982 65.6178 258.05 66.8669C256.004 67.5971 253.828 67.8889 251.663 67.7234C249.063 67.7234 246.606 68.4966 244.065 68.7584C241.964 68.9725 241.133 70.1264 240.385 71.9584C238.153 77.4424 235.637 82.8312 233.262 88.2557C231.897 91.3844 230.603 94.4773 233.595 97.5107C234.877 98.8074 233.927 100.187 233.072 101.222C231.731 102.84 229.938 102.602 228.217 101.853C224.347 100.152 222.162 94.7152 223.231 89.6238C224.24 84.7702 226.377 80.2974 227.979 75.6699C228.602 74.4419 228.931 73.0858 228.941 71.7085C229.357 71.3992 229.843 71.09 229.143 70.626C229.155 70.5665 228.787 70.9829 228.514 71.1732Z" fill="#D05C74"/>
<path d="M255.213 274.165C254.928 269.787 255.901 265.541 256.839 261.317C257.397 258.796 256.447 257.939 254.168 258.236C249.275 258.691 244.435 259.599 239.709 260.949C237.786 261.579 234.96 268.253 235.732 270.025C236.23 271.215 237.311 271.215 238.225 270.906C240.531 270.4 242.873 270.069 245.229 269.918C248.22 269.561 250.049 271.108 250.417 273.57C250.785 276.033 249.23 277.984 246.464 278.507C242.795 279.197 239.139 279.899 235.471 280.577C230.366 281.517 229.535 282.314 228.668 287.167C228.65 287.365 228.65 287.564 228.668 287.762C228.763 290.546 228.241 293.175 224.917 293.353C221.996 293.52 218.922 289.261 219.86 285.978C220.726 282.944 219.86 280.886 218.411 278.352C216.037 274.106 218.209 270.501 223.16 270.489C224.584 270.489 225.237 270.489 225.748 269.216C226.258 267.943 226.674 266.837 225.641 265.41C220.18 257.796 220.216 257.725 228.668 254.703C235.486 252.165 242.559 250.382 249.764 249.386C251.108 249.157 252.485 249.226 253.8 249.588C255.115 249.95 256.334 250.595 257.373 251.48C260.047 253.492 262.4 255.898 264.354 258.617C265.454 260.026 266.211 261.672 266.563 263.426C266.915 265.179 266.854 266.991 266.384 268.717C265.387 272.202 264.081 276.794 267.179 278.626C270.503 280.589 273.993 276.961 276.89 274.736C282.007 270.81 284.559 265.291 285.568 259.057C285.877 257.094 286.435 255.239 286.886 253.335C287.218 251.932 287.396 250.373 289.023 250.219C290.649 250.064 291.931 251.551 292.525 252.967C294.958 258.76 295.884 264.648 292.964 270.608C288.5 279.72 282.185 287.013 272.783 291.259C265.992 294.329 258.774 292.58 257.112 284.515C256.756 282.801 255.64 281.255 255.331 279.542C255.128 277.757 255.089 275.957 255.213 274.165Z" fill="#D05C74"/>
<path d="M226.068 198.721C223.21 198.637 220.382 198.107 217.687 197.151C212.434 195.51 206.759 195.901 201.779 198.245C200.426 198.888 200.485 199.494 201.933 199.887C207.098 201.303 208.843 205.93 211.134 209.939C211.892 211.226 212.263 212.706 212.204 214.199C212.146 215.693 211.658 217.138 210.801 218.361C206.053 225.856 199.061 229.187 190.537 229.591C186.975 229.758 186.263 228.723 186.026 224.94C185.776 220.907 186.026 220.598 189.86 220.122C194.359 219.46 198.614 217.654 202.218 214.876C205.78 212.354 205.412 210.986 201.482 209.356C197.778 207.833 193.766 207.976 189.955 207.084C184.15 205.728 182.725 203.658 183.616 197.877C183.706 196.991 184.024 196.145 184.538 195.42C185.052 194.694 185.744 194.114 186.548 193.737C194.858 189.561 203.465 186.314 212.831 185.659C215.396 185.481 218.007 185.529 219.836 187.896C221.023 189.383 222.732 189.252 224.216 188.943C232.455 187.218 240.896 187.158 249.206 185.945C253.646 185.291 258.287 184.565 261.54 189.193C263.724 192.285 263.095 194.427 259.332 194.986C255.26 195.581 251.141 195.926 247.021 196.282C245.169 196.437 243.543 196.687 242.795 198.769C240.255 205.823 236.313 212.271 234.07 219.468C233.44 221.502 233.12 223.191 234.972 224.809C235.289 225.058 235.548 225.373 235.731 225.732C235.914 226.092 236.016 226.487 236.031 226.89C236.046 227.294 235.972 227.695 235.816 228.067C235.66 228.439 235.424 228.773 235.126 229.044C234.53 229.704 233.725 230.138 232.847 230.272C231.969 230.407 231.072 230.233 230.306 229.781C226.341 227.83 225.297 224.381 225.166 220.491C224.976 214.543 227.979 209.511 229.772 204.122C229.891 203.765 230.259 203.491 230.425 203.146C232.479 198.84 232.372 198.662 227.849 198.721H226.068Z" fill="#D05C74"/>
<path d="M145.829 259.914C145.686 260.702 145.468 261.475 145.176 262.222C141.982 269.216 139.335 276.497 135.572 283.206C133.805 286.306 131.46 289.036 128.663 291.248C124.852 294.341 122.169 293.865 119.165 290.141C117.088 287.584 116.696 282.837 113.586 282.397C110.879 282.028 109.11 286.394 106.344 287.941C104.279 289.13 102.344 290.498 100.207 291.509C95.9449 293.425 92.4309 292.877 89.5818 289.297C86.9226 285.954 84.667 282.492 86.1034 277.401C87.5399 272.309 88.2284 266.98 89.9498 261.936C90.5953 259.657 91.5289 257.471 92.7277 255.429C93.9149 253.657 94.4373 250.48 97.6425 251.242C100.432 251.896 102.818 256.63 101.952 259.569C100.527 264.494 98.8534 269.347 97.4763 274.284C96.954 276.128 95.9924 279.042 97.4763 279.839C99.2214 280.803 100.539 278.019 101.928 276.746C105.763 273.178 107.971 268.491 110.76 264.196C112.47 261.555 114.322 258.962 115.901 256.25C117.337 253.871 118.881 254.287 120.744 255.631C123.653 257.713 124.579 260.128 123.95 263.756C123.32 267.384 121.943 271.025 121.943 274.772C121.943 275.902 121.516 277.413 122.691 278.007C124.27 278.804 125.066 277.163 126.075 276.294C127.921 274.493 129.337 272.297 130.218 269.871C132.473 264.41 134.622 258.891 136.984 253.466C138.955 248.97 140.356 248.862 143.443 252.764C145.106 254.763 145.957 257.315 145.829 259.914Z" fill="#D05C74"/>
<path d="M124.555 80.8684C121.24 83.6682 117.419 85.8045 113.301 87.1613C108.493 88.8267 104.492 88.2319 101.026 84.2706C98.9481 81.8914 98.2952 81.9866 97.4642 85.0557C96.1109 89.8141 93.3923 93.9896 91.7422 98.6171C91.1486 100.283 90.4007 102.186 88.2401 102.186C85.8658 102.186 84.9517 100.294 84.2632 98.3911C83.076 94.965 82.5537 91.5866 83.9664 88.0059C87.1532 79.4892 91.0489 71.256 95.6123 63.3933C97.0725 61.0141 98.2121 57.6595 102.058 58.2305C105.62 58.7539 109.822 63.5836 110.202 67.2951C110.297 68.2706 110.202 69.2699 110.202 70.2691C110.416 75.1702 111.603 75.8245 115.984 73.2431C120.829 70.171 125.127 66.3068 128.698 61.8111C131.132 58.9442 132.734 58.6111 135.441 60.8476C138.896 63.7026 140.475 67.1405 139.465 71.8156C138.456 76.4907 137.97 81.1063 137.424 85.7814C136.826 89.8921 135.457 93.852 133.387 97.4513C132.957 98.3634 132.243 99.1108 131.352 99.5807C130.462 100.051 129.442 100.218 128.449 100.056C126.074 99.6163 125.635 97.5226 125.516 95.4646C125.116 90.9192 125.632 86.3395 127.036 81.9985C127.867 81.5346 128.081 80.7137 127.392 80.1903C127.183 79.9886 126.926 79.8429 126.646 79.7664C126.366 79.69 126.071 79.6853 125.789 79.7528C125.506 79.8203 125.245 79.9578 125.03 80.1527C124.814 80.3477 124.651 80.5937 124.555 80.8684Z" fill="#D05C74"/>
<path d="M122.359 209.439C118.359 211.509 114.679 214.198 110.203 215.387C106.048 216.434 102.546 215.863 99.5188 212.532C97.0733 209.844 96.1117 209.975 95.3519 213.139C94.1647 217.981 91.1257 221.93 89.6417 226.593C89.1075 228.271 88.1578 229.877 85.8904 229.734C83.6229 229.591 83.0294 227.854 82.3289 226.165C81.5521 224.35 81.1445 222.397 81.1303 220.422C81.116 218.446 81.4953 216.488 82.2458 214.662C85.8785 206.12 89.3687 197.52 94.521 189.68C95.1931 188.474 96.1211 187.431 97.2395 186.623C97.8233 186.115 98.5732 185.841 99.3461 185.852C100.119 185.863 100.861 186.158 101.43 186.682C105.478 189.68 109.135 192.393 108.161 198.578C107.615 202.088 109.716 203.075 113.052 201.457C118.691 198.721 122.882 194.26 126.716 189.442C128.996 186.587 130.337 186.147 132.901 188.312C136.344 191.215 138.623 194.546 137.365 199.601C136.29 204.183 135.564 208.84 135.193 213.532C134.836 217.362 133.281 220.74 132.07 224.238C131.919 224.604 131.72 224.948 131.477 225.261C130.962 226.109 130.236 226.81 129.371 227.293C128.505 227.777 127.529 228.028 126.538 228.021C124.259 227.819 123.665 225.344 123.38 223.5C122.91 220.557 123.023 217.549 123.713 214.65C124.128 212.937 124.366 211.164 124.686 209.416C124.949 209.286 125.156 209.064 125.265 208.792C125.375 208.52 125.38 208.216 125.28 207.94C124.959 207.155 124.401 207.607 123.95 207.869C123.333 208.274 122.585 208.583 122.359 209.439Z" fill="#D05C74"/>
<path d="M205.993 157.43C206.444 149.769 208.534 142.751 209.994 135.613C210.184 134.65 210.777 133.306 211.632 133.341C215.846 133.484 217.2 130.07 219.171 127.536C225.747 119.078 228.133 120.398 234.413 126.917C237.415 130.12 239.218 134.264 239.518 138.647C239.747 140.224 239.465 141.834 238.712 143.239C237.96 144.644 236.778 145.769 235.339 146.451C232.386 148.027 229.304 149.348 226.127 150.4C225.465 150.741 224.853 151.173 224.311 151.685C224.799 152.283 225.348 152.829 225.949 153.314C229.689 155.694 233.939 156.491 238.236 157.133C242.308 157.728 243.365 159.048 242.985 162.926C242.652 166.138 240.278 167.946 236.574 167.149C229.969 165.912 223.685 163.342 218.102 159.595C216.072 158.156 215.502 158.787 214.885 160.595C214.722 161.164 214.499 161.714 214.22 162.236C213.152 163.973 211.846 165.686 209.555 165.103C207.489 164.568 206.468 162.724 206.219 160.642C206.112 159.465 206.053 158.275 205.993 157.43ZM229.451 137.671C229.087 136.378 228.236 135.278 227.077 134.602C225.985 134.019 225.249 134.745 224.572 135.447C223.492 136.565 222.447 137.707 221.39 138.849C221.081 139.09 220.852 139.419 220.734 139.792C220.615 140.166 220.612 140.567 220.726 140.943C220.948 141.264 221.279 141.492 221.658 141.584C222.036 141.676 222.435 141.625 222.779 141.442C224.592 140.8 226.396 140.114 228.193 139.384C228.858 139.158 229.511 138.671 229.451 137.671Z" fill="#D05C74"/>
<path d="M165.785 266.445C168.847 265.731 171.269 266.849 173.632 269.062C175.994 271.274 175.021 272.274 173.169 273.689C171.349 275.051 169.278 276.037 167.075 276.591C164.872 277.144 162.581 277.254 160.336 276.913C159.178 276.655 157.966 276.84 156.938 277.432C155.91 278.025 155.14 278.981 154.78 280.113C153.996 282.052 153.996 283.099 156.371 283.099C161.091 283.146 165.795 282.55 170.355 281.326C173.311 280.541 174.843 281.826 176.552 283.373C178.57 285.193 178.345 287.155 176.374 288.904C175.704 289.625 174.897 290.203 174 290.605C166.259 293.044 158.317 294.364 150.257 292.877C145.188 291.938 142.433 285.954 143.834 280.137C144.353 278.232 145.153 276.416 146.209 274.748C148.583 270.644 149.77 266.421 147.989 261.46C146.541 257.546 147.455 256.107 151.254 254.965C158.972 252.703 166.861 251.075 174.842 250.1C177.715 249.719 179.591 251.825 181.431 253.478C182.761 254.668 181.692 256.19 180.849 257.166C180.084 258.08 179.14 258.828 178.077 259.366C177.014 259.904 175.853 260.22 174.664 260.294C170.462 260.52 166.817 262.852 162.65 263.066C161.463 263.126 160.027 263.768 160.074 265.017C160.158 267.123 162.069 266.278 163.292 266.433C164.121 266.491 164.954 266.495 165.785 266.445Z" fill="#D05C74"/>
<path d="M153.997 229.424C152.235 229.573 150.464 229.573 148.702 229.424C143.384 228.509 137.721 222.156 139.205 215.292C140.82 207.964 144.88 202.373 150.186 197.543C154.165 193.762 158.393 190.252 162.841 187.039C163.824 186.324 164.989 185.903 166.202 185.825C167.414 185.747 168.623 186.014 169.69 186.597C170.756 187.18 171.636 188.054 172.227 189.118C172.817 190.182 173.095 191.391 173.027 192.607C172.873 195.842 174 198.293 175.235 200.934C176.899 204.052 178.312 207.298 179.461 210.641C181.42 217.552 180.162 221.656 173.751 224.714C167.614 227.628 161.12 229.769 153.997 229.424ZM155.279 219.099C159.804 218.998 164.225 217.723 168.112 215.399C169.56 214.578 170.866 213.686 170.771 211.83C170.57 207.905 167.946 205.062 166.082 201.897C165.607 201.088 164.717 201.707 163.969 201.826C156.989 202.849 153.356 207.952 150.162 213.401C147.788 217.529 148.738 218.98 153.51 219.063L155.279 219.099Z" fill="#D05C74"/>
<path d="M57.6237 293.627C46.8089 293.353 42.2858 289.963 40.9087 283.123C40.3389 280.232 41.2886 277.662 42.0959 275.069C42.9886 272.445 44.3525 270.005 46.1203 267.872C51.6287 260.818 58.5972 255.429 65.637 250.028C67.9282 248.268 69.6495 248.494 71.2047 250.409C73.1279 252.788 77.1404 254.263 74.8729 258.736C74.2081 260.068 75.7277 261.662 76.4163 263.054C78.5792 267.035 80.3485 271.219 81.699 275.545C83.1592 280.886 81.9484 284.788 77.0811 287.584C71.1507 291.083 64.4894 293.152 57.6237 293.627ZM56.0329 283.099C60.1615 282.986 64.2275 282.061 67.9994 280.375C73.6977 277.591 73.9351 276.806 71.0266 270.977C70.5755 270.109 70.1956 269.193 69.7208 268.324C68.0113 265.196 66.0643 264.22 63.0965 265.838C57.6908 268.801 53.4442 273.509 51.047 279.197C50.0023 281.576 50.9757 282.766 53.6705 283.087C54.4572 283.133 55.2458 283.137 56.0329 283.099Z" fill="#D05C74"/>
<path d="M156.739 85.1748C156.506 85.0051 156.243 84.8833 155.963 84.8166C155.683 84.7498 155.393 84.7393 155.109 84.7858C154.825 84.8323 154.553 84.9348 154.31 85.0873C154.066 85.2398 153.854 85.4394 153.688 85.6744C152.691 87.09 151.088 88.6603 151.812 90.4328C152.667 92.4908 155.029 91.7651 156.561 91.3487C160.193 90.3257 164.052 91.087 167.613 89.6119C168.155 89.3799 168.739 89.2603 169.328 89.2603C169.918 89.2603 170.502 89.3799 171.044 89.6119C172.789 90.6945 175.128 91.5272 175.353 94.061C175.579 96.5948 173.691 97.5465 172.053 98.5696C170.839 99.2073 169.551 99.6908 168.218 100.009C163.09 101.651 157.688 101.52 152.453 101.924C143.692 102.59 138.658 94.4655 142.172 86.2097C142.624 85.1272 143.146 84.0565 143.704 83.0216C145.971 78.8105 147.621 74.7777 145.235 69.7577C143.656 66.4387 144.855 64.4402 148.357 63.4053C156.084 61.1161 163.991 59.4923 171.994 58.5517C172.581 58.4459 173.184 58.4661 173.762 58.6112C175.994 59.3844 178.511 60.348 178.903 62.8342C179.413 65.6417 177.146 67.1406 174.795 67.8305C170.047 69.1867 165.298 70.293 160.549 71.3993C159.208 71.7205 157.451 71.887 157.76 73.6714C158.068 75.4558 159.968 74.6707 161.214 74.861C161.601 74.9781 162.014 74.9781 162.401 74.861C166.592 72.6008 168.824 76.122 171.542 78.0253C173.015 79.0603 172.73 80.119 171.341 81.2967C167.376 84.4372 162.947 85.6268 156.739 85.1748Z" fill="#D05C74"/>
<path d="M181.301 284.622C182.348 277.297 183.887 270.052 185.907 262.935C186.192 262.007 186.311 260.723 187.533 260.818C191.558 261.151 192.686 257.832 194.585 255.453C195.415 254.349 196.316 253.3 197.28 252.312C200.948 248.743 202.954 248.743 206.955 252.074C210.151 254.716 212.572 258.178 213.959 262.091C216.333 268.467 214.766 272.702 208.641 275.628C206.872 276.461 204.889 276.818 203.097 277.603C202.088 278.043 200.461 278.019 200.343 279.411C200.2 281.088 201.862 281.493 203.014 282.123C206.35 283.943 210.137 284.324 213.698 285.264C217.829 286.346 218.708 287.346 218.209 291.212C217.806 294.305 216.274 295.494 212.143 294.923C205.882 294.064 199.901 291.781 194.656 288.25C191.997 286.442 190.715 285.657 189.908 289.439C189.796 289.819 189.637 290.183 189.433 290.522C189.11 291.252 188.571 291.866 187.89 292.28C187.209 292.695 186.418 292.891 185.622 292.842C184.831 292.763 184.079 292.464 183.449 291.978C182.82 291.492 182.339 290.84 182.061 290.094C181.301 288.607 181.301 287.025 181.301 284.622ZM197.398 269.764C199.571 268.955 201.815 268.241 203.94 267.277C205.317 266.647 205.222 265.326 204.426 264.303C203.631 263.28 202.598 261.175 200.806 262.317C198.642 263.699 196.942 265.701 195.926 268.062C195.309 269.419 196.211 269.752 197.363 269.764H197.398Z" fill="#D05C74"/>
<path d="M133.72 165.329C132.685 165.401 131.645 165.401 130.61 165.329C129.059 165.123 127.565 164.612 126.212 163.825C124.859 163.038 123.675 161.991 122.728 160.744C121.78 159.497 121.088 158.075 120.69 156.559C120.293 155.043 120.198 153.463 120.412 151.911C121.241 145.997 124.054 140.543 128.39 136.446C133.198 131.512 138.426 127.007 144.013 122.98C145.817 121.719 147.93 120.113 149.865 121.886C152.014 123.86 155.575 125.526 154.448 129.368C153.795 131.616 154.649 133.187 155.445 134.959C157.142 138.718 159.351 142.216 160.526 146.26C162.651 153.552 161.309 157.442 154.59 160.738C149.248 163.319 141.069 165.936 133.72 165.329ZM134.456 155.551C138.279 154.564 142.469 154.671 146.328 152.993C152.667 150.233 153.356 148.485 150.221 142.465C149.948 141.942 149.663 141.43 149.367 140.907C147.586 137.743 144.761 136.601 141.71 138.421C136.91 141.16 133.068 145.314 130.705 150.317C129.138 153.671 130.61 155.622 134.456 155.551Z" fill="#D05C74"/>
<path d="M27.2216 249.659C37.5735 249.053 40.482 253.93 42.239 263.994C42.8682 267.563 41.3011 270.763 37.9177 273.059C33.5253 276.033 28.5512 277.02 23.6127 278.257C22.0971 278.667 20.5592 278.989 19.0065 279.221C18.6125 279.208 18.2209 279.287 17.8621 279.451C17.5033 279.614 17.187 279.859 16.9378 280.165C16.6886 280.471 16.5131 280.83 16.4252 281.216C16.3372 281.601 16.339 282.001 16.4304 282.385C16.5652 284.965 16.1189 287.543 15.1246 289.927C14.6966 291.254 13.7863 292.371 12.5745 293.056C11.3628 293.741 9.93812 293.945 8.58343 293.627C6.62464 293.151 4.30969 289.927 4.93888 287.536C6.17366 282.971 6.17366 278.159 4.93888 273.594C4.13162 270.477 5.97171 267.277 8.36975 265.136C9.95399 263.716 11.1441 261.908 11.8243 259.89C14.626 252.443 19.0184 249.612 27.2216 249.659ZM26.7705 260.842C23.3278 260.675 20.3243 262.352 19.3508 264.898C18.7217 266.54 19.1253 267.801 21.0959 267.372C24.1231 266.694 27.091 265.767 30.0352 264.803C30.8305 264.541 32.0058 264.172 31.7209 262.852C31.5191 261.948 30.6524 261.841 29.9045 261.662L26.7705 260.842Z" fill="#D05C74"/>
<path d="M238.165 334.132C239.386 334.215 240.612 334.215 241.833 334.132C244.706 333.764 246.807 335.322 247.116 337.701C247.424 340.08 245.762 342.091 243.032 342.578C239.376 343.257 235.707 343.935 232.063 344.672C226.804 345.731 226.032 346.54 225.13 351.667C224.263 356.592 223.337 357.877 221.01 357.413C218.434 356.889 215.585 353.035 216.357 350.085C216.708 348.776 216.77 347.407 216.541 346.072C216.311 344.737 215.795 343.468 215.027 342.352C212.546 338.082 214.671 334.501 219.633 334.596C221.082 334.596 221.675 334.596 222.186 333.347C222.696 332.098 223.171 330.968 222.186 329.541C216.618 321.63 216.677 321.654 225.664 318.561C232.165 316.323 238.824 314.573 245.584 313.326C250.096 312.506 253.277 314.04 255.972 317.288C258.002 319.667 257.159 322.046 254.072 322.177C250.341 322.305 246.623 322.702 242.949 323.367C241.208 323.673 239.484 324.07 237.785 324.556C234.841 325.448 231.695 330.647 232.146 333.657C232.288 334.584 232.787 335.12 233.701 334.977C235.007 334.858 236.337 334.525 238.165 334.132Z" fill="#D05C74"/>
<path d="M178.226 164.259C170.249 164.627 169.204 160.69 167.067 152.303C165.239 145.166 167.162 137.826 168.349 130.629C168.503 129.851 168.869 129.132 169.408 128.552C169.947 127.972 170.637 127.554 171.4 127.346C172.754 126.81 173.371 128.25 174.178 129.059C175.789 130.545 176.953 132.454 177.536 134.569C178.119 136.685 178.1 138.921 177.479 141.026C176.624 144.357 175.342 148.532 178.25 150.436C181.479 152.553 184.863 149.246 187.629 147.259C190.091 145.422 192.157 143.105 193.704 140.448C195.25 137.79 196.244 134.847 196.627 131.795C196.991 129.668 197.47 127.564 198.064 125.49C198.42 124.098 198.669 122.599 200.438 122.516C202.207 122.433 203.275 123.706 203.928 125.24C206.302 130.677 207.24 136.398 204.64 141.835C200.319 150.852 194.241 158.489 184.946 162.914C182.898 164.046 180.551 164.515 178.226 164.259Z" fill="#D05C74"/>
<path d="M320.019 291.295C316.084 291.139 312.151 291.65 308.385 292.806C298.888 295.673 291.86 289.57 294.341 279.923C296.822 270.275 300.491 260.889 303.684 251.372C303.85 250.873 304.349 250.183 304.741 250.111C307.473 249.891 310.189 250.706 312.35 252.396C314.06 253.668 314.392 255.536 313.537 257.713C311.318 263.185 309.264 268.729 307.186 274.26C306.589 275.717 306.112 277.221 305.762 278.757C305.168 281.659 305.952 282.587 308.824 281.885C311.719 281.359 314.64 280.99 317.574 280.779C321.444 280.244 324.388 282.349 327.593 283.67C329.849 284.61 329.73 286.87 329.469 288.821C329.208 290.772 327.617 291.2 325.908 291.331C323.961 291.426 321.978 291.295 320.019 291.295Z" fill="#D05C74"/>
<path d="M93.4519 160.107C93.7725 156.836 96.0043 153.707 97.8325 150.483C99.2333 148.033 99.7794 146.32 97.9868 143.631C94.4254 138.183 94.7934 131.545 93.9149 125.371C93.4994 122.361 95.6125 121.422 98.4261 122.528C100.031 123.044 101.441 124.038 102.47 125.377C103.498 126.715 104.096 128.335 104.184 130.022C104.186 130.825 104.29 131.625 104.492 132.402C104.849 133.448 104.872 134.971 106.131 135.197C107.116 135.376 107.674 134.115 108.267 133.353C110.191 130.867 112.066 128.333 113.978 125.823C114.444 125.188 114.96 124.591 115.521 124.039C119.427 120.399 123.617 121.219 125.932 125.99C126.248 126.611 126.332 127.326 126.169 128.004C126.006 128.683 125.606 129.28 125.042 129.689C115.177 139.206 109.395 151.34 102.89 162.998C101.703 165.115 100.515 167.257 97.5001 166.495C94.9358 165.853 93.2857 163.545 93.4519 160.107Z" fill="#D05C74"/>
<path d="M203.928 355.474C199.792 355.279 195.653 355.79 191.688 356.984C182.274 359.364 176.421 353.523 178.404 343.899C179.449 338.843 181.479 334.132 183.153 329.303C184.458 325.579 185.705 321.844 186.951 318.097C188.447 313.6 188.744 313.41 192.555 314.623C197.173 316.11 198.633 318.132 197.303 321.761C195.38 327.137 193.219 332.467 191.225 337.796C190.51 339.632 189.911 341.512 189.432 343.423C188.969 345.445 189.943 346.611 191.985 346.1C195.061 345.443 198.186 345.045 201.328 344.91C204.889 344.625 207.821 346.1 210.884 347.444C213.425 348.562 213.591 350.739 213.258 352.904C212.926 355.069 211.062 355.462 209.187 355.509C207.311 355.557 205.696 355.474 203.928 355.474Z" fill="#D05C74"/>
<path d="M226.982 398.644C226.982 402.522 226.982 405.889 226.982 409.255C226.991 410.451 226.896 411.645 226.697 412.824C226.602 413.621 226.249 414.364 225.691 414.94C225.133 415.516 224.402 415.893 223.611 416.012C221.782 416.286 220.726 414.917 220.049 413.478C219.631 412.588 219.408 411.619 219.396 410.635C219.206 403.319 218.993 396.003 219.491 388.687C219.74 385.118 221.533 381.894 222.257 378.409C222.34 377.969 223.017 377.636 223.444 377.219C223.813 377.671 224.131 378.162 224.394 378.683C226.745 385.297 226.412 392.28 226.982 398.644Z" fill="#1C6F8B"/>
<path d="M122.311 40.0297C123.938 28.4312 129.149 18.4862 133.886 8.37467C134.883 6.2453 136.842 5.37689 138.753 6.43563C139.704 6.99716 140.417 7.8876 140.758 8.9393C141.099 9.99099 141.045 11.1314 140.605 12.1457C139.629 14.9244 138.495 17.645 137.21 20.2944C133.648 27.5033 131.06 35.2594 124.721 40.7434C124.187 41.2193 124.116 42.397 123.13 42.1472C121.789 41.8141 122.406 40.5769 122.311 40.0297Z" fill="#F0AB61"/>
<path d="M71.9648 36.3301C72.2064 37.806 72.0081 39.3205 71.3949 40.684C71.1218 41.2075 70.8845 41.7428 70.6352 42.2781C70.279 41.8855 69.911 41.5167 69.5667 41.0885C64.9606 35.7472 62.8118 29.1926 60.4138 22.7331C58.6331 17.9747 57.0304 13.0855 55.226 8.31527C54.5631 6.4598 54.2804 4.48942 54.3949 2.52197C54.3949 1.5465 54.5255 0.499664 55.6771 0.142787C55.9558 0.0397815 56.2523 -0.00612898 56.5491 0.00781038C56.8459 0.0217497 57.1369 0.0952432 57.4048 0.223925C57.6727 0.352606 57.912 0.533875 58.1088 0.756968C58.3055 0.980062 58.4555 1.24042 58.5499 1.52268C59.8796 4.3658 61.1499 7.23273 62.3133 10.1591C65.1307 17.2967 67.9008 24.4342 70.6233 31.5718C71.1512 33.1339 71.5989 34.7221 71.9648 36.3301Z" fill="#F0AB61"/>
<path d="M271.37 354.605C273.448 357.258 276.403 358.174 278.493 360.184C285.822 367.052 292.881 374.19 299.672 381.597C300.08 382.026 300.453 382.488 300.787 382.977C301.856 384.666 303.162 386.7 301.417 388.306C299.672 389.912 298.235 387.747 297.119 386.629C289.581 379.158 281.484 372.271 274.421 364.312C272.381 362.161 271.008 359.462 270.468 356.544C270.364 356.166 270.399 355.764 270.564 355.409C270.729 355.054 271.015 354.769 271.37 354.605Z" fill="#277792"/>
<path d="M2.58772 51.1287C3.19847 51.2428 3.78999 51.443 4.34467 51.7235C12.168 56.5532 20.1575 61.1212 27.4466 66.7599C28.4963 67.6512 29.4766 68.6215 30.3788 69.6625C31.186 70.4952 32.3732 71.6134 31.4947 72.6364C30.6162 73.6595 29.4884 72.232 28.4794 71.8751C18.9822 68.5443 10.8859 62.5844 2.51649 57.1599C1.90064 56.8617 1.35919 56.4291 0.931917 55.8939C0.504638 55.3587 0.202348 54.7345 0.0472089 54.067C-0.213963 52.4848 0.605185 51.319 2.58772 51.1287Z" fill="#F0AB61"/>
<path d="M309.643 311.53C315.096 312.268 320.545 313.013 325.99 313.767C327.379 313.78 328.719 314.281 329.777 315.182C330.632 316.062 331.344 317.014 330.822 318.323C330.61 318.882 330.195 319.341 329.661 319.608C329.126 319.875 328.511 319.93 327.937 319.762C316.838 317.383 305.109 318.061 294.697 312.529C295.065 312.125 295.433 311.732 295.789 311.34L308.955 311.518L309.287 311.59L309.643 311.53Z" fill="#277792"/>
<path d="M43.2594 51.0334C41.6986 51.1488 40.1338 50.8694 38.7088 50.2209C37.2838 49.5724 36.0441 48.5756 35.1037 47.3219C34.7275 46.8687 34.5326 46.2917 34.5567 45.7026C34.5808 45.1136 34.8223 44.5546 35.2344 44.1338C35.517 43.7334 35.9445 43.4595 36.4258 43.3706C36.9071 43.2817 37.404 43.3848 37.8105 43.658C40.1216 44.6774 42.3215 45.9332 44.3753 47.4052C45.2776 48.1665 46.4529 48.7256 45.8118 50.1531C45.3251 51.2356 44.1973 50.974 43.2594 51.0334Z" fill="#F0AB61"/>
<path d="M297.072 340.199C296.49 340.199 295.885 340.199 295.338 340.199C293.486 340.08 290.732 340.199 290.744 338.094C290.756 335.988 293.593 335.905 295.493 335.572C297.022 335.231 298.617 335.355 300.075 335.929C301.381 336.488 302.449 337.285 302.2 338.95C301.951 340.616 300.574 340.294 299.446 340.318H297.072V340.199Z" fill="#277792"/>
<path d="M247.14 382.073C247.14 383.108 247.342 384.167 246.535 384.393C245.003 384.833 245.288 383.298 245.039 382.549C244.762 381.61 244.626 380.636 244.635 379.658C244.635 377.909 244.635 376.089 245.822 374.674C246.831 376.113 246.452 377.862 246.867 379.432C247.042 380.301 247.133 381.186 247.14 382.073Z" fill="#277792"/>
<path d="M105.383 27.3963C105.392 28.1248 105.292 28.8506 105.086 29.5494C104.089 31.429 103.317 33.4751 101.525 34.8431C100.112 32.6662 102.284 31.0245 102.403 29.0736C102.55 28.5004 102.761 27.9457 103.032 27.4201C103.317 26.5041 103.448 25.2669 104.754 25.6595C105.193 25.7784 105.323 27.0156 105.383 27.3963Z" fill="#F0AB61"/>
<path d="M122.359 209.439C122.585 208.583 123.333 208.25 123.998 207.881C124.449 207.619 125.007 207.167 125.327 207.952C125.427 208.228 125.422 208.532 125.313 208.804C125.203 209.076 124.997 209.298 124.734 209.428L122.359 209.439Z" fill="#F9F8F7"/>
<path d="M124.556 80.8683C124.651 80.5962 124.811 80.352 125.024 80.1578C125.237 79.9636 125.494 79.8254 125.773 79.7558C126.052 79.6861 126.344 79.6872 126.623 79.7589C126.902 79.8306 127.158 79.9707 127.369 80.1665C128.058 80.6899 127.844 81.5107 127.013 81.9746C126.586 80.678 125.565 80.7494 124.556 80.8683Z" fill="#F0AB61"/>
<path d="M295.801 311.328C295.445 311.732 295.077 312.125 294.709 312.517C294.584 312.493 294.466 312.439 294.366 312.36C294.266 312.281 294.186 312.178 294.134 312.062C294.081 311.945 294.058 311.818 294.065 311.69C294.072 311.562 294.11 311.438 294.175 311.328C294.65 310.46 295.267 310.602 295.801 311.328Z" fill="#D05C74"/>
<path d="M309.643 311.53H309.299L308.966 311.459C308.788 311.114 308.966 310.923 309.334 310.935C309.702 310.947 309.868 311.209 309.643 311.53Z" fill="#D05C74"/>
<path d="M228.514 71.1732C228.763 70.9829 229.155 70.5665 229.238 70.626C229.938 71.0899 229.452 71.3992 229.036 71.7085L228.514 71.1732Z" fill="#FDFDFD"/>
<path d="M229.451 137.671C229.51 138.671 228.858 139.099 228.133 139.384C226.345 140.114 224.54 140.8 222.72 141.442C222.376 141.626 221.977 141.676 221.598 141.584C221.22 141.492 220.888 141.264 220.666 140.943C220.553 140.567 220.555 140.166 220.674 139.792C220.793 139.419 221.022 139.09 221.331 138.849C222.388 137.66 223.432 136.565 224.513 135.447C225.189 134.745 225.925 134.019 227.017 134.602C228.199 135.266 229.073 136.368 229.451 137.671Z" fill="#F9F8F7"/>
<path d="M155.303 219.099H153.534C148.785 219.016 147.776 217.564 150.186 213.436C153.379 207.988 157.012 202.885 163.993 201.862C164.74 201.743 165.631 201.124 166.106 201.933C167.97 205.097 170.593 207.94 170.795 211.866C170.89 213.686 169.608 214.578 168.136 215.435C164.246 217.746 159.824 219.008 155.303 219.099Z" fill="#F9F8F7"/>
<path d="M56.0337 283.099C55.2429 283.141 54.4503 283.141 53.6594 283.099C50.9646 282.813 49.9912 281.6 51.0359 279.209C53.4331 273.521 57.6797 268.813 63.0854 265.85C66.0532 264.232 68.0002 265.207 69.7097 268.336C70.1845 269.204 70.5644 270.12 71.0155 270.989C73.9478 276.794 73.6866 277.603 67.9883 280.387C64.2193 282.067 60.1574 282.988 56.0337 283.099Z" fill="#F9F8F7"/>
<path d="M197.363 269.764C196.176 269.764 195.309 269.419 195.891 268.062C196.906 265.701 198.606 263.699 200.77 262.317C202.563 261.127 203.488 263.173 204.391 264.303C205.293 265.433 205.281 266.683 203.904 267.277C201.779 268.241 199.535 268.955 197.363 269.764Z" fill="#F9F8F7"/>
<path d="M134.456 155.551C130.61 155.622 129.137 153.671 130.681 150.329C133.044 145.326 136.886 141.172 141.686 138.433C144.737 136.613 147.621 137.755 149.343 140.919C149.64 141.442 149.924 141.954 150.197 142.477C153.332 148.497 152.643 150.245 146.304 153.005C142.469 154.623 138.278 154.623 134.456 155.551Z" fill="#F9F8F7"/>
<path d="M26.7698 260.842L29.9038 261.651C30.6517 261.841 31.5183 261.948 31.7201 262.84C32.0051 264.161 30.8298 264.529 30.0344 264.791C27.0903 265.755 24.0986 266.683 21.0952 267.361C19.1245 267.789 18.7209 266.528 19.3501 264.886C20.3236 262.352 23.327 260.675 26.7698 260.842Z" fill="#F9F8F7"/>
</g>
<defs>
<clipPath id="clip0_941_3700">
<rect width="331" height="416" fill="white"/>
</clipPath>
</defs>
</svg>
