<svg width="251" height="36" viewBox="0 0 251 36" fill="none" xmlns="http://www.w3.org/2000/svg">
<rect width="251" height="36" rx="8" fill="#0B2B3E" fill-opacity="0.1"/>
<line opacity="0.2" x1="40.5" y1="18.25" x2="241.5" y2="18.25" stroke="#0B2B3E" stroke-linecap="round"/>
<g opacity="0.6">
<g clip-path="url(#clip0_705_13291)">
<path d="M73.9361 26.997C73.7231 26.9568 73.5331 26.8517 73.3998 26.7002C73.2664 26.5488 73.1983 26.3607 73.2075 26.1694V9.94253C73.1859 9.82643 73.1932 9.70759 73.2291 9.59423C73.2649 9.48088 73.3283 9.37573 73.4149 9.28607C73.5015 9.19641 73.6093 9.12438 73.7308 9.07498C73.8522 9.02559 73.9844 9 74.1182 9C74.252 9 74.3842 9.02559 74.5057 9.07498C74.6271 9.12438 74.7349 9.19641 74.8215 9.28607C74.9082 9.37573 74.9716 9.48088 75.0074 9.59423C75.0432 9.70759 75.0505 9.82643 75.0289 9.94253V26.1694C75.032 26.2834 75.0077 26.3968 74.9575 26.502C74.9074 26.6073 74.8326 26.702 74.738 26.7801C74.6434 26.8582 74.5311 26.9179 74.4085 26.9553C74.2859 26.9926 74.1557 27.0068 74.0264 26.997C73.9963 26.9982 73.9662 26.9982 73.9361 26.997ZM62.2794 25.0326C62.0664 24.9925 61.8765 24.8874 61.7431 24.7359C61.6098 24.5845 61.5417 24.3964 61.5509 24.2051V11.9068C61.5293 11.7907 61.5366 11.6719 61.5724 11.5585C61.6082 11.4452 61.6716 11.34 61.7583 11.2504C61.8449 11.1607 61.9527 11.0887 62.0741 11.0393C62.1956 10.9899 62.3278 10.9643 62.4616 10.9643C62.5954 10.9643 62.7276 10.9899 62.849 11.0393C62.9705 11.0887 63.0783 11.1607 63.1649 11.2504C63.2515 11.34 63.3149 11.4452 63.3507 11.5585C63.3866 11.6719 63.3939 11.7907 63.3723 11.9068V24.2051C63.3753 24.3191 63.351 24.4325 63.3009 24.5377C63.2508 24.643 63.176 24.7377 63.0814 24.8158C62.9868 24.8939 62.8745 24.9536 62.7519 24.991C62.6293 25.0283 62.4991 25.0425 62.3698 25.0326C62.3397 25.0339 62.3095 25.0339 62.2794 25.0326ZM71.0219 23.5808C70.8089 23.5406 70.6189 23.4355 70.4856 23.2841C70.3523 23.1326 70.2842 22.9446 70.2934 22.7532V13.3587C70.2713 13.2425 70.2783 13.1234 70.3138 13.0097C70.3494 12.8961 70.4127 12.7906 70.4993 12.7007C70.5859 12.6107 70.6938 12.5384 70.8154 12.4889C70.9371 12.4393 71.0695 12.4136 71.2036 12.4136C71.3376 12.4136 71.4701 12.4393 71.5917 12.4889C71.7133 12.5384 71.8212 12.6107 71.9078 12.7007C71.9945 12.7906 72.0578 12.8961 72.0933 13.0097C72.1289 13.1234 72.1359 13.2425 72.1138 13.3587V22.7532C72.1168 22.8671 72.0926 22.9803 72.0425 23.0854C71.9925 23.1905 71.9179 23.2852 71.8235 23.3633C71.7291 23.4413 71.6171 23.5011 71.4947 23.5385C71.3723 23.576 71.2424 23.5904 71.1132 23.5808C71.0825 23.5821 71.0517 23.5821 71.021 23.5808H71.0219ZM59.3653 20.5062C59.1523 20.4661 58.9623 20.361 58.829 20.2095C58.6956 20.058 58.6276 19.87 58.6368 19.6786V16.4333C58.6146 16.317 58.6216 16.1979 58.6572 16.0843C58.6927 15.9706 58.756 15.8652 58.8427 15.7752C58.9293 15.6853 59.0372 15.613 59.1588 15.5634C59.2804 15.5138 59.4129 15.4882 59.5469 15.4882C59.681 15.4882 59.8134 15.5138 59.9351 15.5634C60.0567 15.613 60.1646 15.6853 60.2512 15.7752C60.3378 15.8652 60.4011 15.9706 60.4367 16.0843C60.4723 16.1979 60.4792 16.317 60.4571 16.4333V19.6786C60.4602 19.7925 60.4359 19.9057 60.3859 20.0109C60.3359 20.116 60.2613 20.2106 60.1669 20.2887C60.0725 20.3668 59.9605 20.4265 59.8381 20.464C59.7157 20.5014 59.5857 20.5158 59.4566 20.5062C59.4259 20.5076 59.3951 20.5076 59.3643 20.5062H59.3653ZM65.1936 21.8727C64.9806 21.8325 64.7906 21.7274 64.6573 21.576C64.524 21.4245 64.4559 21.2365 64.4651 21.0451V15.0668C64.443 14.9505 64.4499 14.8315 64.4855 14.7178C64.5211 14.6042 64.5844 14.4987 64.671 14.4088C64.7576 14.3188 64.8655 14.2465 64.9871 14.1969C65.1087 14.1474 65.2412 14.1217 65.3753 14.1217C65.5093 14.1217 65.6418 14.1474 65.7634 14.1969C65.885 14.2465 65.9929 14.3188 66.0795 14.4088C66.1662 14.4987 66.2295 14.6042 66.265 14.7178C66.3006 14.8315 66.3075 14.9505 66.2854 15.0668V21.0451C66.2885 21.159 66.2642 21.2722 66.2142 21.3773C66.1642 21.4824 66.0896 21.5771 65.9952 21.6552C65.9008 21.7332 65.7888 21.793 65.6664 21.8304C65.544 21.8679 65.414 21.8823 65.2849 21.8727C65.2542 21.874 65.2234 21.874 65.1926 21.8727H65.1936ZM76.8502 21.8727C76.6372 21.8325 76.4473 21.7274 76.3139 21.576C76.1806 21.4245 76.1125 21.2365 76.1217 21.0451V15.0668C76.1001 14.9507 76.1074 14.8319 76.1432 14.7185C76.179 14.6051 76.2424 14.5 76.3291 14.4103C76.4157 14.3207 76.5235 14.2486 76.6449 14.1993C76.7664 14.1499 76.8986 14.1243 77.0324 14.1243C77.1662 14.1243 77.2984 14.1499 77.4198 14.1993C77.5413 14.2486 77.649 14.3207 77.7357 14.4103C77.8223 14.5 77.8857 14.6051 77.9215 14.7185C77.9573 14.8319 77.9647 14.9507 77.9431 15.0668V21.0451C77.9461 21.1592 77.9218 21.2725 77.8717 21.3778C77.8216 21.483 77.7468 21.5778 77.6522 21.6559C77.5576 21.734 77.4453 21.7936 77.3227 21.831C77.2001 21.8684 77.0699 21.8826 76.9406 21.8727C76.9105 21.874 76.8803 21.874 76.8502 21.8727ZM56.4511 20.1646C56.2381 20.1244 56.0482 20.0193 55.9148 19.8679C55.7815 19.7164 55.7134 19.5284 55.7226 19.337V16.7749C55.701 16.6588 55.7083 16.5399 55.7441 16.4266C55.7799 16.3132 55.8433 16.2081 55.93 16.1184C56.0166 16.0288 56.1244 15.9567 56.2458 15.9073C56.3672 15.8579 56.4995 15.8324 56.6333 15.8324C56.7671 15.8324 56.8993 15.8579 57.0207 15.9073C57.1422 15.9567 57.2499 16.0288 57.3366 16.1184C57.4232 16.2081 57.4866 16.3132 57.5224 16.4266C57.5582 16.5399 57.5656 16.6588 57.5439 16.7749V19.337C57.547 19.4511 57.5227 19.5644 57.4726 19.6697C57.4225 19.7749 57.3477 19.8697 57.2531 19.9478C57.1585 20.0259 57.0462 20.0855 56.9236 20.1229C56.801 20.1603 56.6708 20.1745 56.5415 20.1646C56.5111 20.1659 56.4806 20.1659 56.4502 20.1646H56.4511ZM68.1078 19.0543C67.8948 19.0142 67.7048 18.9091 67.5715 18.7576C67.4381 18.6062 67.37 18.4181 67.3792 18.2268V17.8851C67.3571 17.7689 67.3641 17.6498 67.3997 17.5362C67.4352 17.4225 67.4985 17.317 67.5851 17.2271C67.6718 17.1371 67.7797 17.0649 67.9013 17.0153C68.0229 16.9657 68.1554 16.94 68.2894 16.94C68.4235 16.94 68.5559 16.9657 68.6776 17.0153C68.7992 17.0649 68.9071 17.1371 68.9937 17.2271C69.0803 17.317 69.1436 17.4225 69.1792 17.5362C69.2147 17.6498 69.2217 17.7689 69.1996 17.8851V18.2268C69.2027 18.3407 69.1784 18.4539 69.1284 18.559C69.0784 18.6641 69.0038 18.7588 68.9094 18.8368C68.815 18.9149 68.7029 18.9746 68.5806 19.0121C68.4582 19.0496 68.3282 19.064 68.1991 19.0543C68.1683 19.0557 68.1375 19.0557 68.1068 19.0543H68.1078ZM79.7644 20.1646C79.5514 20.1244 79.3614 20.0193 79.2281 19.8679C79.0948 19.7164 79.0267 19.5284 79.0359 19.337V16.7749C79.0142 16.6588 79.0216 16.5399 79.0574 16.4266C79.0932 16.3132 79.1566 16.2081 79.2432 16.1184C79.3299 16.0288 79.4376 15.9567 79.5591 15.9073C79.6805 15.8579 79.8127 15.8324 79.9465 15.8324C80.0803 15.8324 80.2126 15.8579 80.334 15.9073C80.4554 15.9567 80.5632 16.0288 80.6498 16.1184C80.7365 16.2081 80.7999 16.3132 80.8357 16.4266C80.8715 16.5399 80.8788 16.6588 80.8572 16.7749V19.337C80.8603 19.4511 80.836 19.5644 80.7859 19.6697C80.7357 19.7749 80.6609 19.8697 80.5663 19.9478C80.4717 20.0259 80.3594 20.0855 80.2368 20.1229C80.1142 20.1603 79.984 20.1745 79.8547 20.1646C79.8246 20.1659 79.7945 20.1659 79.7644 20.1646Z" fill="#0B2B3E"/>
<path d="M97.1184 24.7673C96.9065 24.7372 96.7174 24.6586 96.5848 24.5454C96.4521 24.4321 96.3843 24.2915 96.3935 24.1484V12.0142C96.372 11.9274 96.3793 11.8385 96.4149 11.7537C96.4505 11.669 96.5136 11.5903 96.5998 11.5233C96.686 11.4562 96.7933 11.4024 96.9141 11.3654C97.0349 11.3285 97.1665 11.3094 97.2996 11.3094C97.4328 11.3094 97.5643 11.3285 97.6851 11.3654C97.806 11.4024 97.9132 11.4562 97.9994 11.5233C98.0856 11.5903 98.1487 11.669 98.1843 11.7537C98.22 11.8385 98.2273 11.9274 98.2057 12.0142V24.1484C98.2088 24.2337 98.1846 24.3185 98.1347 24.3972C98.0849 24.4759 98.0104 24.5467 97.9163 24.6051C97.8222 24.6635 97.7105 24.7081 97.5885 24.7361C97.4665 24.764 97.3369 24.7746 97.2083 24.7673C97.1783 24.7682 97.1483 24.7682 97.1184 24.7673ZM85.52 24.1286C85.3081 24.0986 85.1191 24.02 84.9864 23.9067C84.8537 23.7935 84.786 23.6529 84.7951 23.5098V12.6528C84.7736 12.566 84.7809 12.4771 84.8165 12.3924C84.8522 12.3076 84.9153 12.229 85.0015 12.1619C85.0877 12.0949 85.1949 12.041 85.3157 12.0041C85.4366 11.9671 85.5681 11.948 85.7013 11.948C85.8344 11.948 85.966 11.9671 86.0868 12.0041C86.2076 12.041 86.3149 12.0949 86.4011 12.1619C86.4873 12.229 86.5504 12.3076 86.586 12.3924C86.6216 12.4771 86.6289 12.566 86.6074 12.6528V23.5098C86.6105 23.5951 86.5863 23.6798 86.5364 23.7585C86.4865 23.8372 86.4121 23.9081 86.318 23.9665C86.2238 24.0249 86.1121 24.0695 85.9901 24.0974C85.8681 24.1254 85.7386 24.136 85.6099 24.1286C85.58 24.1296 85.55 24.1296 85.52 24.1286ZM94.2188 22.2127C94.0069 22.1827 93.8178 22.1041 93.6852 21.9908C93.5525 21.8775 93.4848 21.7369 93.4939 21.5938V14.5687C93.4719 14.4818 93.4789 14.3928 93.5142 14.3078C93.5496 14.2228 93.6126 14.1439 93.6988 14.0767C93.785 14.0094 93.8923 13.9554 94.0133 13.9183C94.1344 13.8812 94.2662 13.862 94.3995 13.862C94.5329 13.862 94.6647 13.8812 94.7857 13.9183C94.9068 13.9554 95.0141 14.0094 95.1003 14.0767C95.1865 14.1439 95.2495 14.2228 95.2849 14.3078C95.3202 14.3928 95.3272 14.4818 95.3052 14.5687V21.5938C95.3082 21.679 95.2841 21.7637 95.2343 21.8423C95.1846 21.9209 95.1103 21.9916 95.0164 22.05C94.9225 22.1084 94.811 22.1531 94.6892 22.1811C94.5675 22.2091 94.4381 22.2199 94.3097 22.2127C94.2791 22.2137 94.2484 22.2137 94.2178 22.2127H94.2188ZM82.6205 21.574C82.4085 21.544 82.2195 21.4654 82.0868 21.3522C81.9542 21.2389 81.8864 21.0983 81.8956 20.9552V15.2074C81.8736 15.1205 81.8805 15.0314 81.9159 14.9464C81.9513 14.8614 82.0143 14.7826 82.1004 14.7153C82.1866 14.648 82.294 14.594 82.415 14.5569C82.536 14.5199 82.6678 14.5006 82.8012 14.5006C82.9346 14.5006 83.0664 14.5199 83.1874 14.5569C83.3084 14.594 83.4157 14.648 83.5019 14.7153C83.5881 14.7826 83.6511 14.8614 83.6865 14.9464C83.7219 15.0314 83.7288 15.1205 83.7068 15.2074V20.9552C83.7099 21.0404 83.6857 21.125 83.636 21.2036C83.5862 21.2822 83.512 21.353 83.418 21.4114C83.3241 21.4698 83.2127 21.5144 83.0909 21.5424C82.9691 21.5705 82.8398 21.5812 82.7113 21.574C82.6807 21.575 82.6501 21.575 82.6195 21.574H82.6205ZM88.4196 20.9354C88.2077 20.9054 88.0187 20.8268 87.886 20.7135C87.7533 20.6003 87.6856 20.4596 87.6947 20.3165V15.846C87.6727 15.7591 87.6797 15.67 87.7151 15.5851C87.7504 15.5001 87.8134 15.4212 87.8996 15.354C87.9858 15.2867 88.0932 15.2326 88.2142 15.1956C88.3352 15.1585 88.467 15.1393 88.6004 15.1393C88.7338 15.1393 88.8655 15.1585 88.9866 15.1956C89.1076 15.2326 89.2149 15.2867 89.3011 15.354C89.3873 15.4212 89.4503 15.5001 89.4857 15.5851C89.5211 15.67 89.528 15.7591 89.506 15.846V20.3165C89.509 20.4017 89.4849 20.4864 89.4351 20.565C89.3854 20.6436 89.3111 20.7144 89.2172 20.7727C89.1233 20.8311 89.0118 20.8758 88.8901 20.9038C88.7683 20.9318 88.639 20.9426 88.5105 20.9354C88.4799 20.9364 88.4492 20.9364 88.4187 20.9354H88.4196ZM100.018 20.9354C99.806 20.9054 99.617 20.8268 99.4844 20.7135C99.3517 20.6003 99.2839 20.4596 99.2931 20.3165V15.846C99.2716 15.7592 99.2789 15.6703 99.3145 15.5856C99.3501 15.5008 99.4132 15.4222 99.4994 15.3551C99.5856 15.2881 99.6928 15.2342 99.8137 15.1973C99.9345 15.1604 100.066 15.1412 100.199 15.1412C100.332 15.1412 100.464 15.1604 100.585 15.1973C100.706 15.2342 100.813 15.2881 100.899 15.3551C100.985 15.4222 101.048 15.5008 101.084 15.5856C101.12 15.6703 101.127 15.7592 101.105 15.846V20.3165C101.108 20.4018 101.084 20.4866 101.034 20.5653C100.984 20.644 100.91 20.7149 100.816 20.7733C100.722 20.8317 100.61 20.8763 100.488 20.9042C100.366 20.9322 100.236 20.9428 100.108 20.9354C100.078 20.9364 100.048 20.9364 100.018 20.9354ZM79.7209 19.6581C79.5089 19.6281 79.3199 19.5495 79.1872 19.4362C79.0546 19.323 78.9868 19.1823 78.996 19.0393V17.1233C78.9744 17.0365 78.9817 16.9476 79.0174 16.8629C79.053 16.7781 79.1161 16.6995 79.2023 16.6324C79.2885 16.5654 79.3957 16.5115 79.5166 16.4746C79.6374 16.4376 79.7689 16.4185 79.9021 16.4185C80.0352 16.4185 80.1668 16.4376 80.2876 16.4746C80.4084 16.5115 80.5157 16.5654 80.6019 16.6324C80.6881 16.6995 80.7512 16.7781 80.7868 16.8629C80.8224 16.9476 80.8297 17.0365 80.8082 17.1233V19.0393C80.8113 19.1245 80.7871 19.2093 80.7372 19.288C80.6873 19.3667 80.6129 19.4376 80.5188 19.496C80.4247 19.5544 80.3129 19.599 80.1909 19.6269C80.0689 19.6549 79.9394 19.6655 79.8108 19.6581C79.7805 19.6591 79.7502 19.6591 79.7199 19.6581H79.7209ZM91.3192 19.6581C91.1073 19.6281 90.9183 19.5495 90.7856 19.4362C90.6529 19.323 90.5852 19.1823 90.5943 19.0393V17.1233C90.5723 17.0364 90.5793 16.9473 90.6146 16.8624C90.65 16.7774 90.713 16.6985 90.7992 16.6312C90.8854 16.564 90.9927 16.5099 91.1138 16.4729C91.2348 16.4358 91.3666 16.4166 91.5 16.4166C91.6333 16.4166 91.7651 16.4358 91.8862 16.4729C92.0072 16.5099 92.1145 16.564 92.2007 16.6312C92.2869 16.6985 92.3499 16.7774 92.3853 16.8624C92.4206 16.9473 92.4276 17.0364 92.4056 17.1233V19.0393C92.4086 19.1244 92.3845 19.2091 92.3347 19.2877C92.285 19.3663 92.2107 19.4371 92.1168 19.4955C92.0229 19.5538 91.9114 19.5985 91.7897 19.6265C91.6679 19.6545 91.5386 19.6653 91.4101 19.6581C91.3795 19.6591 91.3488 19.6591 91.3182 19.6581H91.3192ZM102.918 19.6581C102.706 19.6281 102.517 19.5495 102.384 19.4362C102.251 19.323 102.184 19.1823 102.193 19.0393V17.1233C102.171 17.0365 102.178 16.9476 102.214 16.8629C102.25 16.7781 102.313 16.6995 102.399 16.6324C102.485 16.5654 102.592 16.5115 102.713 16.4746C102.834 16.4376 102.966 16.4185 103.099 16.4185C103.232 16.4185 103.363 16.4376 103.484 16.4746C103.605 16.5115 103.712 16.5654 103.799 16.6324C103.885 16.6995 103.948 16.7781 103.984 16.8629C104.019 16.9476 104.026 17.0365 104.005 17.1233V19.0393C104.008 19.1245 103.984 19.2093 103.934 19.288C103.884 19.3667 103.81 19.4376 103.715 19.496C103.621 19.5544 103.51 19.599 103.388 19.6269C103.266 19.6549 103.136 19.6655 103.007 19.6581C102.978 19.6591 102.948 19.6591 102.918 19.6581Z" fill="#0B2B3E"/>
<path d="M120.513 26.997C120.301 26.9568 120.112 26.8517 119.979 26.7002C119.847 26.5488 119.779 26.3607 119.788 26.1694V9.94253C119.766 9.82643 119.774 9.70759 119.809 9.59423C119.845 9.48088 119.908 9.37573 119.994 9.28607C120.081 9.19641 120.188 9.12438 120.309 9.07499C120.429 9.02559 120.561 9 120.694 9C120.827 9 120.959 9.02559 121.08 9.07499C121.201 9.12438 121.308 9.19641 121.394 9.28607C121.48 9.37573 121.543 9.48088 121.579 9.59423C121.614 9.70759 121.622 9.82643 121.6 9.94253V26.1694C121.603 26.2834 121.579 26.3968 121.529 26.502C121.479 26.6073 121.405 26.702 121.311 26.7801C121.217 26.8582 121.105 26.9179 120.983 26.9553C120.861 26.9926 120.731 27.0068 120.603 26.997C120.573 26.9982 120.543 26.9982 120.513 26.997ZM108.915 26.1429C108.703 26.1028 108.514 25.9977 108.381 25.8462C108.248 25.6947 108.181 25.5067 108.19 25.3153V10.7966C108.168 10.6805 108.175 10.5616 108.211 10.4483C108.247 10.3349 108.31 10.2298 108.396 10.1401C108.482 10.0504 108.589 9.97843 108.71 9.92903C108.831 9.87963 108.963 9.85405 109.096 9.85405C109.229 9.85405 109.36 9.87963 109.481 9.92903C109.602 9.97843 109.709 10.0504 109.796 10.1401C109.882 10.2298 109.945 10.3349 109.981 10.4483C110.016 10.5616 110.023 10.6805 110.002 10.7966V25.3153C110.005 25.4294 109.981 25.5427 109.931 25.648C109.881 25.7532 109.807 25.848 109.712 25.9261C109.618 26.0042 109.507 26.0639 109.385 26.1012C109.263 26.1386 109.133 26.1528 109.004 26.1429C108.975 26.1442 108.945 26.1442 108.915 26.1429ZM117.613 23.5808C117.401 23.5406 117.212 23.4355 117.08 23.2841C116.947 23.1326 116.879 22.9446 116.888 22.7532V13.3587C116.866 13.2425 116.873 13.1234 116.909 13.0097C116.944 12.8961 117.007 12.7906 117.093 12.7007C117.18 12.6107 117.287 12.5384 117.408 12.4889C117.529 12.4393 117.661 12.4136 117.794 12.4136C117.927 12.4136 118.059 12.4393 118.18 12.4889C118.301 12.5384 118.409 12.6107 118.495 12.7007C118.581 12.7906 118.644 12.8961 118.679 13.0097C118.715 13.1234 118.722 13.2425 118.7 13.3587V22.7532C118.703 22.8671 118.679 22.9803 118.629 23.0854C118.579 23.1905 118.505 23.2852 118.411 23.3633C118.317 23.4413 118.206 23.5011 118.084 23.5385C117.962 23.576 117.833 23.5904 117.704 23.5808C117.674 23.5821 117.643 23.5821 117.612 23.5808H117.613ZM106.015 22.7267C105.803 22.6866 105.614 22.5815 105.481 22.43C105.349 22.2786 105.281 22.0905 105.29 21.8992V14.2128C105.268 14.0965 105.275 13.9774 105.31 13.8638C105.346 13.7501 105.409 13.6447 105.495 13.5547C105.581 13.4648 105.689 13.3925 105.81 13.3429C105.931 13.2933 106.062 13.2676 106.196 13.2676C106.329 13.2676 106.461 13.2933 106.582 13.3429C106.703 13.3925 106.81 13.4648 106.896 13.5547C106.983 13.6447 107.046 13.7501 107.081 13.8638C107.116 13.9774 107.123 14.0965 107.101 14.2128V21.8992C107.104 22.0131 107.08 22.1263 107.031 22.2314C106.981 22.3365 106.906 22.4312 106.813 22.5092C106.719 22.5873 106.607 22.647 106.485 22.6845C106.364 22.722 106.234 22.7364 106.106 22.7267C106.075 22.7281 106.045 22.7281 106.014 22.7267H106.015ZM111.814 21.8727C111.602 21.8325 111.413 21.7274 111.281 21.576C111.148 21.4245 111.08 21.2365 111.089 21.0451V15.0668C111.067 14.9505 111.074 14.8315 111.11 14.7178C111.145 14.6042 111.208 14.4987 111.294 14.4088C111.38 14.3188 111.488 14.2465 111.609 14.1969C111.73 14.1474 111.862 14.1217 111.995 14.1217C112.128 14.1217 112.26 14.1474 112.381 14.1969C112.502 14.2465 112.609 14.3188 112.696 14.4088C112.782 14.4987 112.845 14.6042 112.88 14.7178C112.916 14.8315 112.923 14.9505 112.901 15.0668V21.0451C112.904 21.159 112.879 21.2722 112.83 21.3773C112.78 21.4824 112.706 21.5771 112.612 21.6552C112.518 21.7332 112.406 21.793 112.285 21.8304C112.163 21.8679 112.033 21.8823 111.905 21.8727C111.874 21.874 111.844 21.874 111.813 21.8727H111.814ZM123.413 21.8727C123.201 21.8325 123.012 21.7274 122.879 21.576C122.746 21.4245 122.678 21.2365 122.688 21.0451V15.0668C122.666 14.9507 122.673 14.8319 122.709 14.7185C122.745 14.6051 122.808 14.5 122.894 14.4103C122.98 14.3207 123.087 14.2486 123.208 14.1993C123.329 14.1499 123.461 14.1243 123.594 14.1243C123.727 14.1243 123.858 14.1499 123.979 14.1993C124.1 14.2486 124.207 14.3207 124.294 14.4103C124.38 14.5 124.443 14.6051 124.478 14.7185C124.514 14.8319 124.521 14.9507 124.5 15.0668V21.0451C124.503 21.1592 124.479 21.2725 124.429 21.3778C124.379 21.483 124.305 21.5778 124.21 21.6559C124.116 21.734 124.005 21.7936 123.883 21.831C123.761 21.8684 123.631 21.8826 123.502 21.8727C123.472 21.874 123.442 21.874 123.413 21.8727ZM103.115 20.1646C102.903 20.1244 102.714 20.0193 102.582 19.8679C102.449 19.7164 102.381 19.5284 102.39 19.337V16.7749C102.369 16.6588 102.376 16.5399 102.412 16.4266C102.448 16.3132 102.511 16.2081 102.597 16.1184C102.683 16.0288 102.79 15.9567 102.911 15.9073C103.032 15.8579 103.163 15.8324 103.297 15.8324C103.43 15.8324 103.561 15.8579 103.682 15.9073C103.803 15.9567 103.91 16.0288 103.996 16.1184C104.083 16.2081 104.146 16.3132 104.181 16.4266C104.217 16.5399 104.224 16.6588 104.203 16.7749V19.337C104.206 19.4511 104.182 19.5644 104.132 19.6697C104.082 19.7749 104.007 19.8697 103.913 19.9478C103.819 20.0259 103.707 20.0855 103.585 20.1229C103.463 20.1603 103.334 20.1745 103.205 20.1646C103.175 20.1659 103.145 20.1659 103.114 20.1646H103.115ZM114.714 20.1646C114.502 20.1244 114.313 20.0193 114.18 19.8679C114.047 19.7164 113.98 19.5284 113.989 19.337V16.7749C113.967 16.6586 113.974 16.5395 114.009 16.4259C114.045 16.3123 114.108 16.2068 114.194 16.1168C114.28 16.0269 114.387 15.9546 114.508 15.905C114.629 15.8555 114.761 15.8298 114.894 15.8298C115.028 15.8298 115.16 15.8555 115.281 15.905C115.402 15.9546 115.509 16.0269 115.595 16.1168C115.681 16.2068 115.744 16.3123 115.78 16.4259C115.815 16.5395 115.822 16.6586 115.8 16.7749V19.337C115.803 19.4509 115.779 19.5641 115.729 19.6692C115.68 19.7743 115.605 19.869 115.511 19.9471C115.417 20.0252 115.306 20.0849 115.184 20.1224C115.062 20.1598 114.933 20.1742 114.805 20.1646C114.774 20.1659 114.743 20.1659 114.713 20.1646H114.714ZM126.312 20.1646C126.1 20.1244 125.911 20.0193 125.778 19.8679C125.646 19.7164 125.578 19.5284 125.587 19.337V16.7749C125.566 16.6588 125.573 16.5399 125.609 16.4266C125.644 16.3132 125.707 16.2081 125.794 16.1184C125.88 16.0288 125.987 15.9567 126.108 15.9073C126.229 15.8579 126.36 15.8324 126.493 15.8324C126.626 15.8324 126.758 15.8579 126.879 15.9073C127 15.9567 127.107 16.0288 127.193 16.1184C127.279 16.2081 127.342 16.3132 127.378 16.4266C127.414 16.5399 127.421 16.6588 127.399 16.7749V19.337C127.403 19.4511 127.378 19.5644 127.328 19.6697C127.279 19.7749 127.204 19.8697 127.11 19.9478C127.016 20.0259 126.904 20.0855 126.782 20.1229C126.66 20.1603 126.531 20.1745 126.402 20.1646C126.372 20.1659 126.342 20.1659 126.312 20.1646Z" fill="#0B2B3E"/>
<path d="M143.787 23.3341C143.575 23.3103 143.386 23.248 143.253 23.1582C143.121 23.0684 143.053 22.9569 143.062 22.8434V13.2222C143.04 13.1534 143.048 13.0829 143.083 13.0157C143.119 12.9485 143.182 12.8861 143.268 12.833C143.354 12.7798 143.462 12.7371 143.583 12.7078C143.703 12.6785 143.835 12.6634 143.968 12.6634C144.101 12.6634 144.233 12.6785 144.354 12.7078C144.474 12.7371 144.582 12.7798 144.668 12.833C144.754 12.8861 144.817 12.9485 144.853 13.0157C144.888 13.0829 144.896 13.1534 144.874 13.2222V22.8434C144.877 22.9111 144.853 22.9783 144.803 23.0407C144.753 23.1031 144.679 23.1593 144.585 23.2056C144.491 23.2519 144.379 23.2873 144.257 23.3094C144.135 23.3316 144.005 23.34 143.877 23.3341C143.847 23.3349 143.817 23.3349 143.787 23.3341ZM132.188 22.8277C131.977 22.8039 131.788 22.7416 131.655 22.6518C131.522 22.562 131.454 22.4505 131.464 22.3371V13.7286C131.442 13.6598 131.449 13.5893 131.485 13.5221C131.521 13.4549 131.584 13.3925 131.67 13.3394C131.756 13.2862 131.863 13.2435 131.984 13.2142C132.105 13.1849 132.237 13.1698 132.37 13.1698C132.503 13.1698 132.634 13.1849 132.755 13.2142C132.876 13.2435 132.983 13.2862 133.07 13.3394C133.156 13.3925 133.219 13.4549 133.254 13.5221C133.29 13.5893 133.297 13.6598 133.276 13.7286V22.3371C133.279 22.4047 133.255 22.4719 133.205 22.5343C133.155 22.5967 133.081 22.6529 132.986 22.6992C132.892 22.7455 132.781 22.7809 132.659 22.803C132.537 22.8252 132.407 22.8336 132.278 22.8277C132.248 22.8285 132.218 22.8285 132.188 22.8277ZM140.887 21.3086C140.675 21.2848 140.486 21.2225 140.354 21.1327C140.221 21.0429 140.153 20.9314 140.162 20.8179V15.2477C140.14 15.1788 140.147 15.1082 140.183 15.0408C140.218 14.9734 140.281 14.9109 140.367 14.8576C140.453 14.8042 140.561 14.7614 140.682 14.732C140.803 14.7026 140.935 14.6874 141.068 14.6874C141.201 14.6874 141.333 14.7026 141.454 14.732C141.575 14.7614 141.683 14.8042 141.769 14.8576C141.855 14.9109 141.918 14.9734 141.953 15.0408C141.989 15.1082 141.996 15.1788 141.974 15.2477V20.8179C141.977 20.8855 141.953 20.9526 141.903 21.0149C141.853 21.0772 141.779 21.1334 141.685 21.1796C141.591 21.2259 141.479 21.2613 141.358 21.2836C141.236 21.3058 141.107 21.3143 140.978 21.3086C140.948 21.3094 140.917 21.3094 140.886 21.3086H140.887ZM129.289 20.8022C129.077 20.7784 128.888 20.7161 128.755 20.6263C128.623 20.5365 128.555 20.425 128.564 20.3115V15.7541C128.542 15.6852 128.549 15.6146 128.584 15.5472C128.62 15.4798 128.683 15.4173 128.769 15.364C128.855 15.3106 128.962 15.2678 129.083 15.2384C129.204 15.209 129.336 15.1937 129.47 15.1937C129.603 15.1937 129.735 15.209 129.856 15.2384C129.977 15.2678 130.084 15.3106 130.17 15.364C130.257 15.4173 130.32 15.4798 130.355 15.5472C130.39 15.6146 130.397 15.6852 130.375 15.7541V20.3115C130.378 20.3791 130.354 20.4462 130.304 20.5085C130.255 20.5708 130.18 20.627 130.087 20.6733C129.993 20.7196 129.881 20.755 129.759 20.7772C129.638 20.7994 129.508 20.8079 129.38 20.8022C129.349 20.803 129.319 20.803 129.288 20.8022H129.289ZM135.088 20.2958C134.876 20.272 134.687 20.2097 134.554 20.1199C134.422 20.0301 134.354 19.9186 134.363 19.8052V16.2605C134.341 16.1916 134.348 16.121 134.384 16.0536C134.419 15.9862 134.482 15.9237 134.568 15.8703C134.654 15.817 134.762 15.7741 134.883 15.7447C135.004 15.7154 135.135 15.7001 135.269 15.7001C135.402 15.7001 135.534 15.7154 135.655 15.7447C135.776 15.7741 135.883 15.817 135.97 15.8703C136.056 15.9237 136.119 15.9862 136.154 16.0536C136.19 16.121 136.196 16.1916 136.174 16.2605V19.8052C136.178 19.8727 136.153 19.9398 136.104 20.0021C136.054 20.0645 135.98 20.1206 135.886 20.1669C135.792 20.2132 135.68 20.2486 135.559 20.2708C135.437 20.293 135.307 20.3016 135.179 20.2958C135.148 20.2966 135.118 20.2966 135.087 20.2958H135.088ZM146.686 20.2958C146.474 20.272 146.285 20.2097 146.153 20.1199C146.02 20.0301 145.952 19.9186 145.962 19.8052V16.2605C145.94 16.1917 145.947 16.1212 145.983 16.054C146.019 15.9868 146.082 15.9244 146.168 15.8713C146.254 15.8181 146.361 15.7754 146.482 15.7461C146.603 15.7168 146.735 15.7017 146.868 15.7017C147.001 15.7017 147.132 15.7168 147.253 15.7461C147.374 15.7754 147.481 15.8181 147.567 15.8713C147.654 15.9244 147.717 15.9868 147.752 16.054C147.788 16.1212 147.795 16.1917 147.774 16.2605V19.8052C147.777 19.8728 147.753 19.94 147.703 20.0024C147.653 20.0648 147.578 20.121 147.484 20.1673C147.39 20.2136 147.279 20.249 147.157 20.2711C147.035 20.2933 146.905 20.3017 146.776 20.2958C146.746 20.2966 146.716 20.2966 146.686 20.2958ZM126.389 19.2831C126.177 19.2593 125.988 19.197 125.856 19.1072C125.723 19.0174 125.655 18.9059 125.664 18.7924V17.2733C125.643 17.2044 125.65 17.134 125.686 17.0667C125.721 16.9995 125.785 16.9372 125.871 16.884C125.957 16.8309 126.064 16.7882 126.185 16.7589C126.306 16.7296 126.437 16.7144 126.571 16.7144C126.704 16.7144 126.835 16.7296 126.956 16.7589C127.077 16.7882 127.184 16.8309 127.27 16.884C127.357 16.9372 127.42 16.9995 127.455 17.0667C127.491 17.134 127.498 17.2044 127.477 17.2733V18.7924C127.48 18.86 127.456 18.9272 127.406 18.9896C127.356 19.052 127.281 19.1082 127.187 19.1545C127.093 19.2008 126.981 19.2362 126.859 19.2584C126.737 19.2805 126.608 19.2889 126.479 19.2831C126.449 19.2839 126.419 19.2839 126.388 19.2831H126.389ZM137.988 19.2831C137.776 19.2593 137.587 19.197 137.454 19.1072C137.321 19.0174 137.254 18.9059 137.263 18.7924V17.2733C137.241 17.2043 137.248 17.1337 137.283 17.0663C137.318 16.999 137.381 16.9364 137.468 16.8831C137.554 16.8298 137.661 16.7869 137.782 16.7575C137.903 16.7281 138.035 16.7129 138.168 16.7129C138.302 16.7129 138.434 16.7281 138.555 16.7575C138.676 16.7869 138.783 16.8298 138.869 16.8831C138.955 16.9364 139.018 16.999 139.054 17.0663C139.089 17.1337 139.096 17.2043 139.074 17.2733V18.7924C139.077 18.8599 139.053 18.9271 139.003 18.9894C138.953 19.0517 138.879 19.1078 138.785 19.1541C138.691 19.2004 138.58 19.2358 138.458 19.258C138.336 19.2803 138.207 19.2888 138.079 19.2831C138.048 19.2839 138.017 19.2839 137.987 19.2831H137.988ZM149.586 19.2831C149.374 19.2593 149.185 19.197 149.052 19.1072C148.92 19.0174 148.852 18.9059 148.861 18.7924V17.2733C148.84 17.2044 148.847 17.134 148.883 17.0667C148.918 16.9995 148.981 16.9372 149.067 16.884C149.154 16.8309 149.261 16.7882 149.382 16.7589C149.503 16.7296 149.634 16.7144 149.767 16.7144C149.9 16.7144 150.032 16.7296 150.153 16.7589C150.274 16.7882 150.381 16.8309 150.467 16.884C150.553 16.9372 150.616 16.9995 150.652 17.0667C150.688 17.134 150.695 17.2044 150.673 17.2733V18.7924C150.676 18.86 150.652 18.9272 150.602 18.9896C150.552 19.052 150.478 19.1082 150.384 19.1545C150.29 19.2008 150.178 19.2362 150.056 19.2584C149.934 19.2805 149.805 19.2889 149.676 19.2831C149.646 19.2839 149.616 19.2839 149.586 19.2831Z" fill="#0B2B3E"/>
<path d="M167.06 26.997C166.848 26.9568 166.659 26.8517 166.526 26.7002C166.394 26.5488 166.326 26.3607 166.335 26.1694V9.94253C166.313 9.82643 166.321 9.70759 166.356 9.59423C166.392 9.48088 166.455 9.37573 166.541 9.28607C166.627 9.19641 166.735 9.12438 166.856 9.07499C166.976 9.02559 167.108 9 167.241 9C167.374 9 167.506 9.02559 167.627 9.07499C167.747 9.12438 167.855 9.19641 167.941 9.28607C168.027 9.37573 168.09 9.48088 168.126 9.59423C168.161 9.70759 168.169 9.82643 168.147 9.94253V26.1694C168.15 26.2834 168.126 26.3968 168.076 26.502C168.026 26.6073 167.952 26.702 167.858 26.7801C167.764 26.8582 167.652 26.9179 167.53 26.9553C167.408 26.9926 167.278 27.0068 167.15 26.997C167.12 26.9982 167.09 26.9982 167.06 26.997ZM155.461 26.1429C155.25 26.1028 155.06 25.9977 154.928 25.8462C154.795 25.6947 154.727 25.5067 154.737 25.3153V10.7966C154.715 10.6805 154.722 10.5616 154.758 10.4483C154.794 10.3349 154.857 10.2298 154.943 10.1401C155.029 10.0504 155.136 9.97843 155.257 9.92903C155.378 9.87963 155.51 9.85405 155.643 9.85405C155.776 9.85405 155.907 9.87963 156.028 9.92903C156.149 9.97843 156.256 10.0504 156.342 10.1401C156.429 10.2298 156.492 10.3349 156.527 10.4483C156.563 10.5616 156.57 10.6805 156.549 10.7966V25.3153C156.552 25.4294 156.528 25.5427 156.478 25.648C156.428 25.7532 156.353 25.848 156.259 25.9261C156.165 26.0042 156.054 26.0639 155.932 26.1012C155.81 26.1386 155.68 26.1528 155.551 26.1429C155.521 26.1442 155.491 26.1442 155.461 26.1429ZM164.16 23.5808C163.948 23.5406 163.759 23.4355 163.627 23.2841C163.494 23.1326 163.426 22.9446 163.435 22.7532V13.3587C163.413 13.2425 163.42 13.1234 163.456 13.0097C163.491 12.8961 163.554 12.7906 163.64 12.7007C163.726 12.6107 163.834 12.5384 163.955 12.4889C164.076 12.4393 164.208 12.4136 164.341 12.4136C164.474 12.4136 164.606 12.4393 164.727 12.4889C164.848 12.5384 164.956 12.6107 165.042 12.7007C165.128 12.7906 165.191 12.8961 165.226 13.0097C165.262 13.1234 165.269 13.2425 165.247 13.3587V22.7532C165.25 22.8671 165.225 22.9803 165.176 23.0854C165.126 23.1905 165.052 23.2852 164.958 23.3633C164.864 23.4413 164.752 23.5011 164.631 23.5385C164.509 23.576 164.38 23.5904 164.251 23.5808C164.22 23.5821 164.19 23.5821 164.159 23.5808H164.16ZM152.562 22.7267C152.35 22.6866 152.161 22.5815 152.028 22.43C151.896 22.2786 151.828 22.0905 151.837 21.8992V14.2128C151.815 14.0965 151.822 13.9774 151.857 13.8638C151.893 13.7501 151.956 13.6447 152.042 13.5547C152.128 13.4648 152.235 13.3925 152.356 13.3429C152.477 13.2933 152.609 13.2676 152.743 13.2676C152.876 13.2676 153.008 13.2933 153.129 13.3429C153.25 13.3925 153.357 13.4648 153.443 13.5547C153.53 13.6447 153.593 13.7501 153.628 13.8638C153.663 13.9774 153.67 14.0965 153.648 14.2128V21.8992C153.651 22.0131 153.627 22.1263 153.577 22.2314C153.528 22.3365 153.453 22.4312 153.359 22.5092C153.266 22.5873 153.154 22.647 153.032 22.6845C152.911 22.722 152.781 22.7364 152.653 22.7267C152.622 22.7281 152.591 22.7281 152.561 22.7267H152.562ZM158.361 21.8727C158.149 21.8325 157.96 21.7274 157.827 21.576C157.695 21.4245 157.627 21.2365 157.636 21.0451V15.0668C157.614 14.9505 157.621 14.8315 157.656 14.7178C157.692 14.6042 157.755 14.4987 157.841 14.4088C157.927 14.3188 158.035 14.2465 158.156 14.1969C158.277 14.1474 158.408 14.1217 158.542 14.1217C158.675 14.1217 158.807 14.1474 158.928 14.1969C159.049 14.2465 159.156 14.3188 159.243 14.4088C159.329 14.4987 159.392 14.6042 159.427 14.7178C159.462 14.8315 159.469 14.9505 159.447 15.0668V21.0451C159.45 21.159 159.426 21.2722 159.377 21.3773C159.327 21.4824 159.253 21.5771 159.159 21.6552C159.065 21.7332 158.953 21.793 158.831 21.8304C158.71 21.8679 158.58 21.8823 158.452 21.8727C158.421 21.874 158.391 21.874 158.36 21.8727H158.361ZM169.959 21.8727C169.747 21.8325 169.558 21.7274 169.426 21.576C169.293 21.4245 169.225 21.2365 169.234 21.0451V15.0668C169.213 14.9507 169.22 14.8319 169.256 14.7185C169.292 14.6051 169.355 14.5 169.441 14.4103C169.527 14.3207 169.634 14.2486 169.755 14.1993C169.876 14.1499 170.007 14.1243 170.141 14.1243C170.274 14.1243 170.405 14.1499 170.526 14.1993C170.647 14.2486 170.754 14.3207 170.84 14.4103C170.927 14.5 170.99 14.6051 171.025 14.7185C171.061 14.8319 171.068 14.9507 171.047 15.0668V21.0451C171.05 21.1592 171.026 21.2725 170.976 21.3778C170.926 21.483 170.851 21.5778 170.757 21.6559C170.663 21.734 170.551 21.7936 170.429 21.831C170.307 21.8684 170.178 21.8826 170.049 21.8727C170.019 21.874 169.989 21.874 169.959 21.8727ZM149.662 20.1646C149.45 20.1244 149.261 20.0193 149.129 19.8679C148.996 19.7164 148.928 19.5284 148.937 19.337V16.7749C148.916 16.6588 148.923 16.5399 148.959 16.4266C148.994 16.3132 149.058 16.2081 149.144 16.1184C149.23 16.0288 149.337 15.9567 149.458 15.9073C149.579 15.8579 149.71 15.8324 149.843 15.8324C149.977 15.8324 150.108 15.8579 150.229 15.9073C150.35 15.9567 150.457 16.0288 150.543 16.1184C150.629 16.2081 150.693 16.3132 150.728 16.4266C150.764 16.5399 150.771 16.6588 150.75 16.7749V19.337C150.753 19.4511 150.728 19.5644 150.679 19.6697C150.629 19.7749 150.554 19.8697 150.46 19.9478C150.366 20.0259 150.254 20.0855 150.132 20.1229C150.01 20.1603 149.881 20.1745 149.752 20.1646C149.722 20.1659 149.692 20.1659 149.661 20.1646H149.662ZM161.261 20.1646C161.049 20.1244 160.86 20.0193 160.727 19.8679C160.594 19.7164 160.527 19.5284 160.536 19.337V16.7749C160.514 16.6586 160.521 16.5395 160.556 16.4259C160.591 16.3123 160.654 16.2068 160.741 16.1168C160.827 16.0269 160.934 15.9546 161.055 15.905C161.176 15.8555 161.308 15.8298 161.441 15.8298C161.575 15.8298 161.707 15.8555 161.828 15.905C161.949 15.9546 162.056 16.0269 162.142 16.1168C162.228 16.2068 162.291 16.3123 162.327 16.4259C162.362 16.5395 162.369 16.6586 162.347 16.7749V19.337C162.35 19.4509 162.326 19.5641 162.276 19.6692C162.226 19.7743 162.152 19.869 162.058 19.9471C161.964 20.0252 161.853 20.0849 161.731 20.1224C161.609 20.1598 161.48 20.1742 161.351 20.1646C161.321 20.1659 161.29 20.1659 161.26 20.1646H161.261ZM172.859 20.1646C172.647 20.1244 172.458 20.0193 172.325 19.8679C172.193 19.7164 172.125 19.5284 172.134 19.337V16.7749C172.113 16.6588 172.12 16.5399 172.155 16.4266C172.191 16.3132 172.254 16.2081 172.34 16.1184C172.427 16.0288 172.534 15.9567 172.655 15.9073C172.776 15.8579 172.907 15.8324 173.04 15.8324C173.173 15.8324 173.305 15.8579 173.426 15.9073C173.547 15.9567 173.654 16.0288 173.74 16.1184C173.826 16.2081 173.889 16.3132 173.925 16.4266C173.961 16.5399 173.968 16.6588 173.946 16.7749V19.337C173.949 19.4511 173.925 19.5644 173.875 19.6697C173.825 19.7749 173.751 19.8697 173.657 19.9478C173.563 20.0259 173.451 20.0855 173.329 20.1229C173.207 20.1603 173.078 20.1745 172.949 20.1646C172.919 20.1659 172.889 20.1659 172.859 20.1646Z" fill="#0B2B3E"/>
</g>
<g clip-path="url(#clip1_705_13291)">
<path d="M187.467 26.997C187.254 26.9568 187.064 26.8517 186.931 26.7002C186.797 26.5488 186.729 26.3607 186.738 26.1694V9.94253C186.717 9.82643 186.724 9.70759 186.76 9.59423C186.796 9.48088 186.859 9.37573 186.946 9.28607C187.032 9.19641 187.14 9.12438 187.262 9.07498C187.383 9.02559 187.515 9 187.649 9C187.783 9 187.915 9.02559 188.036 9.07498C188.158 9.12438 188.266 9.19641 188.352 9.28607C188.439 9.37573 188.502 9.48088 188.538 9.59423C188.574 9.70759 188.581 9.82643 188.56 9.94253V26.1694C188.563 26.2834 188.538 26.3968 188.488 26.502C188.438 26.6073 188.363 26.702 188.269 26.7801C188.174 26.8582 188.062 26.9179 187.939 26.9553C187.817 26.9926 187.686 27.0068 187.557 26.997C187.527 26.9982 187.497 26.9982 187.467 26.997ZM175.81 25.0326C175.597 24.9925 175.407 24.8874 175.274 24.7359C175.141 24.5845 175.072 24.3964 175.082 24.2051V11.9068C175.06 11.7907 175.067 11.6719 175.103 11.5585C175.139 11.4452 175.202 11.34 175.289 11.2504C175.376 11.1607 175.483 11.0887 175.605 11.0393C175.726 10.9899 175.859 10.9643 175.992 10.9643C176.126 10.9643 176.258 10.9899 176.38 11.0393C176.501 11.0887 176.609 11.1607 176.696 11.2504C176.782 11.34 176.846 11.4452 176.882 11.5585C176.917 11.6719 176.925 11.7907 176.903 11.9068V24.2051C176.906 24.3191 176.882 24.4325 176.832 24.5377C176.782 24.643 176.707 24.7377 176.612 24.8158C176.518 24.8939 176.405 24.9536 176.283 24.991C176.16 25.0283 176.03 25.0425 175.901 25.0326C175.87 25.0339 175.84 25.0339 175.81 25.0326ZM184.553 23.5808C184.34 23.5406 184.15 23.4355 184.016 23.2841C183.883 23.1326 183.815 22.9446 183.824 22.7532V13.3587C183.802 13.2425 183.809 13.1234 183.845 13.0097C183.88 12.8961 183.943 12.7906 184.03 12.7007C184.117 12.6107 184.225 12.5384 184.346 12.4889C184.468 12.4393 184.6 12.4136 184.734 12.4136C184.868 12.4136 185.001 12.4393 185.122 12.4889C185.244 12.5384 185.352 12.6107 185.439 12.7007C185.525 12.7906 185.589 12.8961 185.624 13.0097C185.66 13.1234 185.667 13.2425 185.645 13.3587V22.7532C185.648 22.8671 185.623 22.9803 185.573 23.0854C185.523 23.1905 185.449 23.2852 185.354 23.3633C185.26 23.4413 185.148 23.5011 185.025 23.5385C184.903 23.576 184.773 23.5904 184.644 23.5808C184.613 23.5821 184.582 23.5821 184.552 23.5808H184.553ZM172.896 20.5062C172.683 20.4661 172.493 20.361 172.36 20.2095C172.226 20.058 172.158 19.87 172.168 19.6786V16.4333C172.145 16.317 172.152 16.1979 172.188 16.0843C172.224 15.9706 172.287 15.8652 172.373 15.7752C172.46 15.6853 172.568 15.613 172.69 15.5634C172.811 15.5138 172.944 15.4882 173.078 15.4882C173.212 15.4882 173.344 15.5138 173.466 15.5634C173.587 15.613 173.695 15.6853 173.782 15.7752C173.869 15.8652 173.932 15.9706 173.967 16.0843C174.003 16.1979 174.01 16.317 173.988 16.4333V19.6786C173.991 19.7925 173.967 19.9057 173.917 20.0109C173.867 20.116 173.792 20.2106 173.698 20.2887C173.603 20.3668 173.491 20.4265 173.369 20.464C173.246 20.5014 173.116 20.5158 172.987 20.5062C172.957 20.5076 172.926 20.5076 172.895 20.5062H172.896ZM178.724 21.8727C178.511 21.8325 178.321 21.7274 178.188 21.576C178.055 21.4245 177.987 21.2365 177.996 21.0451V15.0668C177.974 14.9505 177.981 14.8315 178.016 14.7178C178.052 14.6042 178.115 14.4987 178.202 14.4088C178.288 14.3188 178.396 14.2465 178.518 14.1969C178.64 14.1474 178.772 14.1217 178.906 14.1217C179.04 14.1217 179.173 14.1474 179.294 14.1969C179.416 14.2465 179.524 14.3188 179.61 14.4088C179.697 14.4987 179.76 14.6042 179.796 14.7178C179.831 14.8315 179.838 14.9505 179.816 15.0668V21.0451C179.819 21.159 179.795 21.2722 179.745 21.3773C179.695 21.4824 179.62 21.5771 179.526 21.6552C179.432 21.7332 179.32 21.793 179.197 21.8304C179.075 21.8679 178.945 21.8823 178.816 21.8727C178.785 21.874 178.754 21.874 178.723 21.8727H178.724ZM190.381 21.8727C190.168 21.8325 189.978 21.7274 189.845 21.576C189.711 21.4245 189.643 21.2365 189.652 21.0451V15.0668C189.631 14.9507 189.638 14.8319 189.674 14.7185C189.71 14.6051 189.773 14.5 189.86 14.4103C189.946 14.3207 190.054 14.2486 190.176 14.1993C190.297 14.1499 190.429 14.1243 190.563 14.1243C190.697 14.1243 190.829 14.1499 190.951 14.1993C191.072 14.2486 191.18 14.3207 191.266 14.4103C191.353 14.5 191.416 14.6051 191.452 14.7185C191.488 14.8319 191.495 14.9507 191.474 15.0668V21.0451C191.477 21.1592 191.453 21.2725 191.402 21.3778C191.352 21.483 191.278 21.5778 191.183 21.6559C191.088 21.734 190.976 21.7936 190.853 21.831C190.731 21.8684 190.601 21.8826 190.471 21.8727C190.441 21.874 190.411 21.874 190.381 21.8727ZM169.982 20.1646C169.769 20.1244 169.579 20.0193 169.446 19.8679C169.312 19.7164 169.244 19.5284 169.253 19.337V16.7749C169.232 16.6588 169.239 16.5399 169.275 16.4266C169.311 16.3132 169.374 16.2081 169.461 16.1184C169.547 16.0288 169.655 15.9567 169.777 15.9073C169.898 15.8579 170.03 15.8324 170.164 15.8324C170.298 15.8324 170.43 15.8579 170.551 15.9073C170.673 15.9567 170.781 16.0288 170.867 16.1184C170.954 16.2081 171.017 16.3132 171.053 16.4266C171.089 16.5399 171.096 16.6588 171.075 16.7749V19.337C171.078 19.4511 171.053 19.5644 171.003 19.6697C170.953 19.7749 170.878 19.8697 170.784 19.9478C170.689 20.0259 170.577 20.0855 170.454 20.1229C170.332 20.1603 170.202 20.1745 170.072 20.1646C170.042 20.1659 170.011 20.1659 169.981 20.1646H169.982ZM181.639 19.0543C181.426 19.0142 181.236 18.9091 181.102 18.7576C180.969 18.6062 180.901 18.4181 180.91 18.2268V17.8851C180.888 17.7689 180.895 17.6498 180.93 17.5362C180.966 17.4225 181.029 17.317 181.116 17.2271C181.203 17.1371 181.31 17.0649 181.432 17.0153C181.554 16.9657 181.686 16.94 181.82 16.94C181.954 16.94 182.087 16.9657 182.208 17.0153C182.33 17.0649 182.438 17.1371 182.524 17.2271C182.611 17.317 182.674 17.4225 182.71 17.5362C182.745 17.6498 182.752 17.7689 182.73 17.8851V18.2268C182.733 18.3407 182.709 18.4539 182.659 18.559C182.609 18.6641 182.535 18.7588 182.44 18.8368C182.346 18.9149 182.234 18.9746 182.111 19.0121C181.989 19.0496 181.859 19.064 181.73 19.0543C181.699 19.0557 181.668 19.0557 181.638 19.0543H181.639ZM193.295 20.1646C193.082 20.1244 192.892 20.0193 192.759 19.8679C192.626 19.7164 192.557 19.5284 192.567 19.337V16.7749C192.545 16.6588 192.552 16.5399 192.588 16.4266C192.624 16.3132 192.687 16.2081 192.774 16.1184C192.861 16.0288 192.968 15.9567 193.09 15.9073C193.211 15.8579 193.343 15.8324 193.477 15.8324C193.611 15.8324 193.743 15.8579 193.865 15.9073C193.986 15.9567 194.094 16.0288 194.181 16.1184C194.267 16.2081 194.331 16.3132 194.366 16.4266C194.402 16.5399 194.41 16.6588 194.388 16.7749V19.337C194.391 19.4511 194.367 19.5644 194.317 19.6697C194.266 19.7749 194.192 19.8697 194.097 19.9478C194.002 20.0259 193.89 20.0855 193.768 20.1229C193.645 20.1603 193.515 20.1745 193.385 20.1646C193.355 20.1659 193.325 20.1659 193.295 20.1646Z" fill="#0B2B3E"/>
<path d="M210.65 24.7673C210.438 24.7372 210.249 24.6586 210.116 24.5454C209.983 24.4321 209.916 24.2915 209.925 24.1484V12.0142C209.903 11.9274 209.911 11.8385 209.946 11.7537C209.982 11.669 210.045 11.5903 210.131 11.5233C210.217 11.4562 210.325 11.4024 210.445 11.3654C210.566 11.3285 210.698 11.3094 210.831 11.3094C210.964 11.3094 211.096 11.3285 211.216 11.3654C211.337 11.4024 211.444 11.4562 211.531 11.5233C211.617 11.5903 211.68 11.669 211.716 11.7537C211.751 11.8385 211.759 11.9274 211.737 12.0142V24.1484C211.74 24.2337 211.716 24.3185 211.666 24.3972C211.616 24.4759 211.542 24.5467 211.448 24.6051C211.353 24.6635 211.242 24.7081 211.12 24.7361C210.998 24.764 210.868 24.7746 210.74 24.7673C210.71 24.7682 210.68 24.7682 210.65 24.7673ZM199.051 24.1286C198.839 24.0986 198.65 24.02 198.518 23.9067C198.385 23.7935 198.317 23.6529 198.326 23.5098V12.6528C198.305 12.566 198.312 12.4771 198.348 12.3924C198.383 12.3076 198.447 12.229 198.533 12.1619C198.619 12.0949 198.726 12.041 198.847 12.0041C198.968 11.9671 199.099 11.948 199.233 11.948C199.366 11.948 199.497 11.9671 199.618 12.0041C199.739 12.041 199.846 12.0949 199.932 12.1619C200.019 12.229 200.082 12.3076 200.117 12.3924C200.153 12.4771 200.16 12.566 200.139 12.6528V23.5098C200.142 23.5951 200.118 23.6798 200.068 23.7585C200.018 23.8372 199.943 23.9081 199.849 23.9665C199.755 24.0249 199.643 24.0695 199.521 24.0974C199.399 24.1254 199.27 24.136 199.141 24.1286C199.111 24.1296 199.081 24.1296 199.051 24.1286ZM207.75 22.2127C207.538 22.1827 207.349 22.1041 207.216 21.9908C207.084 21.8775 207.016 21.7369 207.025 21.5938V14.5687C207.003 14.4818 207.01 14.3928 207.045 14.3078C207.081 14.2228 207.144 14.1439 207.23 14.0767C207.316 14.0094 207.424 13.9554 207.545 13.9183C207.666 13.8812 207.797 13.862 207.931 13.862C208.064 13.862 208.196 13.8812 208.317 13.9183C208.438 13.9554 208.545 14.0094 208.632 14.0767C208.718 14.1439 208.781 14.2228 208.816 14.3078C208.851 14.3928 208.858 14.4818 208.836 14.5687V21.5938C208.839 21.679 208.815 21.7637 208.766 21.8423C208.716 21.9209 208.642 21.9916 208.548 22.05C208.454 22.1084 208.342 22.1531 208.22 22.1811C208.099 22.2091 207.969 22.2199 207.841 22.2127C207.81 22.2137 207.78 22.2137 207.749 22.2127H207.75ZM196.152 21.574C195.94 21.544 195.751 21.4654 195.618 21.3522C195.485 21.2389 195.418 21.0983 195.427 20.9552V15.2074C195.405 15.1205 195.412 15.0314 195.447 14.9464C195.483 14.8614 195.546 14.7826 195.632 14.7153C195.718 14.648 195.825 14.594 195.946 14.5569C196.067 14.5199 196.199 14.5006 196.332 14.5006C196.466 14.5006 196.598 14.5199 196.719 14.5569C196.84 14.594 196.947 14.648 197.033 14.7153C197.119 14.7826 197.182 14.8614 197.218 14.9464C197.253 15.0314 197.26 15.1205 197.238 15.2074V20.9552C197.241 21.0404 197.217 21.125 197.167 21.2036C197.117 21.2822 197.043 21.353 196.949 21.4114C196.855 21.4698 196.744 21.5144 196.622 21.5424C196.5 21.5705 196.371 21.5812 196.243 21.574C196.212 21.575 196.181 21.575 196.151 21.574H196.152ZM201.951 20.9354C201.739 20.9054 201.55 20.8268 201.417 20.7135C201.285 20.6003 201.217 20.4596 201.226 20.3165V15.846C201.204 15.7591 201.211 15.67 201.246 15.5851C201.282 15.5001 201.345 15.4212 201.431 15.354C201.517 15.2867 201.624 15.2326 201.745 15.1956C201.866 15.1585 201.998 15.1393 202.132 15.1393C202.265 15.1393 202.397 15.1585 202.518 15.1956C202.639 15.2326 202.746 15.2867 202.832 15.354C202.919 15.4212 202.982 15.5001 203.017 15.5851C203.052 15.67 203.059 15.7591 203.037 15.846V20.3165C203.04 20.4017 203.016 20.4864 202.966 20.565C202.917 20.6436 202.842 20.7144 202.748 20.7727C202.655 20.8311 202.543 20.8758 202.421 20.9038C202.3 20.9318 202.17 20.9426 202.042 20.9354C202.011 20.9364 201.98 20.9364 201.95 20.9354H201.951ZM213.549 20.9354C213.337 20.9054 213.148 20.8268 213.016 20.7135C212.883 20.6003 212.815 20.4596 212.824 20.3165V15.846C212.803 15.7592 212.81 15.6703 212.846 15.5856C212.881 15.5008 212.944 15.4222 213.031 15.3551C213.117 15.2881 213.224 15.2342 213.345 15.1973C213.466 15.1604 213.597 15.1412 213.73 15.1412C213.864 15.1412 213.995 15.1604 214.116 15.1973C214.237 15.2342 214.344 15.2881 214.43 15.3551C214.516 15.4222 214.58 15.5008 214.615 15.5856C214.651 15.6703 214.658 15.7592 214.637 15.846V20.3165C214.64 20.4018 214.615 20.4866 214.566 20.5653C214.516 20.644 214.441 20.7149 214.347 20.7733C214.253 20.8317 214.141 20.8763 214.019 20.9042C213.897 20.9322 213.768 20.9428 213.639 20.9354C213.609 20.9364 213.579 20.9364 213.549 20.9354ZM193.252 19.6581C193.04 19.6281 192.851 19.5495 192.718 19.4362C192.586 19.323 192.518 19.1823 192.527 19.0393V17.1233C192.506 17.0365 192.513 16.9476 192.549 16.8629C192.584 16.7781 192.647 16.6995 192.734 16.6324C192.82 16.5654 192.927 16.5115 193.048 16.4746C193.169 16.4376 193.3 16.4185 193.433 16.4185C193.566 16.4185 193.698 16.4376 193.819 16.4746C193.94 16.5115 194.047 16.5654 194.133 16.6324C194.219 16.6995 194.282 16.7781 194.318 16.8629C194.354 16.9476 194.361 17.0365 194.339 17.1233V19.0393C194.343 19.1245 194.318 19.2093 194.268 19.288C194.219 19.3667 194.144 19.4376 194.05 19.496C193.956 19.5544 193.844 19.599 193.722 19.6269C193.6 19.6549 193.471 19.6655 193.342 19.6581C193.312 19.6591 193.281 19.6591 193.251 19.6581H193.252ZM204.85 19.6581C204.639 19.6281 204.45 19.5495 204.317 19.4362C204.184 19.323 204.116 19.1823 204.126 19.0393V17.1233C204.104 17.0364 204.111 16.9473 204.146 16.8624C204.181 16.7774 204.244 16.6985 204.33 16.6312C204.417 16.564 204.524 16.5099 204.645 16.4729C204.766 16.4358 204.898 16.4166 205.031 16.4166C205.165 16.4166 205.296 16.4358 205.417 16.4729C205.538 16.5099 205.646 16.564 205.732 16.6312C205.818 16.6985 205.881 16.7774 205.917 16.8624C205.952 16.9473 205.959 17.0364 205.937 17.1233V19.0393C205.94 19.1244 205.916 19.2091 205.866 19.2877C205.816 19.3663 205.742 19.4371 205.648 19.4955C205.554 19.5538 205.443 19.5985 205.321 19.6265C205.199 19.6545 205.07 19.6653 204.941 19.6581C204.911 19.6591 204.88 19.6591 204.849 19.6581H204.85ZM216.449 19.6581C216.237 19.6281 216.048 19.5495 215.915 19.4362C215.783 19.323 215.715 19.1823 215.724 19.0393V17.1233C215.702 17.0365 215.71 16.9476 215.745 16.8629C215.781 16.7781 215.844 16.6995 215.93 16.6324C216.016 16.5654 216.124 16.5115 216.245 16.4746C216.365 16.4376 216.497 16.4185 216.63 16.4185C216.763 16.4185 216.895 16.4376 217.016 16.4746C217.136 16.5115 217.244 16.5654 217.33 16.6324C217.416 16.6995 217.479 16.7781 217.515 16.8629C217.55 16.9476 217.558 17.0365 217.536 17.1233V19.0393C217.539 19.1245 217.515 19.2093 217.465 19.288C217.415 19.3667 217.341 19.4376 217.247 19.496C217.153 19.5544 217.041 19.599 216.919 19.6269C216.797 19.6549 216.667 19.6655 216.539 19.6581C216.509 19.6591 216.479 19.6591 216.449 19.6581Z" fill="#0B2B3E"/>
</g>
</g>
<ellipse cx="21.0013" cy="18.0013" rx="10.8333" ry="10.8333" fill="#0B2B3E"/>
<path d="M18.832 21.292L25.0612 17.7495L18.832 14.207V21.292Z" fill="#EF7D90"/>
<defs>
<clipPath id="clip0_705_13291">
<rect width="118.498" height="18" fill="white" transform="matrix(1 0 0 -1 55.7104 27)"/>
</clipPath>
<clipPath id="clip1_705_13291">
<rect width="48.3051" height="18" fill="white" transform="matrix(1 0 0 -1 169.304 27)"/>
</clipPath>
</defs>
</svg>
