<svg width="141" height="143" viewBox="0 0 141 143" fill="none" xmlns="http://www.w3.org/2000/svg">
<mask id="mask0_705_12761" style="mask-type:alpha" maskUnits="userSpaceOnUse" x="22" y="16" width="109" height="109">
<circle cx="76.335" cy="70.6826" r="53.861" transform="rotate(45 76.335 70.6826)" fill="#C4C4C4"/>
</mask>
<g mask="url(#mask0_705_12761)">
<path fill-rule="evenodd" clip-rule="evenodd" d="M80.3102 59.4534C81.0952 60.1216 74.8754 66.2182 75.4675 66.4216C76.2475 66.689 81.684 60.2269 83.6525 60.652C87.3207 61.4432 78.5801 67.5147 78.9157 68.8044C79.0611 69.3639 84.8482 63.7797 85.856 65.7727C87.262 68.5524 79.6854 73.44 79.8605 74.093C80.2079 75.3818 83.6999 71.3209 84.7231 73.0392C85.4707 74.294 78.9373 80.398 77.5298 81.5337C71.9745 86.018 68.5697 88.2595 64.0024 90.665C58.5053 93.5601 42.897 104.055 21.0509 108.254C13.6843 109.67 -6.57626 110.931 -15.2136 86.3361C-16.2166 83.4795 -18.5199 68.4073 -16.5889 59.2663C-13.7181 45.6774 -0.866296 51.5438 7.4138 45.0884C11.5739 41.8452 8.42718 69.7749 14.585 76.5712C25.9985 89.1651 47.0923 79.2116 52.3887 76.5264C59.1503 73.097 64.3852 61.7556 67.5096 62.8641C70.091 63.7799 62.6639 71.7815 67.1772 68.3861C74.3774 62.9671 77.3597 56.9388 80.3102 59.4534Z" fill="#D09565"/>
<g filter="url(#filter0_d_705_12761)">
<path fill-rule="evenodd" clip-rule="evenodd" d="M51.1917 47.3528C50.5105 48.1192 52.2783 40.5341 49.9425 39.3349C47.8454 38.258 42.5869 55.5082 42.5869 55.5082C42.5869 55.5082 16.5381 71.5332 14.6049 68.5439C11.3215 63.4641 13.5348 35.8572 13.5348 35.8572L-22.7819 37.5986C-22.7819 37.5986 -28.1332 86.5738 -8.36698 101.735C4.53571 111.632 46.9299 78.9271 53.7479 73.3396C62.4489 66.2093 62.8785 64.6612 68.3534 57.2785C69.0451 56.3458 72.0583 52.0839 73.582 50.4797C75.5105 48.449 75.2738 46.1112 74.7652 45.9481C73.7308 45.62 69.3791 48.8674 69.6902 48.3016C70.5155 46.8063 77.8266 42.5126 75.6791 40.2769C75.1004 39.6749 68.2797 44.2633 68.778 43.747C71.2889 41.1473 75.7462 37.1086 73.7954 35.8207C72.9447 35.26 65.2704 40.2165 65.4045 40.0469C67.7573 37.0691 70.6047 34.4585 69.0962 33.4521C68.0919 32.7821 64.8482 34.3331 58.8155 39.2847C57.1804 40.6281 53.7637 44.4596 51.1917 47.3528Z" fill="#D09565"/>
</g>
<path fill-rule="evenodd" clip-rule="evenodd" d="M89.5983 57.4634C89.3483 57.2134 89.3496 56.8061 89.6014 56.5543L97.6743 48.4815C97.926 48.2297 98.3333 48.2283 98.5834 48.4784C98.8334 48.7285 98.8321 49.1357 98.5803 49.3875L90.5074 57.4604C90.2557 57.7121 89.8484 57.7135 89.5983 57.4634Z" fill="#0B2B3E"/>
<path fill-rule="evenodd" clip-rule="evenodd" d="M93.3633 77.9135C93.1522 77.7024 93.1133 77.3625 93.2887 77.1019C93.487 76.8058 93.8864 76.7271 94.1803 76.9225L102.944 82.7927C103.241 82.9953 103.316 83.3878 103.116 83.6839C102.918 83.9801 102.518 84.0596 102.225 83.8633L93.4603 77.994C93.424 77.9687 93.3923 77.9424 93.3633 77.9135Z" fill="#0B2B3E"/>
<path fill-rule="evenodd" clip-rule="evenodd" d="M79.0272 103.212C78.9194 103.104 78.8499 102.958 78.8404 102.793L78.3013 92.3713C78.2834 92.0178 78.5563 91.7141 78.9109 91.6929C79.2673 91.6735 79.5673 91.9443 79.5861 92.297L80.1261 102.718C80.1431 103.072 79.8712 103.377 79.5166 103.396C79.3256 103.408 79.1513 103.336 79.0272 103.212Z" fill="#0B2B3E"/>
<path fill-rule="evenodd" clip-rule="evenodd" d="M95.2978 66.448C95.2008 66.3511 95.1331 66.2213 95.1154 66.0741C95.073 65.7233 95.3232 65.4007 95.6761 65.354L117.568 62.5296C117.922 62.4821 118.242 62.7328 118.285 63.0836C118.327 63.4361 118.077 63.7588 117.724 63.8036L95.8317 66.6298C95.6262 66.656 95.4319 66.5821 95.2978 66.448Z" fill="#0B2B3E"/>
<path fill-rule="evenodd" clip-rule="evenodd" d="M79.7207 48.3561C79.4905 48.126 79.4691 47.7542 79.6818 47.4962L96.6922 26.7476C96.9177 26.4713 97.3233 26.43 97.598 26.6536C97.8581 26.8791 97.9113 27.2825 97.6849 27.5578L80.6735 48.3056C80.4481 48.5818 80.0425 48.6232 79.7687 48.4005C79.7524 48.386 79.7361 48.3715 79.7207 48.3561Z" fill="#0B2B3E"/>
<path fill-rule="evenodd" clip-rule="evenodd" d="M100.109 107.828C100.085 107.804 100.062 107.778 100.041 107.75L85.0918 86.9896C84.8846 86.7021 84.9514 86.3001 85.2412 86.0918C85.5301 85.8826 85.9326 85.9476 86.138 86.2333L101.087 106.993C101.295 107.281 101.228 107.683 100.938 107.891C100.679 108.079 100.327 108.046 100.109 107.828Z" fill="#0B2B3E"/>
</g>
<defs>
<filter id="filter0_d_705_12761" x="-23.4419" y="33.3047" width="99.5142" height="74.2832" filterUnits="userSpaceOnUse" color-interpolation-filters="sRGB">
<feFlood flood-opacity="0" result="BackgroundImageFix"/>
<feColorMatrix in="SourceAlpha" type="matrix" values="0 0 0 0 0 0 0 0 0 0 0 0 0 0 0 0 0 0 127 0" result="hardAlpha"/>
<feOffset dy="4"/>
<feComposite in2="hardAlpha" operator="out"/>
<feColorMatrix type="matrix" values="0 0 0 0 0 0 0 0 0 0 0 0 0 0 0 0 0 0 0.15 0"/>
<feBlend mode="normal" in2="BackgroundImageFix" result="effect1_dropShadow_705_12761"/>
<feBlend mode="normal" in="SourceGraphic" in2="effect1_dropShadow_705_12761" result="shape"/>
</filter>
</defs>
</svg>
